<svg width="923" height="172" viewBox="0 0 923 172" fill="none" xmlns="http://www.w3.org/2000/svg">
<path d="M75.9644 84.1272C75.9644 68.675 64.3122 57.8149 49.9994 57.8149C35.6872 57.8149 24.0351 68.8581 24.0351 84.1272C24.0351 99.2132 35.6872 110.44 49.9994 110.44C64.3267 110.425 75.9644 99.5794 75.9644 84.1272ZM76.1695 130.118V118.159C69.1074 126.441 58.5963 131.582 46.0083 131.582C19.8533 131.582 0 111.341 0 84.1272C0 57.0824 20.6138 36.4883 46.5933 36.4883C58.8153 36.4883 69.1226 41.6441 76.184 49.7295V38.1362H99.663V130.118H76.1695Z" fill="black"/>
<path d="M213.704 109.701C205.487 109.701 203.206 106.756 203.206 99.0372V58.2019H218.294V38.1432H203.206V15.7049H179.142V38.1432H148.15V32.5514C148.15 24.8184 151.203 21.8743 159.611 21.8743H164.89V4.02734H153.309C133.456 4.02734 124.101 10.2818 124.101 29.4104V38.1294H110.736V58.1881H124.101V130.111H148.161V58.1881H179.157V103.263C179.157 122.025 186.598 130.125 206.073 130.125H218.484V109.701H213.704Z" fill="black"/>
<path d="M300.017 75.8542C298.309 63.8954 288.178 56.7255 276.35 56.7255C264.507 56.7255 254.77 63.7123 252.3 75.8542H300.017ZM252.094 90.2078C253.821 103.815 263.937 111.548 276.728 111.548C286.848 111.548 294.682 106.942 299.256 99.5887H323.894C318.162 119.084 300.017 131.592 276.159 131.592C247.329 131.592 227.094 112.097 227.094 84.3196C227.094 56.5424 248.483 36.4844 276.743 36.4844C305.195 36.4844 325.808 56.7255 325.808 84.3196C325.808 86.3482 325.617 88.3623 325.239 90.2078H252.094Z" fill="black"/>
<path d="M478.803 84.1272C478.803 69.2243 467.151 57.8149 452.839 57.8149C438.527 57.8149 426.876 68.8581 426.876 84.1272C426.876 99.2132 438.527 110.44 452.839 110.44C467.151 110.425 478.803 99.0301 478.803 84.1272ZM403.189 38.1362H426.669V50.0957C433.731 41.6296 444.226 36.4883 456.829 36.4883C482.605 36.4883 502.837 56.9132 502.837 83.9442C502.837 110.989 482.224 131.597 456.26 131.597C444.226 131.597 434.301 126.99 427.43 119.272V167.966H403.189V38.1362Z" fill="black"/>
<path d="M587.477 84.1272C587.477 68.675 575.843 57.8149 561.516 57.8149C547.2 57.8149 535.548 68.8581 535.548 84.1272C535.548 99.2132 547.2 110.44 561.516 110.44C575.843 110.425 587.477 99.5794 587.477 84.1272ZM587.684 130.118V118.159C580.625 126.441 570.111 131.582 557.522 131.582C531.367 131.582 511.514 111.341 511.514 84.1272C511.514 57.0824 532.128 36.4883 558.092 36.4883C570.317 36.4883 580.625 41.6441 587.684 49.7295V38.1362H611.162V130.118H587.684Z" fill="black"/>
<path d="M360.863 47.1516C360.863 47.1516 366.842 36.4883 381.476 36.4883C387.733 36.4883 391.783 38.559 391.783 38.559V62.0268C391.783 62.0268 382.952 56.7722 374.841 57.8287C366.726 58.8851 361.593 66.0688 361.623 75.6757V130.131H337.383V38.1507H360.863V47.1516Z" fill="black"/>
<path d="M720.81 38.1367L661.531 167.672H636.526L659.804 117.596L620.445 38.1367H648.78L671.802 91.2265L695.432 38.1367H720.81Z" fill="black"/>
<path d="M910.059 36.0561L851.284 3.37671C834.036 -6.21631 812.471 5.77081 812.471 24.97V28.3231C812.471 31.3515 814.149 34.1547 816.871 35.6616L827.964 41.831C831.231 43.6482 835.293 41.3805 835.293 37.76V29.421C835.293 25.2519 839.969 22.6457 843.713 24.7309L894.621 53.0436C898.358 55.1281 898.358 60.3399 894.621 62.4107L843.713 90.7234C839.969 92.8079 835.293 90.2024 835.293 86.0325V81.596C835.293 62.3968 813.728 50.3952 796.459 60.0021L737.691 92.6815C720.436 102.274 720.436 126.276 737.691 135.869L796.459 168.55C813.714 178.14 835.293 166.154 835.293 146.954V143.602C835.293 140.573 833.614 137.785 830.893 136.263L819.793 130.079C816.532 128.262 812.471 130.531 812.471 134.15V142.489C812.471 146.658 807.788 149.265 804.051 147.179L753.143 118.867C749.399 116.782 749.399 111.57 753.143 109.486L804.051 81.1732C807.788 79.0886 812.471 81.6941 812.471 85.8633V90.3005C812.471 109.5 834.036 121.501 851.284 111.894L910.059 79.2151C927.314 69.6511 927.314 45.6484 910.059 36.0561V36.0561Z" fill="black"/>
</svg>
