<?xml version="1.0" encoding="utf-8"?>
<!-- Generator: Adobe Illustrator 26.0.0, SVG Export Plug-In . SVG Version: 6.00 Build 0)  -->
<svg version="1.1" id="Layer_1" xmlns="http://www.w3.org/2000/svg" xmlns:xlink="http://www.w3.org/1999/xlink" x="0px" y="0px"
	 viewBox="0 0 365.4 102.6" style="enable-background:new 0 0 365.4 102.6;" xml:space="preserve">
<style type="text/css">
	.st0{fill:#504E52;}
	.st1{fill:#FE9900;}
</style>
<g>
	<g>
		<path class="st0" d="M88.6,43.5c-0.3,0-0.6,0-0.9,0c-11.7,0-23.4,0-35.1,0c-1.1,0-1.4-0.3-1.4-1.4c-0.3-10.7-0.6-21.4-0.9-32
			c0-0.3,0-0.6,0-0.9c0.5,0.1,0.7,0.6,0.9,0.9c4.4,5.9,8.7,11.7,13.1,17.6c0.6,0.8,1.3,1.4,2.1,1.9c7.1,4.3,14.2,8.7,21.3,13
			c0.3,0.2,0.7,0.4,1,0.6C88.6,43.4,88.6,43.4,88.6,43.5z"/>
		<path class="st1" d="M64.7,90.1c-0.5,0-0.8-0.3-1.2-0.5c-6.1-3.1-12.3-6.1-18.4-9.2c-0.9-0.5-1.9-0.6-2.9-0.7
			c-7.3-0.1-14.5-0.3-21.8-0.4c0-0.5,0.4-0.5,0.6-0.7c8.8-5.7,17.6-11.3,26.4-17c0.8-0.5,1-0.4,1.5,0.4c5.1,9,10.3,18,15.4,27
			C64.5,89.3,64.9,89.6,64.7,90.1z"/>
		<path class="st1" d="M8.8,31.6c7-1.8,13.7-3.5,20.4-5.2c1.1-0.3,1.9-0.8,2.6-1.6c4.7-5.1,9.4-10.1,14.2-15.1
			c0.2-0.2,0.4-0.5,0.9-0.5c-0.4,2-0.8,4.1-1.3,6.1c-1.9,9-3.8,18-5.7,27c-0.2,1-0.5,1.1-1.4,0.7c-9.6-3.7-19.2-7.3-28.8-11
			C9.5,32,9.3,31.9,8.8,31.6z"/>
		<path class="st0" d="M9.1,35c0.5-0.2,0.8,0.2,1,0.4c9.3,6.2,18.7,12.4,28,18.6c0.5,0.3,1,0.5,0.3,1.3c-6.9,7.5-13.7,15-20.5,22.5
			c-0.1,0.1-0.1,0.1-0.2,0.1c-0.3-0.1-0.2-0.3-0.2-0.5c0.6-7.2,1.1-14.4,1.7-21.6c0.1-0.8,0-1.5-0.4-2.2c-3.1-5.8-6.2-11.7-9.3-17.6
			C9.4,35.7,9.2,35.3,9.1,35z"/>
		<path class="st1" d="M68.4,86.7c-1-2.9-1.9-5.4-2.7-8c-2.9-8.5-5.8-17-8.7-25.5c-0.3-0.8-0.3-1.1,0.7-1.3
			c9.1-1.5,18.1-3.1,27.2-4.7c0.4-0.1,0.9-0.2,1.5,0c-1.5,1.6-2.9,3.1-4.4,4.7c-3.2,3.4-6.4,6.8-9.6,10.1c-0.5,0.5-0.7,1-0.8,1.7
			c-0.9,7.4-1.9,14.7-2.9,22.1C68.6,86,68.5,86.2,68.4,86.7z"/>
	</g>
	<g>
		<g>
			<path class="st0" d="M112.5,32.2c4.5,0,7.2,2.1,8.4,4.3l0.7-3.8h5.5l-4.7,26.5h-5.5l0.7-3.9c-2.1,2.3-5.6,4.4-10,4.4
				c-6.9,0-11.4-5.6-10-13.8C99.1,37.6,105.6,32.2,112.5,32.2z M112.9,37c-4.1,0-8.6,3.1-9.6,8.8c-1,5.7,2.4,9,6.4,9
				c4.1,0,8.6-3.2,9.6-8.9C120.3,40.2,117,37,112.9,37z"/>
			<path class="st0" d="M145.1,32.2c4.5,0,7.2,2.1,8.4,4.3l0.7-3.8h5.5L155,59.1h-5.5l0.7-3.9c-2.1,2.3-5.6,4.4-10,4.4
				c-6.9,0-11.4-5.6-10-13.8C131.6,37.6,138.1,32.2,145.1,32.2z M145.4,37c-4.1,0-8.6,3.1-9.6,8.8c-1,5.7,2.4,9,6.4,9
				c4.1,0,8.6-3.2,9.6-8.9C152.8,40.2,149.5,37,145.4,37z"/>
			<path class="st0" d="M202.3,44.3c0.8-4.8-1.3-7.3-5.3-7.3c-4,0-7.2,2.5-8,7.3l-2.6,14.8H181l2.6-14.8c0.8-4.8-1.3-7.3-5.3-7.3
				c-4,0-7.2,2.5-8,7.3v-0.1l-2.6,14.9h-5.5l4.7-26.5h5.5l-0.5,3.1c2.1-2.2,5.3-3.5,8.4-3.5c4.2,0,7.4,1.8,8.6,5.2
				c2.2-3.2,6.2-5.2,10.1-5.2c6.2,0,10.2,3.9,8.9,11.3l-2.8,15.6h-5.4L202.3,44.3z"/>
			<path class="st0" d="M227.5,32.2c4.5,0,7.2,2.1,8.4,4.3l0.7-3.8h5.5l-4.7,26.5h-5.5l0.7-3.9c-2.1,2.3-5.6,4.4-10,4.4
				c-6.9,0-11.4-5.6-10-13.8C214,37.6,220.5,32.2,227.5,32.2z M227.8,37c-4.1,0-8.6,3.1-9.6,8.8c-1,5.7,2.4,9,6.4,9
				c4.1,0,8.6-3.2,9.6-8.9C235.3,40.2,231.9,37,227.8,37z"/>
			<path class="st0" d="M244.6,59.1l4.7-26.5h5.5l-0.8,4.7c2.1-3.1,5-5.1,8.8-5.1l-1,5.7h-1.4c-4,0-6.8,1.7-7.8,7.1l-2.5,14.1H244.6
				z"/>
			<path class="st1" d="M277,45.6h-6l-2.4,13.5H263l5.9-33.4h11.5c7.9,0,11,4.5,10,9.9C289.7,40.5,285.7,45.6,277,45.6z M277.7,41.3
				c4.3,0,6.6-2.3,7.2-5.6c0.6-3.5-0.9-5.7-5.2-5.7h-6l-2,11.3H277.7z"/>
			<path class="st1" d="M307,32.2c4.5,0,7.2,2.1,8.4,4.3l0.7-3.8h5.5l-4.7,26.5h-5.5l0.7-3.9c-2.1,2.3-5.6,4.4-10,4.4
				c-6.9,0-11.4-5.6-10-13.8C293.6,37.6,300.1,32.2,307,32.2z M307.3,37c-4.1,0-8.6,3.1-9.6,8.8c-1,5.7,2.4,9,6.4,9
				c4.1,0,8.6-3.2,9.6-8.9C314.8,40.2,311.5,37,307.3,37z"/>
			<path class="st1" d="M325.7,32.7h6.1l3.9,20.2l11.3-20.2h5.7l-23,38.9h-5.7l7.6-12.9L325.7,32.7z"/>
		</g>
		<g>
			<path class="st0" d="M99.6,75.7c-2.2,0-3.6-1.6-3.2-4c0.4-2.4,2.3-4,4.6-4c2.2,0,3.5,1.5,3.1,3.8c0,0.2-0.1,0.5-0.2,0.8H98
				c-0.2,1.3,0.6,2.1,1.8,2.1c1,0,1.6-0.5,2-1.1h1.7C102.9,74.6,101.5,75.7,99.6,75.7z M98.2,71.1h4.3c0.2-1.3-0.6-2-1.8-2
				C99.6,69.1,98.6,69.8,98.2,71.1z"/>
			<path class="st0" d="M118.2,71.3c0.2-1.4-0.4-2.1-1.6-2.1c-1.2,0-2.1,0.7-2.3,2.1l-0.8,4.3H112l0.8-4.3c0.2-1.4-0.4-2.1-1.6-2.1
				c-1.2,0-2.1,0.7-2.3,2.1v0l-0.8,4.4h-1.6l1.4-7.7h1.6l-0.2,0.9c0.6-0.6,1.5-1,2.5-1c1.2,0,2.2,0.5,2.5,1.5
				c0.6-0.9,1.8-1.5,2.9-1.5c1.8,0,3,1.1,2.6,3.3l-0.8,4.6h-1.6L118.2,71.3z"/>
			<path class="st0" d="M128.3,67.7c2,0,3.3,1.6,2.9,4s-2.3,4-4.3,4c-1.3,0-2.1-0.6-2.5-1.2l-0.8,4.8h-1.6l2-11.4h1.6l-0.2,1.1
				C126,68.4,127,67.7,128.3,67.7z M127.7,69.1c-1.2,0-2.5,0.9-2.8,2.6c-0.3,1.7,0.7,2.6,1.9,2.6c1.2,0,2.5-1,2.8-2.6
				C129.9,70,128.9,69.1,127.7,69.1z"/>
			<path class="st0" d="M137,75.7c-2,0-3.3-1.3-3.3-3.2c0-2.6,2-4.7,4.7-4.7c2,0,3.3,1.3,3.3,3.3C141.7,73.7,139.7,75.7,137,75.7z
				 M137.2,74.4c1.7,0,2.9-1.6,2.9-3.3c0-1.3-0.9-2-1.9-2c-1.7,0-2.8,1.6-2.8,3.3C135.4,73.7,136.2,74.4,137.2,74.4z"/>
			<path class="st0" d="M144.5,67.9h1.6l0.5,6.2l2.7-6.2h1.7l0.5,6.2l2.7-6.2h1.6l-3.8,7.7h-1.7l-0.5-5.7l-2.6,5.7h-1.7L144.5,67.9z
				"/>
			<path class="st0" d="M160.5,75.7c-2.2,0-3.6-1.6-3.2-4c0.4-2.4,2.3-4,4.6-4c2.2,0,3.5,1.5,3.1,3.8c0,0.2-0.1,0.5-0.2,0.8h-5.9
				c-0.2,1.3,0.6,2.1,1.8,2.1c1,0,1.6-0.5,2-1.1h1.7C163.8,74.6,162.4,75.7,160.5,75.7z M159.1,71.1h4.3c0.2-1.3-0.6-2-1.8-2
				C160.5,69.1,159.5,69.8,159.1,71.1z"/>
			<path class="st0" d="M167.4,75.6l1.4-7.7h1.6l-0.2,1.4c0.6-0.9,1.5-1.5,2.6-1.5l-0.3,1.7H172c-1.2,0-2,0.5-2.3,2.1l-0.7,4.1
				H167.4z"/>
			<path class="st0" d="M175.6,67.9h1.6l-1.4,7.7h-1.6L175.6,67.9z M175.8,65.8c0.1-0.6,0.6-1,1.2-1c0.6,0,0.9,0.4,0.8,1
				s-0.6,1-1.2,1C176.1,66.8,175.7,66.4,175.8,65.8z"/>
			<path class="st0" d="M185.8,71.3c0.2-1.4-0.4-2.1-1.6-2.1c-1.2,0-2.1,0.7-2.3,2.1v0l-0.8,4.4h-1.6l1.4-7.7h1.6l-0.2,0.9
				c0.6-0.6,1.6-1,2.5-1c1.8,0,3,1.1,2.6,3.3l-0.8,4.6H185L185.8,71.3z"/>
			<path class="st0" d="M194.6,67.7c1.3,0,2.1,0.6,2.5,1.2l0.2-1.1h1.6l-1.4,7.8c-0.4,2.1-2,3.7-4.4,3.7c-2.1,0-3.4-1-3.3-2.7h1.6
				c0.1,0.8,0.9,1.3,2,1.3c1.2,0,2.3-0.8,2.6-2.3l0.2-1.3c-0.6,0.7-1.6,1.3-2.9,1.3c-2,0-3.4-1.6-2.9-4
				C190.7,69.3,192.6,67.7,194.6,67.7z M194.7,69.1c-1.2,0-2.5,0.9-2.8,2.6c-0.3,1.7,0.7,2.6,1.9,2.6c1.2,0,2.5-0.9,2.8-2.6
				C196.9,70.1,195.9,69.1,194.7,69.1z"/>
			<path class="st0" d="M207.4,67.9h1.8l1.1,5.9l3.3-5.9h1.7l-6.7,11.3h-1.7l2.2-3.8L207.4,67.9z"/>
			<path class="st0" d="M220,75.7c-2,0-3.3-1.3-3.3-3.2c0-2.6,2-4.7,4.7-4.7c2,0,3.3,1.3,3.3,3.3C224.7,73.7,222.6,75.7,220,75.7z
				 M220.2,74.4c1.7,0,2.9-1.6,2.9-3.3c0-1.3-0.9-2-1.9-2c-1.7,0-2.8,1.6-2.8,3.3C218.3,73.7,219.1,74.4,220.2,74.4z"/>
			<path class="st0" d="M234.1,75.6h-1.6l0.2-0.9c-0.6,0.6-1.5,1-2.5,1c-1.8,0-3-1.1-2.6-3.3l0.8-4.5h1.6l-0.8,4.3
				c-0.2,1.4,0.4,2.1,1.6,2.1c1.1,0,2-0.7,2.3-2l0.8-4.4h1.6L234.1,75.6z"/>
			<path class="st0" d="M237.7,75.6l1.4-7.7h1.6l-0.2,1.4c0.6-0.9,1.5-1.5,2.6-1.5l-0.3,1.7h-0.4c-1.2,0-2,0.5-2.3,2.1l-0.7,4.1
				H237.7z"/>
			<path class="st0" d="M256,67.7c2,0,3.3,1.6,2.9,4s-2.3,4-4.3,4c-1.3,0-2.1-0.6-2.5-1.2l-0.2,1.1h-1.6l1.8-10.4h1.6l-0.7,3.8
				C253.7,68.3,254.8,67.7,256,67.7z M255.4,69.1c-1.2,0-2.5,0.9-2.8,2.6c-0.3,1.7,0.7,2.6,1.9,2.6c1.2,0,2.5-1,2.8-2.6
				S256.6,69.1,255.4,69.1z"/>
			<path class="st0" d="M268.4,75.6h-1.6l0.2-0.9c-0.6,0.6-1.5,1-2.5,1c-1.8,0-3-1.1-2.6-3.3l0.8-4.5h1.6l-0.8,4.3
				c-0.2,1.4,0.4,2.1,1.6,2.1c1.1,0,2-0.7,2.3-2l0.8-4.4h1.6L268.4,75.6z"/>
			<path class="st0" d="M274.9,75.7c-1.7,0-3.1-1-2.8-2.5h1.6c-0.1,0.7,0.4,1.2,1.4,1.2c0.8,0,1.5-0.3,1.5-0.9c0-1.4-3.8-1-3.8-3.5
				c0-1.4,1.2-2.3,3.1-2.3c1.8,0,3,1,2.8,2.5H277c0.1-0.7-0.4-1.2-1.4-1.2c-0.8,0-1.3,0.4-1.3,0.9c0,1.5,3.8,1.1,3.8,3.5
				C278.1,74.9,276.7,75.7,274.9,75.7z"/>
			<path class="st0" d="M282.4,67.9h1.6l-1.4,7.7H281L282.4,67.9z M282.5,65.8c0.1-0.6,0.6-1,1.2-1c0.6,0,0.9,0.4,0.8,1
				c-0.1,0.6-0.6,1-1.2,1C282.8,66.8,282.4,66.4,282.5,65.8z"/>
			<path class="st0" d="M292.5,71.3c0.2-1.4-0.4-2.1-1.6-2.1c-1.2,0-2.1,0.7-2.3,2.1v0l-0.8,4.4h-1.6l1.4-7.7h1.6l-0.2,0.9
				c0.6-0.6,1.6-1,2.5-1c1.8,0,3,1.1,2.6,3.3l-0.8,4.6h-1.6L292.5,71.3z"/>
			<path class="st0" d="M300.2,75.7c-2.2,0-3.6-1.6-3.2-4c0.4-2.4,2.3-4,4.6-4c2.2,0,3.5,1.5,3.1,3.8c0,0.2-0.1,0.5-0.2,0.8h-5.9
				c-0.2,1.3,0.6,2.1,1.8,2.1c1,0,1.6-0.5,2-1.1h1.7C303.5,74.6,302.1,75.7,300.2,75.7z M298.8,71.1h4.3c0.2-1.3-0.6-2-1.8-2
				C300.2,69.1,299.2,69.8,298.8,71.1z"/>
			<path class="st0" d="M309.9,75.7c-1.7,0-3.1-1-2.8-2.5h1.6c-0.1,0.7,0.4,1.2,1.4,1.2c0.8,0,1.5-0.3,1.5-0.9c0-1.4-3.8-1-3.8-3.5
				c0-1.4,1.2-2.3,3.1-2.3c1.8,0,3,1,2.8,2.5H312c0.1-0.7-0.4-1.2-1.4-1.2c-0.8,0-1.3,0.4-1.3,0.9c0,1.5,3.8,1.1,3.8,3.5
				C313.1,74.9,311.7,75.7,309.9,75.7z"/>
			<path class="st0" d="M318.9,75.7c-1.7,0-3.1-1-2.8-2.5h1.6c-0.1,0.7,0.4,1.2,1.4,1.2c0.8,0,1.5-0.3,1.5-0.9c0-1.4-3.8-1-3.8-3.5
				c0-1.4,1.2-2.3,3.1-2.3c1.8,0,3,1,2.8,2.5h-1.5c0.1-0.7-0.4-1.2-1.4-1.2c-0.8,0-1.3,0.4-1.3,0.9c0,1.5,3.8,1.1,3.8,3.5
				C322.1,74.9,320.8,75.7,318.9,75.7z"/>
		</g>
		<g>
			<path class="st0" d="M339.7,19.8h4.8v0.9h-1.8v6h-1.1v-6h-1.9V19.8z"/>
			<path class="st0" d="M346.3,19.8h1.2l2.4,5.4l2.4-5.4h1.2v6.9h-1.1V22l-2.1,4.8h-0.8l-2.1-4.8v4.8h-1.1V19.8z"/>
		</g>
	</g>
</g>
</svg>
