<svg width="919" height="559" viewBox="0 0 919 559" fill="none" xmlns="http://www.w3.org/2000/svg">
<path fill-rule="evenodd" clip-rule="evenodd" d="M220.593 38.643C198.474 38.643 177.602 46.0288 157.961 60.7692V194.929C177.898 210.355 198.474 218.052 219.674 218.052C262.633 218.052 284.128 188.213 284.128 128.581C284.128 68.5913 262.975 38.6274 220.577 38.6274L220.593 38.643ZM154.705 32.4102C165.824 22.2458 178.634 14.1038 192.555 8.35187C205.598 2.9651 219.567 0.180868 233.677 0.155822C248.63 0.155822 262.181 3.02287 274.331 8.80374C286.48 14.569 296.76 22.9053 305.156 33.8438C313.598 44.7199 320.031 57.9333 324.564 73.484C329.081 89.0658 331.355 106.595 331.355 126.166C331.355 146.064 328.91 164.03 324.081 180.064C319.252 196.098 312.508 209.716 303.754 220.919C295.288 231.955 284.422 240.918 271.979 247.128C259.533 253.392 245.655 256.524 230.421 256.524C202.353 256.524 178.194 247.081 157.961 228.134V340.697C157.961 347.117 154.877 350.342 148.646 350.342H121.061C114.83 350.342 111.699 347.117 111.699 340.697V16.9998C111.699 10.5956 114.83 7.37021 121.045 7.37021H141.606C147.867 7.37021 151.419 10.5956 152.384 16.9998L154.69 32.4102H154.705ZM465.03 205.213C475.947 205.097 486.768 203.149 497.039 199.448C508.47 195.368 519.251 189.658 529.049 182.495V136.949C521.008 135.108 512.877 133.694 504.687 132.711C496.445 131.698 488.148 131.188 479.843 131.184C444.906 131.184 427.445 144.101 427.445 169.982C427.445 181.295 430.685 189.974 437.211 196.082C443.691 202.19 452.974 205.229 465.03 205.229V205.213ZM410.778 45.499L407.274 46.6209C406.009 47.0507 404.684 47.2768 403.348 47.2909C399.33 47.2909 397.289 44.6264 397.289 39.2662V27.2215C397.289 23.0611 397.943 20.1473 399.158 18.5268C400.405 16.8751 402.866 15.3325 406.588 13.8367C416.479 9.67632 428.707 6.31065 443.224 3.78639C457.628 1.2902 472.218 0.0235126 486.837 0C516.183 0 537.818 5.81202 551.774 17.4049C565.684 28.9978 572.646 46.9949 572.646 71.3804V223.958C572.646 229.91 569.484 232.902 563.347 232.902H543.457C537.538 232.902 534.158 230.066 533.207 224.425L530.871 209.669C519.875 218.825 507.423 226.072 494.033 231.11C481.222 236.025 467.629 238.585 453.909 238.667C431.65 238.667 414.034 232.653 401.028 220.592C388.021 208.547 381.557 192.42 381.557 172.195C381.557 150.505 389.579 133.178 405.654 120.245C421.76 107.281 443.41 100.846 470.607 100.846C487.943 100.846 507.366 103.339 529.064 108.403V79C529.064 62.9195 525.357 51.6227 517.927 45.0939C510.497 38.5339 497.491 35.2461 478.955 35.2461C457.304 35.2461 434.594 38.6586 410.794 45.5146L410.778 45.499ZM708.315 295.369C700.262 317.075 690.917 332.704 680.325 342.131C669.733 351.604 655.932 356.357 638.908 356.357C630.285 356.464 621.69 355.352 613.378 353.053C610.092 352.087 607.708 350.592 606.213 348.566C604.702 346.447 603.955 343.268 603.955 338.827V326.58C603.955 320.55 606.213 317.605 610.715 317.605C612.117 317.605 614.422 317.916 617.381 318.477C620.388 319.147 624.391 319.49 629.437 319.49C640.824 319.49 649.671 316.592 655.917 310.951C662.179 305.311 667.817 294.871 672.895 279.772L681.415 255.636L595.014 30.6027C592.88 25.227 591.883 21.4406 591.883 19.1968C591.883 15.4572 593.97 13.5562 598.098 13.5562H624.998C629.764 13.5562 633.004 14.3353 634.889 15.9402C636.633 17.4361 638.44 20.9576 640.232 26.3333L702.926 209.794L763.362 26.3333C765.153 20.9576 766.991 17.4361 768.782 15.9402C770.574 14.3509 773.782 13.5562 778.626 13.5562H803.704C807.863 13.5562 809.95 15.4572 809.95 19.1968C809.95 21.4406 808.907 25.227 806.773 30.6027L708.3 295.369H708.315Z" fill="#333E48"/>
<path fill-rule="evenodd" clip-rule="evenodd" d="M833.673 446.345C732.676 519.892 586.322 558.924 460.233 558.924C283.536 558.924 124.456 494.524 4.06728 387.243C-5.35634 378.86 3.05483 367.33 14.441 373.874C144.3 448.449 304.891 493.293 470.856 493.293C582.708 493.293 705.807 470.435 818.984 423.05C836.071 415.945 850.401 434.145 833.673 446.345Z" fill="#F8981C"/>
<path fill-rule="evenodd" clip-rule="evenodd" d="M872.8 417.846C860.028 401.189 788.19 409.961 755.932 413.904C746.197 415.072 744.655 406.393 753.471 400.114C810.76 359.211 904.576 371.069 915.51 384.719C926.492 398.509 912.598 494.103 858.969 539.727C850.682 546.708 842.847 542.999 846.508 533.728C858.579 503.063 885.635 434.503 872.8 417.846" fill="#F8981C"/>
</svg>
