<svg height="60" viewBox="0 0 100 60" width="100" xmlns="http://www.w3.org/2000/svg" xmlns:xlink="http://www.w3.org/1999/xlink"><mask id="a" fill="#fff"><path d="m0 .535h54.248v21.467h-54.248z" fill="#fff" fill-rule="evenodd"/></mask><g fill="none" fill-rule="evenodd"><rect fill="#fff" fill-rule="nonzero" height="60" rx="4" width="100"/><g transform="translate(19 6)"><path d="m54.4368573 0h-47.7168573v48h47.7168573v-15.8423317c.1900911-.2731437.2831427-.6275642.2831427-1.0565996 0-.4903262-.0930516-.7941152-.2831427-1.0486051z" fill="#0072ad"/><path d="m11.0772813 20.5400238-.9290866-2.1914921-.92639352 2.1914921zm20.4816457-.869557c-.1844708.102991-.4052972.1121168-.6705581.1121168h-1.6521583v-1.2228552h1.6723558c.2396774 0 .4874338.0078221.6476676.0951689.1763918.0834358.284112.2542183.284112.486274 0 .2424851-.1050272.4341266-.281419.5292955zm11.7738157.869557-.9412051-2.1914921-.9317795 2.1914921zm-21.9439472 2.3727041h-1.3922833l-.008079-4.3047632-1.9672398 4.3047632h-1.1916545l-1.9793583-4.313889v4.313889h-2.7630226l-.5184034-1.2267663h-2.83034773l-.52513587 1.2267663h-1.47576647l2.42774356-5.5028484h2.02109991l2.3092513 5.212127v-5.212127h2.2217287l1.77469 3.7363571 1.6346537-3.7363571h2.2621238zm5.5489358 0h-4.5377126v-5.5028484h4.5377126v1.1498489h-3.1777453v.9881922h3.0996482v1.1302936l-3.0996482-.003911v1.1003089h3.1777453zm6.3985787-4.0166491c0 .8721643-.6045795 1.3297572-.9546701 1.4653403.297577.1108131.5493729.2998472.6678651.4641114.1925498.2698625.2289054.5201697.2289054 1.00514v1.0820574h-1.3707393l-.0040395-.692256c0-.3272246.0336625-.8056764-.2181334-1.0690205-.2006288-.1955526-.4982058-.2359668-.9896791-.2359668h-1.4596085v1.9972433h-1.3559277v-5.5028484h3.1265782c.6880626 0 1.203773.0221626 1.6427327.2659514.4322273.2450925.6867162.6036055.6867162 1.2202479zm.7890503 4.0166491h1.3855508v-5.5028484h-1.3855508zm17.4654807 0h-1.9254982l-2.5745123-4.1261586.002693 4.1261586h-2.7670622l-.5278288-1.2267663h-2.8276548l-.5076313 1.2267663h-1.5915657c-.6624791 0-1.498657-.1421015-1.9685863-.6062129-.4820478-.4706298-.7271112-1.1003089-.7271112-2.1028416 0-.8174096.1508083-1.5618129.7311507-2.1497742.4429993-.4393414 1.1283689-.6440197 2.0655345-.6440197h1.3114932v1.1798336h-1.2832167c-.4968593 0-.7809713.0717026-1.0516182.3272246-.2262124.2320557-.3864462.6687897-.3864462 1.2476252 0 .5905687.1184922 1.0116585.3756742 1.2919504.2046683.2151078.5870749.2828994.943898.2828994h.6099656l1.9147262-4.3295332h2.0359114l2.2984793 5.2056085v-5.2056085h2.072267l2.3873485 3.8328297v-3.8328297h1.3895903zm-44.870841 1.083361h2.32271638l.52244287-1.2254625h1.17145695l.5210964 1.2254625h4.5686821v-.9360448l.4079902.9399559h2.3684975l.4066436-.9503853v.9464742h11.3496675l-.005386-2.006369h.2208264c.1548477.0039111.2006288.0208589.2006288.2646478v1.7417212h5.8667103v-.4680224c.4739688.2463962 1.2131985.4680224 2.1772941.4680224h2.4721782l.5291754-1.2254625h1.1728034l.5184034 1.2254625h4.7571924v-1.161582l.7203787 1.161582h3.8106014v-7.6760889h-3.7742458v.9086675l-.5251359-.9086675h-3.873887v.9086675l-.4847408-.9086675h-5.2298147c-.876573 0-1.6494653.1173315-2.2702028.4484672v-.4484672h-3.605933v.4484672c-.3985647-.3415651-.9385121-.4484672-1.5350126-.4484672h-13.1889895l-.8886915 1.9842064-.903503-1.9842064h-4.1539595v.9086675l-.4591572-.9086675h-3.54130095l-1.64542575 3.646403z" fill="#fffffe"/><g transform="translate(0 25.92)"><path d="m54.2475395 2.79247059h-2.4583961c-.244238 0-.408398.01039059-.5418614.10000941-.1414713.08832-.1975259.22209882-.1975259.39484235 0 .20521412.1187824.34808471.2962888.40912941.1388019.04805648.2922849.06104471.5191727.06364236l.7273756.0168847c.7353834.02078118 1.2278634.14287059 1.5294907.43900236.0493815.04286117.0867512.09351529.1254556.14027294zm0 3.6159247c-.3309893.4688753-.9676097.70266353-1.8297834.70266353h-2.601202v-1.17803294h2.5905249c.2562498 0 .4350908-.03247059.5445308-.13637647.0920897-.08182588.1614907-.20261647.1614907-.35587765 0-.15975529-.069401-.28833882-.16416-.36237176-.1014322-.08572235-.2415688-.12208941-.4737951-.12468706-1.2638986-.04026353-2.8414361.03896471-2.8414361-1.69626353 0-.79358117.5191727-1.63132235 1.9285463-1.63132235h2.6852839v-1.09101177h-2.4944312c-.7540683 0-1.298599.17534118-1.6869776.44939295v-.44939295h-3.6862595c-.5859044 0-1.2772449.14416942-1.6082341.44939295l.0026692-.44939295h-6.5837502v.44939295c-.5245112-.36496942-1.4053698-.44939295-1.8177717-.44939295h-4.337561v.44939295c-.4164058-.39094589-1.3346341-.44939295-1.8978497-.44939295h-4.8607376l-1.1117502 1.17413647-1.03968-1.17413647h-7.2604098v7.65396706h7.1242771l1.1451161-1.18972235 1.0810536 1.18972235 4.3856078.00259765v-1.80146824h.4350908c.5792312.00779295 1.269237-.01298823 1.8751609-.26625882v2.06512941h3.6208625v-1.99629176h.1735024c.2242186 0 .2455727.01168941.2455727.22469647v1.77159529h11.0000546c.6966791 0 1.4267239-.17534117 1.8297834-.48965647v.48965647h3.4900683c.7273757 0 1.4347317-.09871059 1.9765932-.35328zm-5.3745717-2.19241411c.2655922.26625882.4030595.60135529.4030595 1.16244706 0 1.18192941-.7580722 1.73263058-2.1140605 1.73263058h-2.6238907v-1.17803294h2.6145483c.2575844 0 .4350907-.03247059.5498693-.13637647.0907551-.08182588.1588214-.20261647.1588214-.35587765 0-.15975529-.0707356-.28833882-.1668292-.36237176-.1014322-.08572235-.2429035-.12208941-.4777991-.12468706-1.25856-.04026353-2.8360975.03896471-2.8360975-1.69626353 0-.79358117.5138341-1.63132235 1.9245424-1.63132235h2.6999649v1.16634353h-2.4677386c-.2482419 0-.4070634.01039059-.543196.10000941-.1454752.08832-.2001952.22209882-.2001952.39484235 0 .20521412.1254556.34808471.2949542.40912941.1401366.04805648.2909502.06104471.5205073.06364236l.7273756.0168847c.7327141.02078118 1.2305327.14287059 1.5361639.43900236zm-12.1505093-.33509647c-.1775063.10130823-.4017248.11169882-.6619785.11169882h-1.6375961v-1.22998588h1.6589502c.2388996 0 .481803.00519529.6406244.09611294.1748371.09221647.2789386.25846588.2789386.49485176 0 .23378824-.1041015.42341647-.2789386.52732236zm.8127922.68058353c.3002927.10650352.5458654.29872941.6606439.46108235.1895181.26885647.2215493.51823059.2242186 1.00269176v1.08581647h-1.3506498v-.68837647c0-.32990117.0306966-.81696-.21888-1.07023059-.1961912-.20001882-.4951493-.24547764-.98496-.24547764h-1.4427395v2.0040847h-1.3493151v-5.48493176h3.104359c.686002 0 1.1811512.02727529 1.6215805.26106353.4244137.24677647.6900058.59356235.6900058 1.21829647 0 .87280941-.5992507 1.31830588-.9542634 1.45598118zm1.7029932-2.93534118h4.4963824v1.13647059h-3.1537404v.99489882h3.074997v1.11828706h-3.074997v1.09101176l3.1537404.0051953v1.13906823h-4.4963824zm-9.0821854 2.52880941h-1.7443668v-1.39233882h1.7577132c.4871414 0 .8234692.18962823.8234692.67279059 0 .47407058-.3203121.71954823-.8368156.71954823zm-3.0856741 2.45867294-2.064679-2.23527529 2.064679-2.16124236zm-5.337202-.64681412h-3.3098926v-1.09101176h2.9562146v-1.11828706h-2.9562146v-.99489882h3.3739551l1.4721014 1.59495529zm10.7037659-2.53140705c0 1.5183247-1.1651356 1.83653647-2.3462868 1.83653647h-1.6789698v1.83913411h-2.6132137l-1.6589502-1.81445647-1.7230127 1.81445647h-5.3318634v-5.48493176h5.4146107l1.656281 1.79627294 1.7123356-1.79627294h4.3015259c1.0690419 0 2.2675434.28963765 2.2675434 1.80926118z" fill="#fffffe" mask="url(#a)"/><path d="m4.21877854 19.8732988c0 1.0403577-.82213464 1.884593-1.93655415 1.884593s-1.93655415-.8442353-1.93655415-1.884593c0-1.0403576.81946537-1.8845929 1.93655415-1.8845929 1.11975805 0 1.93655415.8442353 1.93655415 1.8845929zm.34433561 0c0-1.2260894-1.02099513-2.2067012-2.28088976-2.2067012s-2.28222439.9806118-2.28222439 2.2067012c0 1.2247906 1.02232976 2.2067012 2.28222439 2.2067012s2.28088976-.9819106 2.28088976-2.2067012zm-1.74837074-.4519906c0-.2610635-.18284487-.2844423-.31764292-.2844423h-.63528586v.5792753h.58857366c.19485659 0 .36435512-.0454588.36435512-.294833zm.45911415 1.4637742h-.42040976c-.05338536-.162353-.06139317-.4688753-.06139317-.5429083 0-.1519623-.02669268-.3039247-.31363902-.3039247h-.61660098l.00133464.846833h-.37236293v-2.0703248h.98762927c.34033171 0 .71669854.1194918.71669854.5792753 0 .2584659-.11344391.3857506-.22955708.4662777.09609366.0532518.17750634.1415718.18951805.37536l.01601561.3571765c.00667317.1052047.01468098.124687.10276683.1727435z" fill="#0072ad" mask="url(#a)"/></g></g></g></svg>