<svg width="921" height="379" viewBox="0 0 921 379" fill="none" xmlns="http://www.w3.org/2000/svg">
<path d="M168.359 48.7444C178.847 35.6231 185.964 18.0041 184.087 0C168.734 0.764095 150 10.1314 139.153 23.2638C129.414 34.5092 120.794 52.8654 123.041 70.1151C140.275 71.6104 157.494 61.4985 168.359 48.7444ZM183.891 73.4833C158.863 71.9917 137.583 87.6915 125.63 87.6915C113.672 87.6915 95.3692 74.2346 75.5735 74.5972C49.808 74.9756 25.9006 89.5479 12.825 112.724C-14.0676 159.09 5.72814 227.865 31.88 265.626C44.5804 284.309 59.8856 304.879 80.0536 304.139C99.1086 303.391 106.577 291.798 129.739 291.798C152.884 291.798 159.612 304.139 179.783 303.765C200.7 303.392 213.777 285.074 226.478 266.375C241.047 245.078 247.011 224.515 247.386 223.386C247.011 223.012 207.051 207.678 206.681 161.698C206.303 123.199 238.053 104.887 239.547 103.751C221.618 77.2252 193.603 74.2346 183.891 73.4833" fill="black"/>
<path d="M433.435 21.3867C487.833 21.3867 525.716 58.8947 525.716 113.504C525.716 168.308 487.058 206.012 432.075 206.012H371.845V301.817H328.326V21.3867H433.435ZM371.845 169.473H421.777C459.664 169.473 481.226 149.07 481.226 113.699C481.226 78.3313 459.664 58.1186 421.971 58.1186H371.845V169.473ZM536.513 243.715C536.513 207.759 563.907 187.159 614.419 184.052L668.622 180.745V165.2C668.622 142.461 653.663 130.024 627.048 130.024C605.091 130.024 589.161 141.295 585.859 158.591H546.612C547.781 122.249 581.973 95.8217 628.213 95.8217C677.95 95.8217 710.395 121.863 710.395 162.283V301.817H670.177V268.2H669.207C657.744 290.159 632.486 303.954 605.091 303.954C564.682 303.954 536.513 279.858 536.513 243.715V243.715ZM668.622 225.639V209.895L620.246 213.006C593.047 214.754 578.867 224.86 578.867 242.545C578.867 259.646 593.632 270.727 616.75 270.727C646.279 270.727 668.622 251.871 668.622 225.639V225.639ZM747.367 376.833V343.216C750.088 343.599 756.692 343.988 760.187 343.988C779.423 343.988 790.302 335.831 796.91 314.84L800.795 302.402L727.161 98.348H772.622L823.913 263.92H824.884L876.175 98.348H920.474L844.12 312.703C826.634 361.869 806.622 378.003 764.268 378.003C760.967 378.003 750.279 377.613 747.367 376.833V376.833Z" fill="black"/>
</svg>
