<svg width="923" height="424" viewBox="0 0 923 424" fill="none" xmlns="http://www.w3.org/2000/svg">
<path d="M835 233.031L637 202L663.248 320L835 233.031Z" fill="#D12053"/>
<path d="M835 233L685.772 26L637 202.054L835 233Z" fill="#E2136E"/>
<path d="M632.545 200L476 0L681 24.4814L632.545 200Z" fill="#D12053"/>
<path d="M562 116L475 35H497.901L562 116Z" fill="#9E1638"/>
<path d="M878 132L840.99 232L781 149.347L878 132Z" fill="#D12053"/>
<path d="M687 314L830.96 256.331L837 238L687 314Z" fill="#E2136E"/>
<path d="M571 424L633.365 207L665 348.188L571 424Z" fill="#9E1638"/>
<path d="M883.253 133L868 174L923 173.107L883.253 133Z" fill="#E2136E"/>
<path d="M0 150C2.64755 150.224 5.3324 150.71 8.1664 150.71C11.0004 150.71 13.3123 150.224 16.3328 150V237.735C24.9467 223.044 35.7979 213.362 51.7578 213.362C80.6199 213.362 93 241.996 93 268.313C93 299.825 76.2197 329.992 46.7983 329.992C40.9077 330.122 35.0941 328.633 29.9869 325.688C24.8797 322.743 20.6737 318.453 17.8244 313.283C12.9022 317.619 8.53929 322.815 3.87811 327.525H0.149158L0 150ZM15.9599 279.041C15.9599 304.61 26.7739 322.441 44.5609 322.441C67.6431 322.441 75.0637 291.34 75.0637 269.285C75.0637 243.678 66.6363 223.53 46.6492 223.305C23.3059 223.118 15.9599 250.818 15.9599 279.079" fill="#E2136E"/>
<path d="M169.077 206.721L151.674 229.111C168.031 252.994 184.986 276.391 201.418 300.572L218 326.694V328C213.929 327.739 210.232 327.216 206.796 327.216C203.36 327.216 199.028 327.739 195.368 328C190.85 319.641 186.368 311.917 181.252 304.341L136.437 238.104C135.428 237.06 133.001 236.239 133.001 237.321V328C129.714 327.739 126.839 327.216 124 327.216C121.162 327.216 117.876 327.739 115 328V150.075C117.876 150.299 120.975 150.858 124 150.858C127.025 150.858 129.714 150.299 133.001 150.075V230.38C133.001 231.947 136.063 230.902 138.08 228.813C141.97 224.783 145.611 220.521 148.985 216.05L199.364 150C202.016 150.224 204.668 150.784 207.543 150.784C210.419 150.784 212.622 150.224 215.535 150L169.077 206.721Z" fill="#231F20"/>
<path d="M304.483 308.161C304.483 317.467 303.882 322.195 316 319.118V324.334C314.02 325.326 311.947 326.118 309.81 326.698C299.118 328.837 290.264 326.923 288.613 312.926L286.775 314.99C283.201 319.675 278.59 323.468 273.305 326.072C268.02 328.676 262.203 330.02 256.312 330C241.755 330 229 318.517 229 300.919C229 273.789 247.758 270.224 267.004 266.659C283.286 263.582 288.838 262.156 288.838 250.712C288.838 233.075 280.21 222.869 264.79 222.869C259.525 222.766 254.354 224.283 249.979 227.216C245.604 230.149 242.236 234.356 240.33 239.267H238.079V226.058C247.337 218.002 259.091 213.39 271.356 213C292.928 213 304.67 226.058 304.67 252.963L304.483 308.161ZM288.05 268.873L280.81 270.524C266.816 273.601 245.845 275.965 245.845 297.692C245.845 312.701 253.348 320.206 265.953 320.206C272.474 319.403 278.437 316.125 282.611 311.05C284.111 309.324 288.238 305.271 288.238 303.545L288.05 268.873Z" fill="#231F20"/>
<path d="M340.913 305.003C345.748 314.349 354.748 322.719 364.343 322.719C369.818 322.437 374.969 320.014 378.704 315.965C382.439 311.915 384.465 306.556 384.351 301.025C384.351 268.897 336.19 289.765 336.19 248.179C336.19 225.359 351.066 213.011 369.401 213.011C377.508 212.829 385.501 214.963 392.459 219.166C390.45 224.672 388.835 230.317 387.624 236.056H385.764C383.087 228.211 375.983 220.33 368.434 220.33C358.244 220.33 349.839 227.273 349.839 240.147C349.839 270.586 398 254.372 398 292.467C398 317.952 378.438 330 360.438 330C351.423 329.993 342.598 327.389 335 322.493C336.825 316.783 338.255 310.952 339.277 305.041L340.913 305.003Z" fill="#231F20"/>
<path d="M426 150C428.714 150.224 431.353 150.709 434.178 150.709C437.003 150.709 439.307 150.224 442.355 150V236.2C449.492 221.753 460.681 213.278 475.178 213.278C498.819 213.278 508 229.555 508 259.421V328C504.915 327.739 502.536 327.291 499.822 327.291C497.109 327.291 494.321 327.776 491.645 328V264.834C491.645 238.701 486.403 225.523 469.044 225.523C450.682 225.523 442.355 238.813 442.355 263.415V328C439.307 327.739 436.891 327.291 434.178 327.291C431.464 327.291 428.751 327.776 426 328V150Z" fill="#231F20"/>
</svg>
