<svg width="923" height="374" viewBox="0 0 923 374" fill="none" xmlns="http://www.w3.org/2000/svg">
<path d="M260.887 239.063C257.606 274.046 244.694 301.313 222.151 320.865C199.608 340.417 169.656 350.246 132.19 350.246C106.048 350.246 82.9759 344.01 63.0786 331.645C43.1813 319.28 27.835 301.63 16.9339 278.907C6.13853 256.079 0.529183 229.657 0 199.431V168.781C0 137.815 5.50351 110.654 16.4047 87.0854C27.4117 63.5172 43.0755 45.3391 63.6078 32.6567C84.1401 19.8686 107.848 13.5273 134.73 13.5273C170.926 13.5273 200.137 23.3562 222.151 42.9083C244.271 62.4604 257.077 90.256 260.676 126.084H203.841C201.09 102.516 194.21 85.5001 183.203 75.1428C172.196 64.6798 156.003 59.5011 134.624 59.5011C109.858 59.5011 90.8078 68.5902 77.4724 86.6627C64.137 104.735 57.3634 131.263 57.0459 166.351V195.414C57.0459 230.82 63.3961 257.875 76.0965 276.476C88.7969 295.077 107.424 304.378 131.872 304.378C154.31 304.378 171.138 299.305 182.356 289.264C193.681 279.224 200.772 262.526 203.735 239.063H260.887V239.063Z" fill="#333333"/>
<path d="M452.346 345.809C449.912 341.159 447.795 333.55 445.996 323.087C428.533 341.265 407.26 350.354 381.965 350.354C357.516 350.354 337.513 343.378 322.061 329.428C306.609 315.477 298.883 298.25 298.883 277.641C298.883 251.642 308.514 231.773 327.882 217.822C347.144 203.977 374.768 197.002 410.752 197.002H444.302V181.043C444.302 168.467 440.81 158.321 433.719 150.711C426.628 143.102 415.938 139.297 401.438 139.297C388.95 139.297 378.789 142.362 370.746 148.598C362.808 154.833 358.786 162.76 358.786 172.377H303.963C303.963 159.061 308.408 146.484 317.298 134.858C326.189 123.233 338.254 114.144 353.494 107.485C368.735 100.933 385.775 97.5508 404.508 97.5508C433.084 97.5508 455.838 104.737 472.772 119.005C489.706 133.379 498.491 153.459 498.914 179.458V289.267C498.914 311.144 501.983 328.688 508.122 341.687V345.492H452.346V345.809ZM392.125 306.388C402.92 306.388 413.081 303.746 422.606 298.567C432.131 293.283 439.328 286.308 444.091 277.43V231.456H414.668C394.347 231.456 379.107 234.944 368.947 242.025C358.681 249.106 353.6 259.04 353.6 271.934C353.6 282.397 357.093 290.852 364.078 296.982C371.063 303.323 380.377 306.388 392.125 306.388Z" fill="#333333"/>
<path d="M775.993 128.727C793.879 108.012 816.528 97.6547 843.834 97.6547C895.8 97.6547 922.259 127.247 923 186.537V345.702H868.177V188.651C868.177 171.847 864.578 159.904 857.275 152.929C849.973 145.954 839.283 142.466 825.207 142.466C803.299 142.466 786.894 152.189 776.099 171.741V345.702H721.275V0H776.099V128.727H775.993Z" fill="#333333"/>
<path d="M644.441 276.155C644.441 267.278 642.007 260.197 637.032 255.018C632.058 249.734 623.697 244.978 611.949 240.539C600.095 236.1 589.935 231.661 581.468 227.328C572.895 222.995 565.593 217.922 559.454 212.215C553.316 206.508 548.553 199.849 545.166 192.134C541.779 184.419 540.086 175.33 540.086 164.761C540.086 146.477 545.907 131.47 557.655 119.844C569.297 108.219 584.855 101.349 604.223 99.4468V64.6758H630.259V99.8695C649.415 102.617 664.444 110.544 675.239 123.755C686.035 136.966 691.432 154.193 691.432 175.224H644.547C644.547 162.225 641.901 152.502 636.503 146.16C631.105 139.819 624.014 136.543 615.018 136.543C606.128 136.543 599.249 139.079 594.38 144.047C589.512 149.014 587.077 155.989 587.077 164.867C587.077 173.111 589.512 179.663 594.274 184.63C599.037 189.598 607.927 194.671 620.839 199.849C633.751 205.028 644.441 209.89 652.802 214.54C661.163 219.084 668.148 224.369 673.863 230.076C679.579 235.783 684.024 242.441 686.987 249.839C690.056 257.237 691.538 265.904 691.538 275.732C691.538 294.122 685.823 309.024 674.287 320.544C662.751 332.064 646.981 338.722 626.872 340.836V373.07H600.942V341.047C578.716 338.616 561.571 330.795 549.4 317.479C537.228 304.162 531.09 286.407 531.09 264.213H577.975C577.975 277.106 581.045 286.935 587.183 293.805C593.322 300.675 602.106 304.057 613.537 304.057C623.062 304.057 630.576 301.52 636.08 296.553C641.583 291.586 644.441 284.716 644.441 276.155Z" fill="#333333"/>
</svg>
