<svg width="923" height="181" viewBox="0 0 923 181" fill="none" xmlns="http://www.w3.org/2000/svg">
<g clip-path="url(#clip0_1661_8929)">
<path fill-rule="evenodd" clip-rule="evenodd" d="M305.681 42.2506L305.373 42.2506C303.834 42.2506 302.757 43.627 302.757 45.1563L302.757 127.892C302.757 129.727 304.296 130.798 305.681 130.798C307.527 130.798 308.604 129.268 308.604 127.892L308.604 45.4621C308.604 43.627 307.527 42.2506 305.681 42.2506ZM280.756 46.5327L226.443 46.5326C226.012 46.5305 225.585 46.6185 225.19 46.791C224.795 46.9635 224.441 47.2165 224.151 47.5338C223.861 47.851 223.641 48.2254 223.506 48.6325C223.371 49.0397 223.323 49.4705 223.366 49.8971L223.059 49.8971L223.059 128.351C223.059 130.186 224.443 131.562 226.29 131.562C227.982 131.562 229.521 130.186 229.828 128.351L229.828 92.8707L275.832 92.8707C277.678 92.8707 278.755 91.3414 278.755 89.965C278.755 88.1298 277.217 87.0593 275.832 87.0593L229.367 87.0593L229.367 52.6499L280.756 52.6499C282.602 52.6499 283.679 51.1206 283.679 49.7442C283.679 48.3678 282.602 46.5327 280.756 46.5327ZM381.225 69.1664C382.764 69.1664 384.148 70.2369 384.148 72.0721L383.995 72.0721L383.995 128.504L384.302 128.504C384.302 130.033 383.225 131.409 381.379 131.409C379.84 131.409 378.456 130.339 378.456 128.504L378.456 119.634C374.148 127.892 365.224 132.786 355.838 132.48C340.453 132.48 331.067 121.775 331.067 107.246L331.067 72.0721C331.067 70.5428 332.606 69.1664 333.991 69.1664C335.529 69.1664 336.914 70.2369 336.914 72.0721L336.914 106.176C336.914 119.022 344.145 127.127 356.762 127.127C368.609 127.433 378.302 118.257 378.302 106.482L378.302 72.0721C378.302 70.5428 379.379 69.1664 381.225 69.1664ZM435.845 74.9778C437.383 74.9778 438.768 73.9073 438.768 72.5309C438.768 71.0016 437.383 69.6252 435.845 69.6252L415.997 69.6252L415.997 52.6499C415.997 51.1206 414.459 49.7442 413.074 49.7442L412.766 49.7442C411.381 49.7442 410.304 51.2735 410.304 52.6499L410.304 69.6252L403.535 69.6252C401.996 69.6252 400.611 70.6957 400.611 72.0721C400.611 73.6014 402.15 74.9778 403.535 74.9778L410.304 74.9778L410.304 115.046C410.304 126.363 418.151 131.715 427.537 131.715C430.306 131.715 433.537 131.409 436.46 130.339C437.537 130.033 438.307 128.962 438.307 127.892C438.307 126.515 437.23 125.445 435.845 125.445C433.691 126.21 431.075 126.515 428.614 126.515C421.075 126.515 415.997 123.304 415.997 114.434L415.997 74.9778L435.845 74.9778ZM487.849 72.5309C487.849 73.9073 486.31 74.9778 484.926 74.9778L465.078 74.9778L465.078 114.434C465.078 123.304 470.155 126.515 477.694 126.515C480.31 126.515 482.772 126.21 484.926 125.445C486.31 125.445 487.388 126.515 487.388 127.892C487.388 128.962 486.618 130.033 485.541 130.339C482.772 131.409 479.541 131.715 476.617 131.715C467.232 131.715 459.385 126.363 459.385 115.046L459.385 74.9778L452.615 74.9778C451.077 74.9778 449.692 73.4485 449.692 72.0721C449.692 70.6957 451.231 69.6252 452.615 69.6252L459.385 69.6252L459.385 52.6499C459.385 51.1206 460.462 49.7442 461.847 49.7442L462.155 49.7442C463.693 49.7442 465.078 51.2735 465.078 52.6499L465.078 69.6252L484.926 69.6252C486.464 69.6252 487.849 71.1546 487.849 72.5309ZM528.16 67.943C511.236 67.943 498.619 82.1655 498.619 100.211L498.619 100.67C498.619 120.092 512.62 132.939 529.237 132.939C538.315 133.244 547.238 129.727 553.393 122.998C554.162 122.233 554.47 121.622 554.47 120.857C554.47 119.328 552.931 117.951 551.547 117.951C550.777 117.951 550.008 118.41 549.7 118.716C544.623 124.069 537.084 127.28 529.545 127.28C517.39 127.28 506.158 118.41 505.081 103.117L554.008 103.117C555.547 103.117 556.932 101.588 556.932 100.211C556.932 82.1655 545.854 67.943 528.16 67.943ZM605.089 68.8606C594.011 69.6252 584.318 77.1188 580.318 87.3652L580.318 72.378C580.318 70.8487 578.779 69.4723 577.395 69.4723C575.548 69.4723 574.471 70.5428 574.164 72.378L574.164 129.268C574.164 130.798 575.702 132.174 577.087 132.174C578.933 132.174 580.01 131.103 580.318 129.268L580.318 106.482C580.318 86.6005 591.704 76.9659 605.089 75.5896L605.397 75.5896C607.243 75.5896 608.32 73.7544 608.32 72.378C608.32 70.237 606.936 68.8606 605.089 68.8606ZM694.327 72.6838C695.404 68.5547 698.943 65.6491 703.251 65.6491C708.021 65.6491 711.559 69.3194 711.713 74.0603L711.713 74.3661C711.713 75.2806 711.376 76.4182 711.086 77.3978C711.037 77.5649 710.989 77.7275 710.944 77.8835L694.789 124.069C693.712 128.962 689.404 132.174 684.326 132.174L683.557 132.174C678.941 132.174 674.633 128.962 673.556 124.374L663.094 91.6473L652.632 124.374C651.247 128.962 647.246 132.174 642.631 132.174L641.861 132.174C636.938 131.868 632.938 128.657 631.861 124.069L615.706 78.1894C615.244 76.813 614.936 75.2837 614.936 73.9073C614.936 69.3194 618.629 65.3432 623.245 65.3432L623.552 65.3432C627.86 65.3432 631.399 68.4018 632.476 72.378L642.477 105.411L652.939 72.6838C654.016 68.0959 658.017 65.1902 662.632 65.1902L663.709 65.1902C668.325 65.1902 672.325 68.4018 673.402 72.6838L683.865 105.717L694.327 72.6838ZM749.409 65.6491C742.177 65.3432 735.254 66.7195 728.484 68.8606C725.56 69.9311 723.868 72.8368 724.176 75.8954C724.176 80.0245 727.715 83.2361 732.023 82.9302C732.638 82.9302 733.715 82.9302 734.484 82.6244C738.792 81.095 743.1 80.7892 747.408 80.7892C756.794 80.7892 761.41 84.7654 761.41 92.5649L761.41 93.6354C756.332 91.9532 750.947 91.1885 745.562 91.1885C730.022 91.1885 719.252 97.9175 719.252 112.14C719.252 124.986 729.715 132.021 741.562 132.021C749.101 132.48 756.332 129.268 761.41 123.916C761.717 128.504 765.718 131.715 770.333 131.715C775.257 131.715 779.257 127.892 779.257 122.845L779.257 93.7883C779.565 86.2947 777.103 78.8011 772.026 73.1427C766.641 68.5547 759.409 65.6491 749.409 65.6491ZM843.262 65.3432C839.262 65.3432 835.723 67.7901 834.646 71.7663L820.03 109.387L806.028 72.0721C804.951 68.2489 801.413 65.3432 797.105 65.3432C792.489 65.3432 788.489 68.8606 788.181 73.9073C788.181 75.2837 788.489 76.813 789.258 78.1894L809.413 124.069C810.952 128.657 814.798 131.868 819.876 132.174L820.953 132.174C825.568 131.868 829.877 128.962 831.723 124.374L851.109 78.4953C851.878 77.1189 852.186 75.5895 852.186 74.2132L852.186 73.9073C852.186 69.3194 848.34 65.3432 843.262 65.3432ZM893.728 132.174C875.726 133.244 860.341 119.328 859.571 101.588L859.264 101.588L859.264 98.988C859.264 80.4833 872.649 65.1903 891.728 65.1903C908.96 64.7315 922.961 78.1894 922.961 94.2471L922.961 95.6235C923.423 100.211 919.73 104.188 915.114 104.493L878.034 104.493C879.111 112.293 886.035 117.646 893.882 117.34C898.651 117.646 903.267 115.963 907.267 113.058C908.344 111.987 910.191 111.681 911.575 111.681C915.576 111.681 918.807 114.74 918.807 118.716L918.807 119.022C918.807 121.163 918.191 122.998 916.345 124.375C909.883 129.727 902.036 132.174 893.728 132.174ZM527.698 73.4498C515.389 73.4498 505.696 83.8491 504.619 97.307L550.007 97.307C549.238 84.7667 541.699 73.4498 527.698 73.4498ZM746.792 119.023C755.409 119.329 761.563 115.047 761.563 108.012L761.563 104.495C758.024 103.118 753.716 102.048 749.716 102.048C741.869 102.048 736.792 105.565 736.792 110.918L736.792 111.224C736.792 116.118 741.1 119.023 746.792 119.023ZM877.88 93.7897C879.265 85.2255 884.342 79.8729 891.881 79.8729C899.42 79.8729 904.497 85.5314 905.574 93.7897L877.88 93.7897Z" fill="#10112B"/>
<path d="M130.254 1.41776C211.263 -10.6563 159.362 57.8142 134.259 77.0716C151.508 90.2155 169.219 108.709 176.765 129.647C190.78 168.009 156.282 173.664 130.254 164.035C101.763 154.101 76.6592 132.857 60.0262 107.944C55.4059 107.944 50.3236 107.18 45.5493 105.805C54.9439 132.092 58.9481 158.992 56.33 181C56.33 136.678 35.0767 92.6608 4.42885 55.9802C-6.3518 43.142 4.73685 33.6661 14.4394 46.0458C21.0618 55.0632 27.0682 64.3862 32.4585 74.0148C43.0852 37.9456 94.8323 6.46135 130.254 1.41776V1.41776ZM118.704 66.6787C134.567 57.05 182.772 5.69718 137.801 10.2823C111.927 13.1861 80.5094 36.8757 67.5726 52.1593C85.5917 50.0196 103.919 57.8142 118.704 66.6787ZM74.041 106.569C88.5179 122.617 108.231 138.206 129.484 143.861C141.805 147.07 155.358 145.695 150.43 128.272C145.347 112.224 132.411 98.1629 119.782 87.4644C116.24 89.9098 112.235 92.508 108.231 94.1892C97.4504 100.15 85.8997 104.429 74.041 106.569Z" fill="#EBA12A"/>
</g>
<defs>
<clipPath id="clip0_1661_8929">
<rect width="923" height="181" fill="white"/>
</clipPath>
</defs>
</svg>
