<svg width="932" height="393" viewBox="0 0 932 393" fill="none" xmlns="http://www.w3.org/2000/svg">
<g filter="url(#filter0_d_2664_5878)">
<rect width="924" height="385" transform="translate(4)" fill="white"/>
<path d="M744.285 181.912C744.285 81.6984 619.765 0 466.15 0C312.551 0 188.031 81.6984 188.031 181.912C188.031 184.51 188 191.663 188 192.57C188 298.888 296.837 385 466.119 385C636.449 385 744.285 298.919 744.285 192.586C744.285 188.877 744.285 186.733 744.285 181.912Z" fill="#253E8B"/>
<path d="M733.642 181.832C733.642 276.317 613.911 352.913 466.212 352.913C318.513 352.913 198.783 276.317 198.783 181.832C198.783 87.3306 318.513 10.7344 466.212 10.7344C613.911 10.7344 733.642 87.3306 733.642 181.832Z" fill="#00AEEF"/>
<path d="M377.408 127.853C377.268 128.119 374.607 130.889 376.329 133.096C380.554 138.496 393.592 141.579 406.77 138.621C414.611 136.868 424.675 128.87 434.425 121.123C444.974 112.734 455.46 104.345 465.993 100.996C477.137 97.4431 484.289 98.9769 489.016 100.401C494.197 101.935 500.285 105.347 510.004 112.64C528.3 126.398 601.876 190.629 614.584 201.726C624.836 197.093 670.333 177.514 732.171 163.882C726.802 130.921 706.738 100.745 676.328 76.0481C633.945 93.859 582.14 103.156 531.493 78.4114C531.227 78.3019 503.806 65.3271 476.777 65.9688C436.569 66.8923 419.165 84.2962 400.744 102.702L377.408 127.853Z" fill="white"/>
<path d="M611.595 208.706C610.734 207.939 525.076 132.986 505.685 118.415C494.447 109.995 488.202 107.835 481.645 107.006C478.233 106.552 473.506 107.194 470.219 108.101C461.189 110.559 449.388 118.447 438.902 126.757C428.055 135.397 417.82 143.535 408.335 145.664C396.206 148.387 381.4 145.163 374.638 140.609C371.899 138.762 369.974 136.633 369.051 134.473C366.547 128.682 371.148 124.05 371.915 123.283L395.548 97.709C398.303 94.9701 401.057 92.2312 403.89 89.5235C396.268 90.5252 389.21 92.4659 382.354 94.3753C373.793 96.7856 365.561 99.0707 357.219 99.0707C353.744 99.0707 335.104 96.0187 331.567 95.0483C310.172 89.1949 291.391 83.4979 263.359 70.3979C229.757 95.424 207.282 126.695 200.787 161.143C205.623 162.426 213.401 164.742 216.672 165.462C292.705 182.366 316.385 199.785 320.689 203.432C325.338 198.251 332.052 194.98 339.549 194.98C347.953 194.996 355.544 199.206 360.146 205.748C364.497 202.305 370.507 199.378 378.269 199.378C381.791 199.378 385.453 200.036 389.147 201.288C397.724 204.23 402.153 209.943 404.454 215.107C407.333 213.808 410.871 212.854 415.034 212.869C419.134 212.869 423.391 213.793 427.68 215.655C441.703 221.665 443.879 235.438 442.611 245.815C443.613 245.705 444.614 245.658 445.632 245.658C462.253 245.674 475.775 259.181 475.775 275.818C475.775 280.967 474.461 285.803 472.16 290.045C476.683 292.596 488.218 298.34 498.344 297.056C506.436 296.039 509.503 293.269 510.599 291.719C511.35 290.655 512.148 289.403 511.413 288.511L489.955 264.674C489.955 264.674 486.418 261.325 487.592 260.042C488.797 258.711 490.988 260.621 492.522 261.904C503.446 271.029 516.781 284.786 516.781 284.786C517 284.942 517.892 286.68 522.822 287.572C527.064 288.323 534.576 287.885 539.773 283.612C541.087 282.532 542.402 281.186 543.497 279.793C543.419 279.856 543.341 279.965 543.263 279.997C548.741 272.969 542.652 265.864 542.652 265.864L517.595 237.739C517.595 237.739 514.027 234.421 515.232 233.091C516.327 231.932 518.628 233.685 520.209 234.984C528.128 241.62 539.334 252.858 550.087 263.375C552.168 264.925 561.621 270.763 574.111 262.546C581.702 257.569 583.22 251.465 583.001 246.848C582.484 240.744 577.711 236.393 577.711 236.393L543.497 201.992C543.497 201.992 539.882 198.909 541.165 197.344C542.214 196.029 544.562 197.923 546.096 199.206C556.989 208.331 586.507 235.391 586.507 235.391C586.929 235.689 597.118 242.951 609.717 234.922C614.225 232.042 617.104 227.707 617.355 222.651C617.777 213.902 611.595 208.706 611.595 208.706Z" fill="white"/>
<path d="M445.631 252.325C440.326 252.262 434.519 255.408 433.768 254.954C433.345 254.672 434.081 252.544 434.582 251.307C435.098 250.086 442.078 229.067 425.05 221.758C412.013 216.171 404.046 222.462 401.307 225.311C400.588 226.062 400.274 226 400.181 225.045C399.93 221.257 398.224 211.021 386.987 207.578C370.913 202.664 360.568 213.886 357.938 217.939C356.765 208.768 349.033 201.662 339.533 201.646C329.219 201.646 320.861 209.988 320.861 220.303C320.845 230.601 329.203 238.959 339.517 238.959C344.525 238.974 349.064 236.971 352.414 233.762C352.523 233.856 352.57 234.028 352.508 234.388C351.725 238.99 350.285 255.768 367.846 262.607C374.889 265.331 380.883 263.296 385.844 259.821C387.315 258.773 387.566 259.211 387.347 260.604C386.721 264.924 387.519 274.158 400.478 279.401C410.322 283.408 416.16 279.307 419.979 275.785C421.638 274.267 422.092 274.502 422.17 276.85C422.64 289.339 433.016 299.246 445.6 299.262C458.575 299.262 469.092 288.776 469.092 275.817C469.108 262.842 458.606 252.465 445.631 252.325Z" fill="white"/>
<path d="M445.631 297.589C433.878 297.573 424.315 288.433 423.877 276.804C423.861 275.802 423.751 273.142 421.513 273.142C420.574 273.142 419.776 273.705 418.853 274.535C416.27 276.929 412.983 279.371 408.179 279.371C405.987 279.371 403.624 278.854 401.136 277.837C388.709 272.813 388.536 264.283 389.037 260.856C389.178 259.932 389.225 258.978 388.599 258.242L387.832 257.569H387.065C386.439 257.569 385.782 257.819 384.905 258.445C381.306 260.965 377.862 262.186 374.357 262.186C372.432 262.186 370.46 261.795 368.472 261.028C352.132 254.674 353.431 239.242 354.229 234.609C354.339 233.654 354.104 232.934 353.509 232.449L352.351 231.494L351.271 232.527C348.094 235.595 343.915 237.285 339.549 237.285C330.174 237.27 322.552 229.663 322.567 220.304C322.567 210.929 330.205 203.338 339.564 203.338C348.032 203.338 355.231 209.708 356.311 218.16L356.89 222.714L359.394 218.864C359.676 218.41 366.531 208.033 379.146 208.049C381.54 208.049 384.013 208.425 386.518 209.207C396.565 212.275 398.271 221.384 398.538 225.187C398.71 227.394 400.29 227.503 400.603 227.503C401.464 227.503 402.106 226.956 402.56 226.47C404.454 224.498 408.585 221.212 415.049 221.212C418.007 221.212 421.169 221.916 424.409 223.309C440.388 230.164 433.142 250.463 433.064 250.683C431.686 254.048 431.624 255.534 432.923 256.395L433.549 256.693H434.018C434.738 256.693 435.63 256.38 437.102 255.879C439.277 255.127 442.564 254.001 445.631 254.001H445.647C457.667 254.141 467.449 263.923 467.449 275.818C467.433 287.822 457.651 297.589 445.631 297.589ZM614.913 199.738C588.525 176.716 527.549 123.706 511.037 111.294C501.6 104.204 495.167 100.448 489.517 98.7735C486.982 98.0066 483.46 97.1302 478.937 97.1302C474.742 97.1302 470.235 97.8814 465.524 99.3839C454.85 102.765 444.223 111.216 433.925 119.386L433.392 119.809C423.814 127.431 413.922 135.303 406.426 136.978C403.155 137.713 399.79 138.089 396.44 138.089C388.036 138.089 380.508 135.663 377.675 132.063C377.205 131.453 377.503 130.498 378.598 129.105L378.755 128.917L401.965 103.907C420.136 85.7206 437.305 68.567 476.84 67.6593C477.481 67.6436 478.154 67.628 478.812 67.628C503.415 67.6436 528.003 78.6619 530.758 79.9297C553.827 91.1828 577.648 96.8954 601.578 96.9111C626.526 96.9267 652.272 90.7445 679.333 78.2863C676.312 75.7508 673.166 73.278 669.927 70.8521C646.153 81.1505 623.506 86.3623 601.657 86.3623C579.323 86.331 557.036 80.9783 535.375 70.4138C534.232 69.8661 507.077 57.0635 478.812 57.0479C478.076 57.0479 477.325 57.0635 476.589 57.0792C443.393 57.8461 424.69 69.6469 412.107 79.9766C399.883 80.274 389.319 83.2164 379.944 85.8458C371.555 88.1621 364.324 90.1811 357.266 90.1811C354.355 90.1811 349.127 89.915 348.658 89.8994C340.55 89.649 299.654 79.6323 267.131 67.3149C263.813 69.6626 260.621 72.0885 257.506 74.5614C291.484 88.4908 332.834 99.2587 345.887 100.104C349.518 100.354 353.384 100.761 357.25 100.761C365.889 100.761 374.498 98.351 382.84 96.0189C387.754 94.626 393.185 93.1235 398.913 92.0279C397.379 93.5304 395.861 95.0486 394.327 96.5667L370.757 122.078C368.894 123.956 364.856 128.964 367.517 135.115C368.581 137.604 370.726 139.983 373.731 142.002C379.334 145.789 389.397 148.34 398.757 148.356C402.294 148.356 405.659 147.996 408.742 147.307C418.618 145.085 428.994 136.821 439.981 128.088C448.73 121.139 461.157 112.312 470.689 109.714C473.349 108.994 476.621 108.54 479.234 108.54C480.017 108.555 480.768 108.571 481.457 108.681C487.748 109.463 493.821 111.607 504.683 119.762C524.043 134.301 609.701 209.239 610.547 209.99C610.593 210.037 616.056 214.732 615.68 222.573C615.477 226.94 613.051 230.821 608.841 233.513C605.178 235.83 601.406 237.004 597.603 237.004C591.875 237.004 587.931 234.312 587.665 234.139C587.352 233.873 558.006 206.969 547.207 197.923C545.485 196.499 543.81 195.215 542.12 195.215C541.228 195.215 540.43 195.591 539.882 196.28C538.192 198.377 540.086 201.272 542.339 203.182L576.615 237.63C576.662 237.677 580.888 241.636 581.342 246.926C581.623 252.639 578.884 257.413 573.203 261.137C569.165 263.798 565.065 265.16 561.058 265.16C555.799 265.16 552.09 262.75 551.276 262.186L546.362 257.334C537.378 248.491 528.097 239.351 521.304 233.686C519.645 232.308 517.877 231.041 516.186 231.041C515.357 231.041 514.606 231.338 514.027 231.948C513.26 232.809 512.712 234.359 514.653 236.925C515.435 237.974 516.374 238.85 516.374 238.85L541.4 266.96C541.604 267.21 546.549 273.095 541.964 278.948L541.072 280.06C540.336 280.889 539.522 281.656 538.755 282.313C534.482 285.819 528.785 286.195 526.532 286.195C525.327 286.195 524.153 286.085 523.151 285.897C520.678 285.459 519.019 284.771 518.205 283.816L517.908 283.503C516.546 282.094 503.932 269.213 493.492 260.511C492.131 259.353 490.409 257.898 488.641 257.898C487.764 257.898 486.982 258.242 486.371 258.915C484.305 261.169 487.404 264.549 488.719 265.801L510.067 289.325C510.036 289.528 509.769 290.014 509.253 290.765C508.486 291.814 505.904 294.412 498.156 295.382C497.233 295.507 496.278 295.554 495.324 295.554C487.342 295.554 478.827 291.673 474.445 289.356C476.448 285.131 477.481 280.482 477.481 275.834C477.481 258.258 463.223 243.968 445.663 243.968C445.287 243.968 444.896 243.968 444.52 243.984C445.084 235.971 443.957 220.789 428.368 214.106C423.877 212.165 419.4 211.179 415.065 211.179C411.653 211.179 408.382 211.758 405.314 212.932C402.075 206.656 396.722 202.086 389.726 199.707C385.86 198.377 382.01 197.688 378.301 197.688C371.806 197.688 365.842 199.598 360.505 203.385C355.403 197.046 347.687 193.275 339.564 193.275C332.459 193.275 325.619 196.123 320.564 201.147C313.912 196.076 287.572 179.329 217.048 163.318C213.636 162.552 205.811 160.298 201.006 158.905C200.208 162.708 199.597 166.574 199.19 170.471C199.19 170.471 212.196 173.586 214.763 174.165C286.805 190.16 310.594 206.797 314.632 209.943C313.255 213.214 312.551 216.735 312.551 220.304C312.535 235.172 324.649 247.302 339.533 247.318C341.208 247.318 342.867 247.161 344.479 246.864C346.733 257.819 353.901 266.13 364.841 270.387C368.049 271.608 371.289 272.25 374.466 272.25C376.516 272.25 378.598 271.999 380.617 271.483C382.636 276.616 387.19 283.018 397.364 287.149C400.932 288.589 404.501 289.341 407.959 289.341C410.792 289.341 413.563 288.84 416.208 287.869C421.075 299.749 432.688 307.605 445.616 307.605C454.193 307.621 462.425 304.131 468.435 297.949C473.569 300.813 484.415 305.978 495.37 305.993C496.795 305.993 498.125 305.884 499.455 305.727C510.349 304.366 515.404 300.093 517.736 296.791C518.158 296.211 518.534 295.601 518.863 294.959C521.429 295.711 524.247 296.305 527.486 296.321C533.434 296.321 539.146 294.286 544.906 290.076C550.572 286.007 554.594 280.138 555.173 275.145C555.189 275.067 555.204 275.004 555.22 274.926C557.114 275.317 559.086 275.521 561.042 275.521C567.162 275.521 573.172 273.611 578.931 269.839C590.028 262.577 591.953 253.077 591.781 246.848C593.706 247.255 595.694 247.458 597.666 247.458C603.41 247.458 609.06 245.737 614.428 242.309C621.314 237.911 625.446 231.181 626.072 223.34C626.511 218.019 625.196 212.651 622.379 208.033C640.972 200.02 683.465 184.526 733.501 173.241C733.204 169.36 732.64 165.525 731.952 161.706C671.413 175.151 626.229 194.699 614.913 199.738Z" fill="#253E8B"/>
</g>
<defs>
<filter id="filter0_d_2664_5878" x="0" y="0" width="932" height="393" filterUnits="userSpaceOnUse" color-interpolation-filters="sRGB">
<feFlood flood-opacity="0" result="BackgroundImageFix"/>
<feColorMatrix in="SourceAlpha" type="matrix" values="0 0 0 0 0 0 0 0 0 0 0 0 0 0 0 0 0 0 127 0" result="hardAlpha"/>
<feOffset dy="4"/>
<feGaussianBlur stdDeviation="2"/>
<feComposite in2="hardAlpha" operator="out"/>
<feColorMatrix type="matrix" values="0 0 0 0 0 0 0 0 0 0 0 0 0 0 0 0 0 0 0.25 0"/>
<feBlend mode="normal" in2="BackgroundImageFix" result="effect1_dropShadow_2664_5878"/>
<feBlend mode="normal" in="SourceGraphic" in2="effect1_dropShadow_2664_5878" result="shape"/>
</filter>
</defs>
</svg>
