<svg width="932" height="393" viewBox="0 0 932 393" fill="none" xmlns="http://www.w3.org/2000/svg">
<g filter="url(#filter0_d_2664_5878)">
<rect width="924" height="385" transform="translate(4)" fill="white"/>
<path d="M342.326 183.31C342.326 122.541 266.818 73 173.668 73C80.5265 73 5.01898 122.541 5.01898 183.31C5.01898 184.885 5 189.222 5 189.773C5 254.243 70.9979 306.46 173.649 306.46C276.935 306.46 342.326 254.262 342.326 189.782C342.326 187.533 342.326 186.233 342.326 183.31Z" fill="#253E8B"/>
<path d="M335.872 183.261C335.872 240.556 263.268 287.003 173.705 287.003C84.1421 287.003 11.5387 240.556 11.5387 183.261C11.5387 125.956 84.1421 79.5093 173.705 79.5093C263.268 79.5093 335.872 125.956 335.872 183.261Z" fill="#00AEEF"/>
<path d="M119.855 150.529C119.77 150.69 118.157 152.37 119.201 153.708C121.763 156.982 129.669 158.852 137.66 157.058C142.415 155.995 148.517 151.146 154.43 146.448C160.827 141.361 167.185 136.274 173.572 134.243C180.33 132.088 184.667 133.018 187.533 133.882C190.675 134.812 194.366 136.881 200.26 141.304C211.355 149.646 255.97 188.596 263.677 195.325C269.893 192.515 297.482 180.643 334.98 172.376C331.724 152.389 319.557 134.091 301.117 119.115C275.416 129.915 244.002 135.552 213.291 120.548C213.129 120.481 196.502 112.614 180.111 113.003C155.73 113.563 145.176 124.116 134.006 135.277L119.855 150.529Z" fill="white"/>
<path d="M261.864 199.557C261.342 199.092 209.4 153.642 197.641 144.806C190.826 139.7 187.04 138.39 183.063 137.887C180.994 137.612 178.128 138.001 176.135 138.551C170.659 140.041 163.503 144.825 157.144 149.864C150.567 155.103 144.36 160.038 138.609 161.329C131.254 162.98 122.276 161.025 118.176 158.263C116.515 157.144 115.347 155.853 114.788 154.543C113.269 151.032 116.059 148.222 116.524 147.757L130.855 132.25C132.526 130.589 134.196 128.928 135.914 127.286C131.292 127.893 127.011 129.07 122.855 130.228C117.663 131.69 112.671 133.075 107.613 133.075C105.506 133.075 94.2023 131.225 92.0574 130.636C79.0837 127.087 67.695 123.632 50.6972 115.688C30.3208 130.864 16.6923 149.826 12.7537 170.715C15.6863 171.493 20.4031 172.898 22.3867 173.335C68.4922 183.584 82.8515 194.148 85.4614 196.359C88.2802 193.217 92.3516 191.234 96.8977 191.234C101.994 191.243 106.597 193.796 109.387 197.764C112.026 195.676 115.67 193.901 120.377 193.901C122.513 193.901 124.734 194.299 126.973 195.059C132.174 196.843 134.86 200.307 136.255 203.439C138.002 202.651 140.146 202.072 142.671 202.082C145.158 202.082 147.739 202.642 150.339 203.771C158.843 207.415 160.162 215.767 159.393 222.06C160.001 221.993 160.608 221.965 161.225 221.965C171.304 221.974 179.504 230.165 179.504 240.253C179.504 243.376 178.707 246.308 177.312 248.88C180.055 250.427 187.049 253.91 193.19 253.132C198.096 252.515 199.956 250.835 200.621 249.896C201.076 249.25 201.56 248.491 201.114 247.95L188.103 233.496C188.103 233.496 185.958 231.465 186.67 230.687C187.4 229.88 188.729 231.038 189.659 231.816C196.284 237.349 204.37 245.691 204.37 245.691C204.502 245.786 205.043 246.84 208.033 247.381C210.605 247.836 215.16 247.57 218.311 244.979C219.109 244.325 219.906 243.508 220.57 242.664C220.523 242.702 220.475 242.768 220.428 242.787C223.75 238.526 220.058 234.217 220.058 234.217L204.863 217.162C204.863 217.162 202.699 215.15 203.43 214.344C204.094 213.641 205.49 214.704 206.448 215.492C211.25 219.516 218.046 226.33 224.566 232.708C225.828 233.648 231.56 237.188 239.134 232.205C243.737 229.187 244.657 225.486 244.525 222.686C244.211 218.985 241.317 216.346 241.317 216.346L220.57 195.486C220.57 195.486 218.378 193.616 219.156 192.667C219.792 191.87 221.216 193.018 222.146 193.796C228.751 199.329 246.65 215.739 246.65 215.739C246.907 215.919 253.085 220.323 260.725 215.454C263.458 213.708 265.205 211.079 265.356 208.013C265.613 202.708 261.864 199.557 261.864 199.557Z" fill="white"/>
<path d="M161.225 226.007C158.008 225.969 154.487 227.877 154.031 227.601C153.775 227.431 154.221 226.14 154.525 225.39C154.838 224.65 159.071 211.904 148.745 207.472C140.839 204.084 136.008 207.899 134.348 209.626C133.911 210.082 133.721 210.044 133.664 209.465C133.512 207.168 132.478 200.961 125.664 198.873C115.917 195.893 109.643 202.698 108.049 205.156C107.337 199.595 102.649 195.286 96.888 195.276C90.6337 195.276 85.5657 200.335 85.5657 206.589C85.5562 212.834 90.6242 217.902 96.8785 217.902C99.9155 217.912 102.668 216.697 104.699 214.751C104.765 214.808 104.794 214.912 104.756 215.131C104.281 217.921 103.408 228.095 114.057 232.242C118.327 233.894 121.962 232.66 124.971 230.553C125.863 229.917 126.015 230.183 125.882 231.028C125.502 233.647 125.986 239.246 133.845 242.426C139.814 244.855 143.354 242.369 145.67 240.234C146.676 239.313 146.951 239.455 146.999 240.879C147.283 248.452 153.576 254.46 161.206 254.469C169.074 254.469 175.452 248.111 175.452 240.252C175.461 232.385 169.093 226.092 161.225 226.007Z" fill="white"/>
<path d="M161.225 253.455C154.098 253.445 148.299 247.903 148.033 240.851C148.024 240.244 147.957 238.63 146.6 238.63C146.031 238.63 145.547 238.972 144.987 239.475C143.421 240.927 141.428 242.408 138.514 242.408C137.185 242.408 135.752 242.095 134.243 241.478C126.708 238.431 126.603 233.259 126.907 231.18C126.992 230.62 127.021 230.041 126.641 229.595L126.176 229.187H125.711C125.332 229.187 124.933 229.339 124.402 229.719C122.219 231.247 120.131 231.987 118.005 231.987C116.838 231.987 115.642 231.75 114.436 231.285C104.528 227.432 105.316 218.074 105.8 215.265C105.866 214.686 105.724 214.249 105.363 213.955L104.661 213.376L104.006 214.002C102.08 215.862 99.5456 216.887 96.8977 216.887C91.2128 216.878 86.5908 212.265 86.6003 206.59C86.6003 200.905 91.2318 196.302 96.9072 196.302C102.042 196.302 106.407 200.165 107.062 205.29L107.413 208.052L108.932 205.717C109.103 205.442 113.26 199.149 120.909 199.159C122.361 199.159 123.861 199.387 125.379 199.861C131.472 201.721 132.507 207.245 132.668 209.551C132.772 210.889 133.731 210.956 133.921 210.956C134.443 210.956 134.832 210.624 135.107 210.329C136.255 209.134 138.761 207.141 142.681 207.141C144.474 207.141 146.391 207.568 148.356 208.412C158.046 212.569 153.652 224.879 153.604 225.011C152.769 227.052 152.731 227.954 153.519 228.476L153.898 228.656H154.183C154.62 228.656 155.161 228.466 156.053 228.162C157.372 227.707 159.365 227.023 161.225 227.023H161.235C168.524 227.109 174.455 233.041 174.455 240.253C174.446 247.533 168.514 253.455 161.225 253.455ZM263.876 194.119C247.875 180.159 210.899 148.014 200.887 140.488C195.164 136.189 191.263 133.911 187.837 132.895C186.299 132.43 184.164 131.899 181.421 131.899C178.878 131.899 176.144 132.354 173.288 133.265C166.815 135.315 160.371 140.44 154.126 145.394L153.804 145.651C147.995 150.273 141.997 155.046 137.451 156.062C135.468 156.508 133.427 156.736 131.396 156.736C126.3 156.736 121.735 155.265 120.017 153.082C119.732 152.712 119.912 152.133 120.577 151.288L120.672 151.174L134.746 136.008C145.765 124.98 156.176 114.578 180.15 114.028C180.539 114.018 180.947 114.009 181.345 114.009C196.265 114.018 211.174 120.7 212.845 121.469C226.834 128.292 241.279 131.756 255.79 131.766C270.918 131.775 286.53 128.027 302.939 120.472C301.108 118.935 299.2 117.435 297.236 115.964C282.819 122.209 269.086 125.369 255.837 125.369C242.294 125.35 228.78 122.104 215.645 115.698C214.952 115.366 198.485 107.603 181.345 107.593C180.899 107.593 180.444 107.603 179.998 107.612C159.868 108.077 148.527 115.233 140.896 121.497C133.484 121.677 127.078 123.462 121.393 125.056C116.306 126.461 111.921 127.685 107.641 127.685C105.876 127.685 102.706 127.524 102.421 127.514C97.5051 127.362 72.706 121.288 52.9845 113.819C50.9725 115.243 49.0364 116.714 47.1478 118.213C67.7519 126.66 92.8262 133.19 100.741 133.702C102.943 133.854 105.287 134.101 107.632 134.101C112.87 134.101 118.09 132.639 123.149 131.225C126.129 130.38 129.422 129.469 132.896 128.805C131.966 129.716 131.045 130.637 130.115 131.557L115.822 147.027C114.693 148.166 112.244 151.203 113.857 154.933C114.503 156.442 115.803 157.884 117.625 159.108C121.023 161.405 127.125 162.952 132.801 162.962C134.946 162.962 136.986 162.743 138.856 162.326C144.844 160.978 151.137 155.967 157.799 150.671C163.104 146.457 170.64 141.105 176.42 139.529C178.033 139.093 180.017 138.817 181.602 138.817C182.076 138.827 182.532 138.836 182.949 138.903C186.765 139.377 190.447 140.678 197.033 145.622C208.773 154.439 260.716 199.88 261.228 200.336C261.257 200.364 264.569 203.211 264.341 207.966C264.218 210.614 262.747 212.968 260.194 214.6C257.973 216.005 255.686 216.717 253.379 216.717C249.906 216.717 247.514 215.084 247.353 214.98C247.163 214.818 229.368 198.504 222.819 193.018C221.775 192.155 220.76 191.377 219.735 191.377C219.194 191.377 218.71 191.604 218.378 192.022C217.353 193.294 218.501 195.049 219.868 196.207L240.652 217.096C240.681 217.125 243.243 219.526 243.519 222.734C243.689 226.198 242.028 229.092 238.583 231.351C236.135 232.965 233.648 233.79 231.219 233.79C228.03 233.79 225.781 232.329 225.287 231.987L222.307 229.045C216.859 223.683 211.231 218.14 207.112 214.705C206.106 213.869 205.034 213.101 204.009 213.101C203.506 213.101 203.05 213.281 202.699 213.651C202.234 214.173 201.902 215.113 203.079 216.669C203.553 217.305 204.123 217.837 204.123 217.837L219.298 234.882C219.422 235.034 222.421 238.602 219.64 242.152L219.099 242.825C218.653 243.328 218.16 243.793 217.695 244.192C215.104 246.318 211.649 246.546 210.282 246.546C209.552 246.546 208.84 246.479 208.232 246.365C206.733 246.1 205.727 245.682 205.233 245.103L205.053 244.913C204.227 244.059 196.578 236.248 190.248 230.972C189.422 230.269 188.378 229.387 187.305 229.387C186.774 229.387 186.299 229.595 185.929 230.003C184.677 231.37 186.556 233.42 187.353 234.179L200.298 248.444C200.279 248.567 200.118 248.861 199.805 249.317C199.34 249.953 197.774 251.528 193.076 252.117C192.516 252.193 191.937 252.221 191.358 252.221C186.518 252.221 181.355 249.867 178.697 248.463C179.912 245.9 180.539 243.082 180.539 240.263C180.539 229.605 171.893 220.94 161.244 220.94C161.016 220.94 160.779 220.94 160.551 220.949C160.893 216.09 160.21 206.884 150.757 202.832C148.033 201.655 145.319 201.057 142.69 201.057C140.621 201.057 138.638 201.408 136.777 202.12C134.813 198.314 131.567 195.543 127.325 194.1C124.98 193.294 122.646 192.876 120.396 192.876C116.458 192.876 112.842 194.034 109.606 196.331C106.512 192.487 101.833 190.2 96.9072 190.2C92.5984 190.2 88.451 191.927 85.3855 194.974C81.352 191.899 65.3793 181.744 22.6145 172.035C20.5455 171.57 15.8002 170.203 12.8866 169.358C12.4025 171.665 12.0324 174.009 11.7856 176.372C11.7856 176.372 19.6724 178.261 21.2288 178.612C64.9142 188.311 79.34 198.4 81.7886 200.307C80.9534 202.291 80.5263 204.426 80.5263 206.59C80.5168 215.606 87.8626 222.961 96.8882 222.971C97.9037 222.971 98.9097 222.876 99.8872 222.696C101.254 229.339 105.601 234.379 112.235 236.96C114.18 237.7 116.145 238.09 118.071 238.09C119.315 238.09 120.577 237.938 121.801 237.624C123.025 240.737 125.787 244.619 131.956 247.125C134.12 247.998 136.284 248.453 138.381 248.453C140.099 248.453 141.779 248.15 143.383 247.561C146.334 254.765 153.376 259.529 161.216 259.529C166.417 259.538 171.409 257.422 175.053 253.673C178.166 255.41 184.743 258.542 191.386 258.551C192.25 258.551 193.057 258.485 193.864 258.39C200.469 257.564 203.534 254.973 204.949 252.971C205.205 252.62 205.433 252.25 205.632 251.86C207.188 252.316 208.897 252.677 210.861 252.686C214.468 252.686 217.932 251.452 221.424 248.899C224.86 246.432 227.299 242.873 227.65 239.845C227.66 239.798 227.669 239.76 227.679 239.712C228.827 239.95 230.023 240.073 231.209 240.073C234.92 240.073 238.564 238.915 242.057 236.628C248.786 232.224 249.953 226.463 249.849 222.686C251.016 222.933 252.221 223.056 253.417 223.056C256.9 223.056 260.326 222.012 263.582 219.934C267.758 217.267 270.263 213.186 270.643 208.431C270.909 205.204 270.111 201.949 268.403 199.149C279.678 194.29 305.445 184.895 335.787 178.052C335.606 175.698 335.265 173.373 334.847 171.057C298.137 179.21 270.738 191.063 263.876 194.119Z" fill="#253E8B"/>
<path d="M901.932 156.783C898.98 160.703 894.757 162.658 889.233 162.658C883.719 162.658 879.467 160.703 876.497 156.783C873.517 152.864 872.036 147.283 872.036 140.061C872.036 132.839 873.517 127.277 876.497 123.376C879.467 119.485 883.719 117.53 889.233 117.53C894.757 117.53 898.98 119.485 901.932 123.376C904.883 127.277 906.373 132.839 906.373 140.061C906.373 147.283 904.883 152.864 901.932 156.783ZM917.022 113.022C910.929 105.401 901.694 101.586 889.29 101.586C876.905 101.586 867.661 105.401 861.577 113.022C855.484 120.653 852.438 129.659 852.438 140.061C852.438 150.643 855.484 159.688 861.577 167.214C867.661 174.711 876.905 178.479 889.29 178.479C901.694 178.479 910.929 174.711 917.022 167.214C923.115 159.688 926.152 150.643 926.152 140.061C926.152 129.659 923.115 120.653 917.022 113.022Z" fill="#253E8B"/>
<path d="M751.847 147.871C751.723 154.201 749.91 158.567 746.427 160.949C742.944 163.341 739.139 164.546 735.01 164.546C732.4 164.546 730.189 163.815 728.367 162.382C726.544 160.94 725.643 158.605 725.643 155.369C725.643 151.753 727.123 149.077 730.103 147.34C731.878 146.334 734.763 145.461 738.806 144.768L743.115 143.971C745.26 143.562 746.949 143.126 748.183 142.661C749.436 142.205 750.641 141.598 751.847 140.839V147.871ZM761.442 106.644C755.263 103.521 748.202 101.937 740.249 101.937C728.025 101.937 719.398 105.125 714.377 111.494C711.217 115.575 709.452 120.766 709.034 127.096H727.294C727.75 124.306 728.642 122.095 729.99 120.462C731.878 118.251 735.077 117.141 739.604 117.141C743.647 117.141 746.712 117.691 748.8 118.839C750.878 119.959 751.922 122.009 751.922 124.97C751.922 127.409 750.575 129.194 747.841 130.351C746.323 131.016 743.808 131.566 740.277 132.012L733.805 132.81C726.459 133.73 720.869 135.287 717.092 137.46C710.173 141.446 706.728 147.871 706.728 156.773C706.728 163.626 708.863 168.931 713.163 172.67C717.452 176.41 722.91 177.976 729.496 178.289C770.79 180.13 770.325 156.527 770.704 151.611V124.439C770.704 115.726 767.61 109.795 761.442 106.644Z" fill="#253E8B"/>
<path d="M667.275 118.117C672.002 118.117 675.466 119.579 677.706 122.492C679.243 124.647 680.202 127.086 680.572 129.781H700.948C699.828 119.503 696.231 112.328 690.157 108.256C684.064 104.213 676.273 102.173 666.735 102.173C655.507 102.173 646.7 105.618 640.332 112.499C633.954 119.389 630.765 129.012 630.765 141.388C630.765 152.34 633.65 161.271 639.42 168.161C645.191 175.032 654.197 178.478 666.44 178.478C678.693 178.478 687.937 174.359 694.172 166.102C698.073 160.986 700.265 155.558 700.73 149.825H680.43C680.012 153.612 678.826 156.706 676.861 159.088C674.906 161.461 671.603 162.657 666.934 162.657C660.366 162.657 655.887 159.667 653.505 153.65C652.204 150.452 651.55 146.209 651.55 140.923C651.55 135.381 652.204 130.939 653.505 127.589C655.982 121.287 660.575 118.117 667.275 118.117Z" fill="#253E8B"/>
<path d="M625.308 102.173C583.464 102.173 585.941 139.224 585.941 139.224V176.855H604.922V141.559C604.922 135.779 605.653 131.489 607.105 128.709C609.705 123.774 614.802 121.296 622.394 121.296C622.964 121.296 623.714 121.325 624.644 121.372C625.564 121.41 626.618 121.496 627.823 121.638V102.315C626.978 102.258 626.437 102.239 626.2 102.211C625.953 102.192 625.659 102.173 625.308 102.173Z" fill="#253E8B"/>
<path d="M530.031 121.837C532.708 119.095 536.457 117.719 541.287 117.719C545.748 117.719 549.468 119.009 552.477 121.61C555.476 124.191 557.156 127.997 557.497 132.998H525.011C525.685 128.301 527.365 124.59 530.031 121.837ZM555.552 157.19C554.754 158.329 553.9 159.306 552.951 160.066C550.275 162.277 546.631 162.941 542.341 162.941C538.279 162.941 535.109 162.325 532.233 160.512C527.497 157.608 524.831 152.682 524.546 145.441H577.086C577.162 139.215 576.953 134.451 576.45 131.129C575.577 125.482 573.66 120.499 570.708 116.219C567.434 111.36 563.268 107.801 558.238 105.542C553.217 103.293 547.57 102.173 541.287 102.173C530.705 102.173 522.116 105.504 515.492 112.166C508.867 118.838 505.546 128.414 505.546 140.904C505.546 154.248 509.218 163.871 516.564 169.784C523.9 175.697 532.376 178.667 541.971 178.667C553.597 178.667 562.641 175.156 569.104 168.142C572.587 164.45 574.77 160.797 575.691 157.19H555.552Z" fill="#253E8B"/>
<path d="M497.925 176.846H480.576V133.17C480.576 129.184 479.266 119.693 467.82 119.693C460.19 119.693 454.676 125.198 454.676 133.17V176.846H437.317V133.17C437.317 129.184 436.131 119.693 424.695 119.693C416.931 119.693 411.541 125.198 411.541 133.17V176.846H394.192V133.587C394.192 115.555 406.15 101.917 424.695 101.917C433.901 101.917 441.389 105.789 446.258 111.987C451.382 105.789 459.003 101.917 467.82 101.917C486.754 101.917 497.925 115.005 497.925 133.587V176.846Z" fill="#253E8B"/>
<path d="M824.013 156.935C821.242 160.911 817.171 162.895 811.837 162.895C806.494 162.895 802.517 160.892 799.898 156.906C797.278 152.901 795.969 147.093 795.969 140.43C795.969 134.252 797.25 129.08 799.831 124.913C802.403 120.747 806.446 118.659 811.97 118.659C815.586 118.659 818.765 119.798 821.508 122.095C825.959 125.891 828.189 132.696 828.189 141.522C828.189 147.824 826.794 152.968 824.013 156.935ZM846.791 79.3677C846.791 79.3677 827.658 77.3272 827.658 92.6926L827.648 113.031C825.532 109.633 822.78 106.966 819.382 105.059C815.994 103.142 812.112 102.174 807.727 102.174C798.246 102.174 790.682 105.704 785.007 112.765C779.331 119.826 776.513 130 776.513 142.31C776.513 152.987 779.388 161.737 785.14 168.561C790.901 175.365 802.194 178.355 812.216 178.355C847.18 178.355 846.772 148.365 846.772 148.365L846.791 79.3677Z" fill="#253E8B"/>
<path d="M564.663 245.985C564.663 238.829 563.268 233.324 560.468 229.461C557.678 225.618 553.682 223.672 548.462 223.672C543.451 223.672 539.532 225.618 536.732 229.461C534.141 232.954 532.841 238.477 532.841 245.985C532.841 252.989 534.226 258.199 537.026 261.692C539.807 265.554 543.821 267.481 549.022 267.481C553.862 267.481 557.678 265.554 560.468 261.692C563.268 257.838 564.663 252.619 564.663 245.985ZM532.841 297.367C532.841 299.929 531.911 302.141 530.031 303.972C528.181 305.814 525.95 306.734 523.341 306.734H513.859V240.746C513.859 227.914 518.178 219.885 525.296 214.447C530.003 210.86 537.007 207.434 550.142 207.434C559.006 207.434 569.389 210.879 574.998 217.712C581.29 225.399 583.91 233.969 583.91 245.159C583.91 256.737 581.12 266.076 575.549 273.261C569.968 280.246 562.793 283.719 554.043 283.719C549.392 283.719 545.302 282.894 541.771 281.252C538.032 279.411 535.071 276.563 532.841 272.701V297.367Z" fill="#00AEEF"/>
<path d="M678.465 245.994C678.465 258.655 682.128 265.669 689.436 267.054C696.734 268.411 702.135 266.712 705.608 261.948C707.26 259.946 708.436 256.766 709.177 252.467C709.898 248.158 709.955 243.888 709.31 239.674C708.683 235.441 707.165 231.683 704.782 228.38C702.419 225.087 698.936 223.426 694.371 223.426C688.155 223.426 683.96 225.732 681.758 230.297C679.556 234.89 678.465 240.12 678.465 245.994ZM709.727 277.636V272.976C706.443 278.12 701.992 281.309 696.421 282.6C690.85 283.881 685.317 283.426 679.851 281.214C674.356 279.022 669.648 274.941 665.719 268.981C661.79 263.002 659.835 255.162 659.835 245.434C659.835 234.074 662.435 224.849 667.636 217.788C672.847 210.727 681.217 207.5 692.729 207.187C704.071 206.884 710.667 209.455 717.13 214.343C724.191 219.705 728.367 227.924 728.367 240.765V279.582C728.395 291.929 719.778 314.821 692.729 312.884C675.969 311.67 666.668 304.789 661.477 289.215H681.492C682.954 291.777 685.184 293.742 688.212 295.108C691.211 296.504 694.248 296.864 697.237 296.219C700.255 295.574 702.998 293.78 705.485 290.857C707.943 287.924 709.357 283.511 709.727 277.636Z" fill="#00AEEF"/>
<path d="M633.992 253.653C633.868 259.983 632.056 264.339 628.582 266.731C625.099 269.113 621.293 270.309 617.165 270.309C614.545 270.309 612.334 269.588 610.521 268.155C608.699 266.722 607.788 264.377 607.788 261.141C607.788 257.525 609.278 254.849 612.258 253.121C614.033 252.106 616.918 251.233 620.952 250.54L625.26 249.743C627.415 249.335 629.104 248.898 630.328 248.433C631.581 247.978 632.786 247.38 633.992 246.62V253.653ZM643.587 212.426C637.408 209.303 630.347 207.718 622.404 207.718C610.17 207.718 601.553 210.907 596.523 217.275C593.372 221.347 591.597 226.538 591.189 232.878H609.458C609.905 230.078 610.797 227.867 612.144 226.234C614.033 224.023 617.231 222.922 621.749 222.922C625.811 222.922 628.867 223.473 630.945 224.612C633.024 225.741 634.077 227.791 634.077 230.752C634.077 233.182 632.72 234.975 629.996 236.133C628.487 236.798 625.963 237.348 622.432 237.794L615.96 238.582C608.614 239.512 603.024 241.068 599.247 243.232C592.328 247.218 588.873 253.653 588.873 262.546C588.873 269.398 591.018 274.703 595.317 278.442C599.607 282.172 605.064 283.757 611.651 284.061C652.926 285.902 652.47 262.289 652.85 257.383V230.211C652.85 221.499 649.765 215.577 643.587 212.426Z" fill="#00AEEF"/>
<path d="M785.102 262.148C782.15 266.077 777.917 268.032 772.403 268.032C766.88 268.032 762.628 266.077 759.667 262.148C756.677 258.238 755.197 252.667 755.197 245.444C755.197 238.222 756.677 232.66 759.667 228.76C762.628 224.859 766.88 222.923 772.403 222.923C777.917 222.923 782.15 224.859 785.102 228.76C788.053 232.66 789.534 238.222 789.534 245.444C789.534 252.667 788.053 258.238 785.102 262.148ZM800.192 218.405C794.099 210.775 784.855 206.969 772.451 206.969C760.075 206.969 750.822 210.775 744.738 218.405C738.645 226.026 735.599 235.033 735.599 245.444C735.599 256.026 738.645 265.061 744.738 272.588C750.822 280.085 760.075 283.853 772.451 283.853C784.855 283.853 794.099 280.085 800.192 272.588C806.275 265.061 809.303 256.026 809.303 245.444C809.303 235.033 806.275 226.026 800.192 218.405Z" fill="#00AEEF"/>
</g>
<defs>
<filter id="filter0_d_2664_5878" x="0" y="0" width="932" height="393" filterUnits="userSpaceOnUse" color-interpolation-filters="sRGB">
<feFlood flood-opacity="0" result="BackgroundImageFix"/>
<feColorMatrix in="SourceAlpha" type="matrix" values="0 0 0 0 0 0 0 0 0 0 0 0 0 0 0 0 0 0 127 0" result="hardAlpha"/>
<feOffset dy="4"/>
<feGaussianBlur stdDeviation="2"/>
<feComposite in2="hardAlpha" operator="out"/>
<feColorMatrix type="matrix" values="0 0 0 0 0 0 0 0 0 0 0 0 0 0 0 0 0 0 0.25 0"/>
<feBlend mode="normal" in2="BackgroundImageFix" result="effect1_dropShadow_2664_5878"/>
<feBlend mode="normal" in="SourceGraphic" in2="effect1_dropShadow_2664_5878" result="shape"/>
</filter>
</defs>
</svg>
