<svg id="Midtrans" xmlns="http://www.w3.org/2000/svg" width="184.245" height="29.881" viewBox="0 0 184.245 29.881">
  <g id="_1-Overview-alt" data-name="1-Overview-alt" transform="translate(-135 -15)">
    <g id="header">
      <g id="logo-midtrans-color-copy-2" transform="translate(135 15)">
        <path id="Fill-1" d="M2.008,24.115A1.993,1.993,0,0,1,0,22.139V7.761A1.993,1.993,0,0,1,2.008,5.785,1.993,1.993,0,0,1,4.016,7.761V22.139a1.993,1.993,0,0,1-2.008,1.976" fill="#89c7e8" fill-rule="evenodd"/>
        <path id="Fill-4" d="M26.1,24.115a1.993,1.993,0,0,1-2.008-1.976V7.773a2.008,2.008,0,0,1,4.016,0V22.139A1.993,1.993,0,0,1,26.1,24.115" fill="#0baddc" fill-rule="evenodd"/>
        <path id="Fill-6" d="M14.055,29.881A1.993,1.993,0,0,1,12.047,27.9V2.007a2.008,2.008,0,0,1,4.016,0V27.9a1.993,1.993,0,0,1-2.008,1.976" fill="#307fc2" fill-rule="evenodd"/>
        <path id="Fill-12" d="M171.02,21.841a1.179,1.179,0,0,1-.483-.952,1.149,1.149,0,0,1,1.174-1.121,1.065,1.065,0,0,1,.656.2,10.14,10.14,0,0,0,5.662,1.869c2.142,0,3.7-1.087,3.7-2.788v-.067c0-1.767-2.106-2.448-4.454-3.092-2.8-.783-5.906-1.734-5.906-4.961v-.069c0-3.025,2.556-5.031,6.077-5.031a12.589,12.589,0,0,1,5.7,1.5,1.265,1.265,0,0,1,.656,1.088,1.149,1.149,0,0,1-1.173,1.122,1.35,1.35,0,0,1-.587-.136,9.774,9.774,0,0,0-4.662-1.36c-2.107,0-3.453,1.088-3.453,2.55v.068c0,1.665,2.21,2.311,4.592,3.024,2.762.816,5.732,1.87,5.732,5.031v.066c0,3.333-2.8,5.269-6.353,5.269a12.494,12.494,0,0,1-6.872-2.209" fill="#307fc2" fill-rule="evenodd"/>
        <path id="Fill-14" d="M166.7,13.161a7.78,7.78,0,0,0-15.55.261v9.056a1.374,1.374,0,0,0,1.406,1.384,1.344,1.344,0,0,0,1.372-1.384l0-4.067V13.16a5,5,0,0,1,10,0v9.319a1.389,1.389,0,0,0,2.777,0s.026-8.466,0-9.318" fill="#307fc2" fill-rule="evenodd"/>
        <path id="Fill-16" d="M137.75,21.735c-2.418,0-4.324-1.015-4.324-3.224v-.069c0-2.209,1.864-3.636,5.213-3.636a23.228,23.228,0,0,1,5.248.748v0a6.508,6.508,0,0,1-6.137,6.178Zm8.658-8.764H146.4A7.736,7.736,0,0,0,138.656,6h-1.191a1.238,1.238,0,1,0,0,2.476h1.185a5.141,5.141,0,0,1,5.2,4.919v.221a19.263,19.263,0,0,0-5.49-.748c-4.524,0-7.632,1.971-7.632,5.676v.067c0,3.6,3.227,5.472,6.542,5.472a7.716,7.716,0,0,0,6.613-3.475v2.014a1.261,1.261,0,0,0,2.522,0Z" fill="#307fc2" fill-rule="evenodd"/>
        <path id="Fill-18" d="M130.23,7.234A1.249,1.249,0,0,0,128.971,6h-.86a7.72,7.72,0,0,0-7.78,7.656v8.828a1.374,1.374,0,0,0,1.406,1.384,1.344,1.344,0,0,0,1.372-1.384l0-4.067V13.39a4.959,4.959,0,0,1,5-4.919h.866a1.249,1.249,0,0,0,1.259-1.239" fill="#307fc2" fill-rule="evenodd"/>
        <path id="Fill-20" d="M115.918,7.171h0a1.166,1.166,0,0,0-1.175-1.156h-4.661V1.4a1.4,1.4,0,0,0-1.336-1.4,1.307,1.307,0,0,0-1.323,1.325V19.055c0,3.568,2.174,4.961,5.04,4.961a6.825,6.825,0,0,0,2.625-.475,1.1,1.1,0,0,0,.76-1.02,1.14,1.14,0,0,0-1.139-1.121,7.649,7.649,0,0,1-1.623.238c-1.8,0-3-.782-3-2.923V8.327h4.661a1.166,1.166,0,0,0,1.175-1.156" fill="#307fc2" fill-rule="evenodd"/>
        <path id="Fill-10" d="M101.928,22.555a1.33,1.33,0,0,1-2.659,0V20.67a7.678,7.678,0,0,1-6.837,3.414c-4.281,0-8.529-3.33-8.529-9.108v-.069c0-5.743,4.248-9.141,8.529-9.141A7.751,7.751,0,0,1,99.269,9.01V1.326A1.289,1.289,0,0,1,100.582,0a1.316,1.316,0,0,1,1.346,1.326Zm-15.3-7.681v.069c0,4.146,2.934,6.8,6.284,6.8a6.609,6.609,0,0,0,6.457-6.8v-.069a6.578,6.578,0,0,0-6.457-6.762c-3.454,0-6.284,2.515-6.284,6.762Z" fill="#307fc2" fill-rule="evenodd"/>
        <path id="Fill-8" d="M76.795,7.078a1.33,1.33,0,0,1,2.66,0V22.555a1.288,1.288,0,0,1-1.313,1.325,1.315,1.315,0,0,1-1.346-1.325Z" fill="#307fc2" fill-rule="evenodd"/>
        <path id="Fill-22" d="M63.841,5.754a7.47,7.47,0,0,0-6.133,3.177,7.444,7.444,0,0,0-13.535,4.162v9.461a1.315,1.315,0,0,0,1.346,1.325,1.288,1.288,0,0,0,1.313-1.325l0-9.711a4.784,4.784,0,0,1,9.567,0v8.627h0v0a1.33,1.33,0,0,0,2.66,0l0-8.644a4.784,4.784,0,0,1,9.567,0v9.711a1.33,1.33,0,0,0,2.659,0l.008-9.449a7.424,7.424,0,0,0-7.445-7.34" fill="#307fc2" fill-rule="evenodd"/>
      </g>
    </g>
  </g>
</svg>
