<svg width="923" height="273" viewBox="0 0 923 273" fill="none" xmlns="http://www.w3.org/2000/svg">
<path d="M390.392 89.1523C339.701 89.1523 298.572 130.439 298.572 181.076C298.572 231.714 339.812 273 390.392 273C440.973 273 482.212 231.714 482.212 181.076C482.212 130.439 441.083 89.1523 390.392 89.1523V89.1523ZM390.392 229.496C363.773 229.496 342.101 207.8 342.101 181.15C342.101 154.501 363.773 132.804 390.392 132.804C417.012 132.804 438.684 154.501 438.684 181.15C438.684 207.8 417.012 229.496 390.392 229.496Z" fill="black"/>
<path d="M695.832 57.3278C711.633 57.3278 724.482 44.502 724.482 28.6454C724.482 12.7888 711.633 0 695.832 0C680.03 0 667.182 12.8258 667.182 28.6824C667.182 44.539 680.03 57.3278 695.832 57.3278Z" fill="black"/>
<path d="M202.912 89.2254C200.513 89.0406 198.223 88.9297 195.861 88.9297C173.709 88.9297 152.701 98.0223 137.638 114.064C122.574 98.0962 101.641 88.9297 79.7103 88.9297C35.7755 88.9666 0 124.672 0 168.656V269.266H42.938V169.876C42.938 151.617 57.9275 134.799 75.5752 132.988C76.8305 132.877 78.0489 132.803 79.1934 132.803C99.0564 132.803 115.264 149.03 115.375 168.915V269.229H159.273V169.691C159.273 151.543 174.152 134.725 191.91 132.914C193.165 132.803 194.384 132.729 195.528 132.729C215.391 132.729 231.71 148.882 231.784 168.656V269.266H275.682V169.876C275.682 149.732 268.224 130.29 254.785 115.32C241.383 100.24 222.96 90.9626 202.912 89.2254V89.2254Z" fill="black"/>
<path d="M549.775 4.28906H505.877V269.453H549.775V4.28906ZM633.805 4.28906H589.907V269.453H633.805V4.28906ZM717.798 93.5519H673.9V269.379H717.798V93.5519Z" fill="black"/>
<path d="M923 176.975C923 153.652 913.918 131.697 897.526 114.953C881.022 98.2462 859.24 88.9688 836.054 88.9688H834.909C810.874 89.2644 788.132 98.8006 771.149 115.914C754.165 133.027 744.603 155.648 744.345 179.821C744.049 204.474 753.501 227.797 770.964 245.465C788.427 263.133 811.539 272.891 836.165 272.891H836.275C868.544 272.891 898.781 255.593 915.321 227.797L917.426 224.249L881.17 206.396L879.361 209.353C870.205 224.36 854.477 233.231 837.014 233.231C814.677 233.231 795.405 218.335 789.461 197.119H923V176.975ZM834.319 128.888C854.366 128.888 872.309 142.083 878.623 160.786H790.125C796.328 142.083 814.271 128.888 834.319 128.888Z" fill="black"/>
</svg>
