<svg width="911" height="346" viewBox="0 0 911 346" fill="none" xmlns="http://www.w3.org/2000/svg">
<path d="M58.9624 26.7731C52.7024 24.9508 49.7592 19.0167 51.9549 12.7555C54.7579 4.67196 61.6253 0.0461396 70.6883 0.0461396C137.68 0.0461396 204.718 0.0461396 271.71 0.0461396C273.999 0.0461396 276.288 -0.0473113 278.577 0.092865C285.959 0.65357 290.116 6.2139 288.715 13.5031C287.313 20.7922 279.979 27.2403 272.598 27.2403C202.85 27.2871 133.148 27.2871 63.4005 27.2871C62.98 27.2871 62.5596 27.1936 62.1858 27.1469C62.1391 26.446 62.6063 26.3058 63.1669 26.2591C64.1012 26.2124 65.0356 26.2591 65.9699 26.2591C133.616 26.2591 201.215 26.2591 268.86 26.2591C269.888 26.2591 270.916 26.0722 271.944 26.3993C272.037 26.446 272.084 26.5395 272.177 26.6329C272.177 26.5395 272.177 26.446 272.177 26.2591C243.774 26.2591 215.37 26.2591 186.919 26.2591C146.883 26.2591 106.8 26.2591 66.7641 26.2591C64.1012 26.2124 61.5318 26.3526 58.9624 26.7731Z" fill="#38CFD2"/>
<path d="M549.908 236.523C538.463 236.523 527.017 236.476 515.571 236.57C513.189 236.57 512.535 236.242 512.909 233.532C518.421 195.918 523.747 158.258 529.119 120.597C529.4 118.634 529.773 116.672 529.867 114.71C529.96 113.027 530.474 112.327 532.296 112.373C540.518 112.467 548.74 112.42 556.962 112.373C558.738 112.373 559.158 112.7 558.878 114.663C554.206 146.95 549.675 179.284 545.003 211.571C544.676 213.861 545.704 213.861 547.385 213.861C560.933 213.814 574.434 213.908 587.982 213.767C590.225 213.767 590.832 214.328 590.458 216.524C589.477 222.272 588.636 228.019 587.936 233.813C587.655 236.009 586.814 236.616 584.572 236.57C573.033 236.429 561.447 236.523 549.908 236.523Z" fill="#040613"/>
<path d="M738.924 166.995C736.542 166.995 734.112 167.229 731.777 166.949C728.787 166.575 727.759 167.603 727.385 170.593C725.797 183.489 723.928 196.339 722.153 209.188C722.059 209.702 721.966 210.216 721.966 210.73C721.686 216.992 724.302 218.907 730.188 216.711C735.28 214.796 735.327 214.796 737.943 219.748C739.438 222.599 740.746 225.542 742.475 228.252C743.689 230.215 743.129 231.103 741.307 231.99C731.403 236.85 721.172 239.653 710.007 237.644C701.551 236.102 695.057 228.346 694.824 219.562C694.637 212.553 696.132 205.731 697.019 198.815C698.234 188.91 699.682 179.051 701.037 169.191C701.271 167.65 700.99 166.808 699.168 167.042C698.374 167.136 697.486 167.042 696.692 167.042C690.619 167.042 689.031 165.22 689.965 159.286C690.386 156.529 690.105 153.071 691.647 151.202C693.235 149.286 696.879 149.614 699.635 149.567C704.541 149.473 706.876 147.184 708.138 142.558C709.539 137.605 711.735 132.839 713.604 128.026C715.239 123.868 717.154 122.513 721.592 122.513C725.143 122.466 728.646 122.56 732.197 122.466C734.019 122.419 734.766 122.653 734.346 124.849C733.131 131.718 732.29 138.633 731.169 145.455C730.749 147.838 731.216 148.679 733.879 148.586C739.485 148.352 745.091 148.586 750.743 148.492C752.472 148.492 753.126 148.726 752.706 150.735C751.818 155.407 751.07 160.173 750.51 164.893C750.323 166.668 749.669 167.136 747.987 167.089C744.951 166.902 741.961 166.995 738.924 166.995Z" fill="#040613"/>
<path d="M367.853 345.115C353.931 345.115 339.963 344.835 326.042 345.209C316.932 345.443 312.167 340.49 311.513 333.995C310.812 327.033 316.184 319.93 323.519 318.295C325.014 317.968 326.602 317.781 328.144 317.781C356.874 317.734 385.559 317.734 414.289 317.734C422.091 317.734 427.463 322.313 428.024 329.276C428.631 337.219 421.016 345.069 412.514 345.069C397.611 345.115 382.756 345.115 367.853 345.115Z" fill="#38CFD2"/>
<path d="M877.999 161.297C881.969 156.718 885.473 152.746 890.005 149.943C895.33 146.625 901.03 145.13 907.196 147.186C910.98 148.448 911.261 149.148 910.373 153.073C909.252 157.933 908.224 162.792 907.103 167.652C906.169 171.623 904.347 172.791 900.423 171.997C890.005 169.894 882.951 172.838 877.578 182.09C875.523 185.641 875.896 189.94 875.336 193.911C873.28 207.368 871.458 220.825 869.543 234.329C869.309 236.058 868.702 236.712 866.787 236.665C859.405 236.525 852.024 236.572 844.643 236.665C842.821 236.665 842.4 236.291 842.681 234.376C844.97 219.096 847.119 203.77 849.315 188.444C851.09 176.109 852.958 163.773 854.64 151.438C854.921 149.289 855.481 148.401 857.817 148.494C862.582 148.681 867.394 148.541 872.159 148.541C875.896 148.541 876.831 149.429 877.531 153.027C878.092 155.503 877.718 158.073 877.999 161.297Z" fill="#040613"/>
<path d="M341.645 27.288C336.039 27.288 330.433 27.288 324.78 27.288C316.745 27.288 311.559 22.8023 311.092 15.4664C310.625 8.13054 316.184 0.981547 323.472 0.374116C329.031 -0.139864 334.684 0.093764 340.29 0.0470385C346.55 0.000313079 352.763 0.0470386 359.023 0.000313122C367.806 -0.0464123 373.739 5.14011 373.786 12.99C373.832 20.6997 367.152 27.2412 359.117 27.288C353.277 27.3347 347.484 27.288 341.645 27.288Z" fill="#38CFD2"/>
<path d="M256.294 345.068C251.529 345.068 246.717 345.068 241.952 345.068C234.43 345.022 228.965 340.536 228.217 333.761C227.423 326.659 231.954 319.977 238.868 318.248C240.457 317.874 242.139 317.687 243.774 317.687C253.21 317.641 262.694 317.641 272.131 317.687C280.306 317.687 286.286 322.967 286.333 330.21C286.426 338.153 280.073 344.835 272.131 345.022C266.898 345.209 261.573 345.068 256.294 345.068Z" fill="#38CFD2"/>
<path d="M29.9983 110.788C34.7634 110.788 39.5752 110.741 44.3403 110.788C52.2354 110.834 57.748 115.647 58.3086 122.936C58.8692 129.898 53.5435 136.533 46.3491 137.795C43.2658 138.356 40.1358 138.075 37.0058 138.075C29.5311 138.122 22.0565 138.122 14.5351 138.075C5.56548 138.075 0.239777 133.543 0.00619353 125.74C-0.22739 117.563 6.17279 110.975 14.6752 110.788C19.8141 110.694 24.9062 110.788 29.9983 110.788Z" fill="#38CFD2"/>
<path d="M169.354 298.297C173.838 297.783 178.23 299.278 182.668 298.858C184.817 297.783 187.106 297.97 189.395 297.97C280.633 297.97 371.87 297.97 463.108 297.97C464.977 297.783 466.845 298.297 468.667 297.643C470.302 297.176 469.415 295.914 469.461 294.98C469.555 293.718 470.162 294.466 470.583 294.512C470.676 296.194 470.396 297.83 469.882 299.465C468.807 300.073 467.639 299.792 466.518 299.792C372.618 299.792 278.671 299.792 184.77 299.792C183.649 299.792 182.481 299.979 181.36 299.605C177.389 299.372 173.324 299.278 169.354 298.297Z" fill="#37D1CE"/>
<path d="M104.044 47.2858C105.259 48.2204 106.66 47.7998 107.968 47.7998C200.047 47.7998 292.172 47.7998 384.251 47.7998C385.465 47.7998 386.727 47.7998 388.128 47.7998C387.428 48.7811 386.633 48.4073 385.979 48.4073C292.032 48.4073 198.038 48.4073 104.091 48.4073C102.97 48.4073 101.475 49.1081 100.961 47.2858C101.942 48.2671 102.97 46.912 104.044 47.2858Z" fill="#39CCD9"/>
<path d="M181.453 299.605C183.228 299.558 185.004 299.512 186.732 299.512C281.146 299.512 375.561 299.512 469.975 299.465C468.994 300.633 467.639 300.072 466.471 300.072C372.571 300.119 278.67 300.072 184.77 300.072C183.649 300.119 182.434 300.446 181.453 299.605Z" fill="#163744"/>
<path d="M58.9629 26.7742C59.7571 25.5593 61.0184 25.9332 62.0929 25.9332C131.841 25.9332 201.589 25.9332 271.29 25.9332C271.897 25.9332 272.505 25.9332 273.112 25.9332C273.112 26.1201 273.112 26.3537 273.112 26.5406C271.944 26.5406 270.823 26.5406 269.655 26.5406C201.776 26.5406 133.943 26.5406 66.0638 26.5406C64.7558 26.5406 63.3543 26.0733 62.1863 27.1013C61.0651 27.2415 59.9439 27.5218 58.9629 26.7742Z" fill="#3BCFDB"/>
<path d="M153.985 143.356C154.873 143.916 157.395 142.047 156.508 145.131C154.359 144.991 152.163 144.711 150.014 144.711C130.814 144.664 111.66 144.711 92.4592 144.664C91.338 144.664 90.17 144.57 89.0488 144.524C90.1233 143.542 91.4314 143.963 92.5993 143.963C111.893 143.916 131.141 143.963 150.435 143.916C151.602 143.963 152.957 144.43 153.985 143.356Z" fill="#36D2CD"/>
<path d="M85.3109 138.355C86.4788 140.411 85.124 142.467 85.2642 144.57C83.6291 144.71 84.3765 143.589 84.47 142.935C84.7503 141.393 85.0306 139.897 85.3109 138.355Z" fill="#36D2CD"/>
<path d="M106.895 48.0819C106.147 48.0819 105.4 48.0819 104.652 48.0352C105.306 48.5024 106.147 48.1753 106.895 48.0819Z" fill="#38CFD2"/>
<path d="M490.624 138.776C487.775 117.703 479.973 98.8255 465.818 82.8921C444.375 58.6883 416.905 47.334 384.998 47.2873C292.359 47.0069 199.72 47.1938 107.081 47.1938C106.053 47.1938 105.025 47.2406 103.951 47.2873C104.137 47.6611 104.324 47.8947 104.558 48.0816C105.305 48.0816 106.053 48.0816 106.8 48.1284C106.94 48.1284 107.034 48.0816 107.174 48.0816C199.346 48.1283 291.565 48.1284 383.737 48.1284C383.783 48.1284 383.877 48.1284 383.923 48.1284C384.858 48.0816 385.745 47.9414 386.166 48.1284C385.792 48.1284 384.858 48.1284 383.923 48.1284C383.737 48.1284 383.503 48.1751 383.269 48.1751C291.705 48.1751 200.14 48.1751 108.575 48.1751C107.968 48.1751 107.361 48.1751 106.754 48.1284C106.006 48.2218 105.165 48.5022 104.511 48.0816C103.904 48.0816 103.25 48.0349 102.642 48.0816C101.848 48.0816 101.241 47.9414 100.727 47.334C98.5781 47.1938 99.2322 49.0629 99.0453 49.9974C97.4102 59.9499 96.0087 69.9024 94.2802 79.8549C93.9065 81.9576 94.3269 82.2846 96.289 82.2846C104.278 82.1912 112.313 82.2379 120.301 82.2379C139.222 82.2379 158.142 82.1912 177.109 82.2379C186.172 82.2846 191.498 90.228 188.274 98.5918C185.705 105.274 180.192 109.105 172.904 109.152C159.497 109.199 146.089 109.152 132.635 109.152C119.227 109.152 105.819 109.152 92.3648 109.152C90.9633 109.152 89.5151 108.731 89.2348 111.021C87.9734 120.179 86.5252 129.29 85.1237 138.402C85.6843 140.458 83.9558 142.514 85.077 144.616C86.3384 144.616 87.5997 144.616 88.8143 144.616C89.8888 144.102 91.0567 144.336 92.1779 144.336C102.549 144.336 112.92 144.336 123.338 144.336C132.588 144.336 141.791 144.383 151.041 144.289C151.882 144.289 153.423 145.271 153.657 143.308C152.349 142.14 150.714 142.514 149.172 142.514C129.598 142.467 110.07 142.514 90.4962 142.514C89.9356 142.233 89.0479 143.168 88.6742 142.046C89.1414 141.439 89.7487 141.205 90.4962 141.205C96.943 141.159 103.39 141.159 109.837 141.205C123.899 141.252 137.914 141.065 151.975 141.299C152.489 141.439 152.863 141.719 153.237 142.046C153.47 142.233 153.751 142.374 154.031 142.42C154.451 142.467 154.872 142.42 155.292 142.467C154.872 142.467 154.451 142.467 154.031 142.467C153.751 142.56 153.564 142.701 153.517 142.981C153.657 143.215 153.797 143.448 154.031 143.635C154.825 144.102 155.853 144.149 156.273 145.13C163.141 148.728 165.476 153.167 163.795 159.382C161.832 166.671 155.526 171.203 147.07 171.203C125.627 171.203 104.184 171.25 82.7412 171.156C80.7324 171.156 79.6579 171.53 79.3776 173.68C78.1629 183.492 77.6024 193.351 78.3965 203.257C78.6301 206.247 79.6579 206.948 82.5076 206.901C97.5036 206.761 112.5 206.808 127.449 206.855C134.083 206.855 138.568 210.453 139.736 216.527C141.324 224.844 133.148 233.675 124.039 233.628C112.266 233.582 100.54 233.675 88.7676 233.582C86.1515 233.582 85.3573 233.769 86.6654 236.666C96.9898 260.028 113.434 277.597 136.372 288.811C146.696 293.857 157.581 297.268 169.074 298.343C173.278 298.623 177.436 299.278 181.64 299.371C182.388 299.418 182.995 299.184 183.556 298.67C183.789 298.437 183.883 298.109 183.836 297.782C183.462 297.082 182.762 296.895 182.154 296.521C182.061 296.521 181.967 296.474 181.874 296.334C181.687 296.1 181.734 295.96 182.014 296.007C183.649 296.1 185.284 296.054 186.966 296.054C276.896 296.054 366.825 296.054 456.755 296.054C458.623 296.054 460.492 295.867 462.361 296.24C463.856 296.895 465.444 296.614 466.799 296.661C465.818 296.801 464.603 296.427 463.435 296.895C463.248 297.222 463.295 297.502 463.482 297.829C464.837 298.81 466.332 298.437 467.827 298.437C469.088 298.296 469.929 297.923 469.789 296.334C469.742 295.726 469.462 294.885 470.396 294.512C472.311 286.008 473.292 277.317 474.694 268.719C479.039 241.618 483.243 214.518 487.588 187.417C490.484 171.297 492.867 155.223 490.624 138.776ZM258.256 193.958C249.473 195.454 240.643 195.173 231.767 195.033C229.431 194.986 228.544 195.687 228.217 198.024C226.628 209.845 224.807 221.667 223.171 233.535C222.844 235.731 222.144 236.666 219.668 236.572C211.959 236.385 204.251 236.432 196.543 236.572C194.394 236.619 193.6 236.198 193.974 233.815C198.318 204.191 202.569 174.567 206.821 144.897C208.175 135.411 209.624 125.973 210.745 116.488C211.119 113.31 212.1 112.236 215.463 112.376C223.265 112.703 231.067 112.469 240.316 112.469C250.08 112.703 261.386 111.722 272.504 114.011C284.137 116.441 293.573 122.141 298.012 133.683C301.749 143.402 300.581 153.401 297.311 163.073C291.051 181.763 276.942 190.781 258.256 193.958ZM376.682 180.081C374.206 198.117 371.357 216.06 368.694 234.049C368.414 235.965 367.666 236.712 365.704 236.525C363.742 236.338 361.733 236.479 359.771 236.479C357.996 236.479 356.221 236.479 354.445 236.479C350.381 236.432 349.166 235.451 348.139 231.479C347.952 230.685 347.671 229.89 347.578 229.049C347.391 226.9 346.644 226.993 345.102 228.068C340.103 231.666 335.105 235.217 328.985 236.712C321.37 238.581 313.848 238.955 306.28 236.432C295.302 232.787 292.219 222.461 294.274 212.415C296.703 200.64 305.486 194.659 315.951 190.781C325.995 187.043 336.506 185.735 347.111 185.174C349.12 185.081 350.007 184.613 350.241 182.464C350.568 179.52 350.708 176.67 350.101 173.773C349.213 169.614 346.644 167.278 342.346 166.998C336.646 166.624 331.18 167.559 326.088 170.409C324.733 171.156 323.285 171.764 321.837 172.278C314.876 174.801 311.513 173.399 308.336 166.671C305.206 160.036 305.206 160.036 311.653 156.251C323.192 149.382 335.618 145.691 349.073 146.345C367.76 147.373 379.252 161.438 376.682 180.081ZM466.612 170.362C450.168 199.379 433.583 228.348 417.279 257.458C414.289 262.832 410.505 265.402 404.292 264.934C399.527 264.607 394.715 264.841 389.95 264.841C389.156 264.841 388.081 265.308 387.614 264.514C387.007 263.533 388.081 262.785 388.502 262.084C394.808 251.805 401.069 241.525 407.469 231.292C408.543 229.563 408.777 228.068 408.169 226.059C400.788 201.294 393.5 176.483 386.072 151.765C385.232 148.915 385.839 148.401 388.548 148.448C395.089 148.588 401.676 148.495 408.216 148.495C412.654 148.495 414.57 149.99 415.597 154.335C418.354 166.063 421.017 177.791 423.726 189.52C424.567 193.071 425.408 196.575 426.342 200.5C427.977 197.276 429.519 194.379 431.014 191.389C437.087 179.1 443.16 166.811 449.14 154.475C451.149 150.317 454.139 148.168 458.95 148.401C465.397 148.681 471.844 148.448 478.945 148.448C474.694 156.111 470.63 163.26 466.612 170.362Z" fill="#38CFD2"/>
<path d="M386.26 48.0827C385.793 47.8958 384.952 48.036 384.018 48.0827C384.952 48.0827 385.886 48.1295 386.26 48.0827Z" fill="#38CFD2"/>
<path d="M298.059 133.682C293.621 122.141 284.184 116.487 272.552 114.011C261.433 111.674 250.174 112.656 240.364 112.469C231.114 112.469 223.312 112.656 215.51 112.375C212.147 112.235 211.166 113.31 210.792 116.487C209.671 125.972 208.223 135.458 206.868 144.896C202.617 174.52 198.365 204.191 194.021 233.815C193.694 236.151 194.441 236.571 196.59 236.571C204.298 236.478 212.007 236.385 219.715 236.571C222.191 236.618 222.892 235.73 223.219 233.534C224.854 221.713 226.676 209.891 228.264 198.023C228.591 195.687 229.432 194.986 231.815 195.033C240.644 195.126 249.52 195.406 258.303 193.958C276.99 190.827 291.098 181.763 297.405 163.072C300.628 153.4 301.749 143.401 298.059 133.682Z" fill="#040613"/>
<path d="M349.073 146.438C335.665 145.783 323.192 149.475 311.653 156.343C305.206 160.175 305.206 160.128 308.336 166.763C311.512 173.492 314.876 174.893 321.837 172.37C323.285 171.856 324.78 171.249 326.088 170.501C331.133 167.651 336.599 166.67 342.345 167.09C346.643 167.371 349.213 169.707 350.1 173.865C350.708 176.762 350.614 179.613 350.241 182.556C350.007 184.706 349.119 185.173 347.111 185.266C336.506 185.827 325.995 187.135 315.95 190.874C305.439 194.752 296.703 200.733 294.274 212.507C292.218 222.553 295.302 232.88 306.28 236.524C313.848 239.047 321.416 238.627 328.984 236.805C335.104 235.309 340.103 231.758 345.102 228.16C346.643 227.039 347.438 226.992 347.578 229.142C347.624 229.983 347.905 230.777 348.138 231.571C349.166 235.59 350.381 236.524 354.445 236.571C356.22 236.618 357.995 236.571 359.771 236.571C361.733 236.571 363.742 236.431 365.704 236.618C367.713 236.805 368.413 236.01 368.694 234.141C371.31 216.152 374.206 198.163 376.682 180.173C379.252 161.437 367.759 147.372 349.073 146.438Z" fill="#040613"/>
<path d="M459.044 148.402C454.185 148.215 451.242 150.364 449.234 154.476C443.207 166.812 437.181 179.1 431.107 191.389C429.659 194.333 428.118 197.277 426.436 200.501C425.501 196.576 424.614 193.071 423.82 189.52C421.11 177.792 418.401 166.064 415.691 154.336C414.663 149.944 412.748 148.495 408.31 148.495C401.769 148.495 395.182 148.589 388.642 148.449C385.932 148.402 385.325 148.916 386.166 151.766C393.594 176.531 400.882 201.295 408.263 226.06C408.87 228.069 408.637 229.564 407.562 231.293C401.162 241.526 394.902 251.805 388.595 262.085C388.128 262.832 387.1 263.58 387.708 264.515C388.222 265.356 389.249 264.842 390.043 264.842C394.809 264.888 399.62 264.608 404.386 264.935C410.552 265.402 414.336 262.786 417.373 257.459C433.677 228.349 450.215 199.379 466.706 170.363C470.723 163.261 474.788 156.112 479.085 148.449C471.938 148.449 465.444 148.635 459.044 148.402Z" fill="#040613"/>
<path d="M463.717 295.772C464.931 297.034 466.66 295.912 468.715 297.034C466.566 297.034 465.118 297.034 463.717 297.034C462.222 298.295 460.353 297.875 458.671 297.875C417.794 297.921 376.917 297.875 336.087 297.875C287.314 297.875 238.542 297.875 189.77 297.875C187.154 297.875 184.585 297.828 182.109 296.94C181.221 296.193 179.819 296.66 178.979 295.679C180.053 295.118 181.221 295.398 182.342 295.398C275.028 295.398 367.714 295.398 460.4 295.398C461.474 295.445 462.642 295.165 463.717 295.772Z" fill="#3BCED8"/>
<path d="M463.716 295.771C368.788 295.771 273.86 295.771 178.932 295.771C179.866 294.789 181.081 295.163 182.155 295.163C274.934 295.163 367.667 295.163 460.446 295.163C461.614 295.163 462.829 294.743 463.716 295.771Z" fill="#37D3CD"/>
<path d="M468.714 297.639C467.173 298.854 465.398 298.013 463.716 298.247C462.641 298.808 461.473 298.527 460.352 298.527C369.348 298.527 278.344 298.527 187.293 298.527C186.172 298.527 185.004 298.808 183.93 298.247C183.93 298.06 183.93 297.826 183.93 297.639C185.004 297.079 186.172 297.359 187.293 297.359C278.297 297.359 369.301 297.359 460.352 297.359C461.473 297.359 462.641 297.079 463.716 297.639C465.398 297.639 467.079 297.639 468.714 297.639Z" fill="#43CDD1"/>
<path d="M463.715 297.643C370.469 297.643 277.176 297.643 183.929 297.643C183.228 297.596 182.481 297.783 182.061 297.035C275.961 297.035 369.815 297.035 463.715 297.035C463.715 297.222 463.715 297.409 463.715 297.643Z" fill="#32D1CB"/>
<path d="M183.976 298.25C277.223 298.25 370.516 298.25 463.762 298.25C462.594 299.371 461.193 298.857 459.885 298.857C367.479 298.904 275.12 298.857 182.715 298.857C182.995 298.39 183.462 298.25 183.976 298.25Z" fill="#34CED7"/>
<path d="M153.985 140.877C153.985 141.297 153.985 141.718 153.985 142.139C152.911 143.026 151.603 142.746 150.388 142.746C130.954 142.746 111.473 142.746 92.0388 142.746C90.8242 142.746 89.5161 143.026 88.4416 142.139C88.4416 141.438 88.3482 140.737 89.049 140.27C90.1234 140.877 91.2914 140.55 92.4126 140.55C111.8 140.55 131.234 140.55 150.622 140.597C151.743 140.55 152.911 140.27 153.985 140.877Z" fill="#3BCED8"/>
<path d="M88.3941 142.094C110.258 142.094 132.121 142.094 153.984 142.094C154.218 142.234 154.265 142.374 154.218 142.514C154.124 142.654 154.078 142.701 153.984 142.701C152.91 143.262 151.742 142.982 150.621 142.982C131.233 142.982 111.799 142.982 92.4117 143.028C91.2905 143.028 90.1226 142.748 89.0481 143.309C88.581 142.982 88.1138 142.701 87.6934 142.374C87.9269 142.327 88.1605 142.234 88.3941 142.094Z" fill="#36D2CD"/>
<path d="M89.0488 143.353C90.0766 142.278 91.4314 142.746 92.5993 142.746C113.061 142.699 133.523 142.746 153.985 142.746C153.985 142.933 153.985 143.166 153.985 143.353C132.308 143.353 110.679 143.353 89.0488 143.353Z" fill="#43CDD1"/>
<path d="M153.985 140.876C133.523 140.876 113.061 140.876 92.5993 140.876C91.3847 140.876 90.0766 141.344 89.0488 140.269C109.511 140.269 129.973 140.269 150.435 140.269C151.602 140.269 152.957 139.802 153.985 140.876Z" fill="#36D2CD"/>
<path d="M153.984 142.748C153.984 142.561 153.984 142.328 153.984 142.141C154.779 142.141 155.573 142.141 156.367 142.141C156.367 142.328 156.367 142.468 156.414 142.655C155.573 142.655 154.779 142.701 153.984 142.748Z" fill="#3BCED8"/>
<path d="M836.561 173.539C834.645 161.11 828.198 152.559 815.958 148.821C806.522 145.924 797.038 146.018 787.695 148.821C760.132 156.952 744.389 189.332 754.713 216.2C757.703 224.003 762.608 230.264 770.363 233.581C789.75 241.852 808.297 239.656 825.535 227.554C831.468 223.395 831.328 223.208 827.451 217.227C827.404 217.134 827.357 217.041 827.264 216.947C823.48 209.705 819.369 209.892 813.249 213.256C808.951 215.639 804.373 217.134 799.467 217.882C786.807 219.797 778.165 212.555 777.838 199.752C777.791 197.743 778.258 197.089 780.36 197.136C788.583 197.276 796.805 197.182 805.027 197.182C813.249 197.182 821.471 197.182 829.693 197.182C832.823 197.182 834.645 195.921 835.393 192.697C836.841 186.389 837.588 180.034 836.561 173.539ZM813.576 180.455C813.389 181.996 812.315 181.529 811.474 181.529C806.709 181.576 801.897 181.529 797.132 181.529C792.367 181.529 787.555 181.529 782.79 181.529C782.042 181.529 780.501 182.043 781.108 180.314C784.798 170.128 792.553 162.979 805.12 165.923C811.193 167.325 814.37 174.053 813.576 180.455Z" fill="#040613"/>
<path d="M677.725 165.968C674.315 154.66 664.598 147.278 652.218 146.483C637.969 145.595 624.936 149.52 612.883 156.95C607.464 160.267 607.51 160.314 610.267 166.108C610.827 167.323 611.435 168.538 611.995 169.753C613.163 172.322 615.172 173.397 617.928 173.444C621.899 173.537 625.449 172.136 628.813 170.22C633.625 167.556 638.764 166.669 644.136 167.042C649.275 167.416 651.844 169.893 652.545 174.939C652.872 177.229 652.592 179.471 652.545 181.761C652.498 184.471 651.377 185.078 648.761 185.265C636.708 185.966 624.795 187.415 613.63 192.601C600.783 198.629 594.196 209.282 596.065 221.805C596.812 226.711 598.541 231.15 603.166 234C611.668 239.28 620.778 238.953 629.981 237.037C636.988 235.542 642.875 231.57 648.714 226.851C649.555 229.327 650.303 231.337 650.957 233.393C651.658 235.589 653.012 236.57 655.348 236.476C659.085 236.383 662.87 236.243 666.56 236.523C669.737 236.804 670.671 235.682 671.092 232.598C673.147 216.758 675.483 200.918 677.725 185.078C678.706 178.724 679.641 172.229 677.725 165.968ZM649.555 202.741C649.368 203.442 649.415 204.189 649.228 204.89C648.527 207.74 649.649 211.385 647.36 213.488C643.529 216.992 639.044 219.702 633.625 220.169C632.597 220.263 631.569 220.309 630.495 220.356V220.309C629.888 220.309 629.234 220.356 628.626 220.309C625.963 220.169 623.207 219.889 622.133 217.039C621.058 214.235 621.338 211.291 623.16 208.722C625.029 206.058 627.785 204.703 630.822 203.722C636.334 201.993 642.034 201.666 647.687 200.872C649.182 200.591 650.116 200.872 649.555 202.741Z" fill="#040613"/>
<path d="M241.905 173.353C240.364 173.353 238.775 173.353 237.234 173.353C232.048 173.353 232.095 173.353 232.795 168.353C234.244 158.073 235.785 147.794 237.093 137.514C237.42 134.898 238.355 133.87 241.158 134.057C246.857 134.384 252.603 133.87 258.256 134.664C265.684 135.739 270.683 140.785 271.01 148.074C271.197 152.373 270.589 156.625 268.814 160.55C264.983 168.96 258.256 173.072 249.1 173.353C246.67 173.399 244.288 173.353 241.905 173.353Z" fill="#38CFD2"/>
<path d="M329.173 220.263C328.379 220.263 328.052 220.263 327.724 220.263C322.726 220.216 320.624 219.141 319.829 216.291C318.802 212.693 320.577 208.114 323.707 205.871C326.136 204.142 328.986 203.442 331.836 202.834C336.32 201.9 340.852 201.432 345.383 200.778C346.878 200.545 347.766 200.732 347.392 202.694C346.878 205.544 346.598 208.441 346.224 211.338C346.084 212.413 345.804 213.301 344.869 214.002C340.058 217.599 334.966 220.496 329.173 220.263Z" fill="#38CFD2"/>
</svg>
