<svg width="923" height="164" viewBox="0 0 923 164" fill="none" xmlns="http://www.w3.org/2000/svg">
<path d="M131.362 15.6484H7.69097C3.53785 15.6484 0 19.177 0 23.4726V37.4333C0 41.7289 3.53785 45.2574 7.69097 45.2574H131.362C135.669 45.2574 139.053 41.7289 139.207 37.4333V23.626C139.207 19.177 135.669 15.6484 131.362 15.6484V15.6484ZM131.362 93.1227H7.69097C5.69132 93.1227 3.69166 93.8898 2.30729 95.4239C0.769097 96.9581 0 98.799 0 100.947V114.908C0 119.203 3.53785 122.732 7.69097 122.732H131.362C135.669 122.732 139.053 119.357 139.207 114.908V100.947C139.053 96.4978 135.669 93.1227 131.362 93.1227V93.1227ZM77.3711 131.783H7.69097C5.69132 131.783 3.69166 132.55 2.30729 134.084C0.922916 135.618 0 137.459 0 139.607V153.568C0 157.864 3.53785 161.392 7.69097 161.392H77.2173C81.5243 161.392 84.9083 157.864 84.9083 153.721V139.761C85.0621 135.158 81.6781 131.63 77.3711 131.783V131.783ZM139.207 54.3089H7.69097C5.69132 54.3089 3.69166 55.0759 2.30729 56.6101C0.922916 58.1442 0 59.9852 0 62.133V76.0937C0 80.3893 3.53785 83.9179 7.69097 83.9179H139.053C143.36 83.9179 146.744 80.3893 146.744 76.0937V62.133C146.897 57.8374 143.36 54.4623 139.207 54.3089V54.3089Z" fill="#00C3F7"/>
<path d="M283.028 46.9448C279.182 42.956 274.722 39.8878 269.646 37.74C264.57 35.5922 259.186 34.5182 253.648 34.5182C248.265 34.3648 243.035 35.5921 238.113 37.8934C234.882 39.4275 231.96 41.5753 229.499 44.1834V41.7287C229.499 40.5014 229.037 39.2741 228.268 38.3536C227.499 37.4331 226.269 36.8195 224.884 36.8195H207.81C206.58 36.8195 205.349 37.2797 204.58 38.3536C203.657 39.2741 203.196 40.5014 203.349 41.7287V156.483C203.349 157.71 203.811 158.937 204.58 159.858C205.503 160.778 206.58 161.239 207.81 161.239H225.346C226.576 161.239 227.653 160.778 228.576 159.858C229.499 159.091 230.114 157.863 229.96 156.483V117.209C232.421 119.97 235.652 121.964 239.189 123.192C243.804 124.879 248.572 125.8 253.495 125.8C259.032 125.8 264.57 124.726 269.646 122.578C274.722 120.43 279.336 117.362 283.182 113.373C287.181 109.231 290.257 104.322 292.411 98.9523C294.872 92.9691 295.949 86.5257 295.795 80.0823C295.949 73.6389 294.718 67.1955 292.411 61.0589C290.104 55.9962 287.027 51.087 283.028 46.9448V46.9448ZM267.338 88.5201C266.415 90.9748 265.031 93.1225 263.185 95.1169C259.647 98.9523 254.571 101.1 249.341 101.1C246.727 101.1 244.112 100.64 241.65 99.4125C239.343 98.3386 237.19 96.9579 235.344 95.1169C233.498 93.276 232.114 90.9748 231.191 88.5201C229.191 83.304 229.191 77.6277 231.191 72.4116C232.114 69.957 233.652 67.8092 235.344 65.9682C237.19 64.1272 239.343 62.5931 241.65 61.5192C244.112 60.4453 246.727 59.8316 249.341 59.8316C252.11 59.8316 254.571 60.2919 257.186 61.5192C259.494 62.5931 261.647 63.9738 263.339 65.8148C265.185 67.6557 266.415 69.8036 267.492 72.2582C269.338 77.6277 269.184 83.304 267.338 88.5201ZM389.779 36.9729H372.397C371.166 36.9729 369.936 37.4331 369.167 38.3536C368.244 39.2741 367.782 40.5014 367.782 41.8821V44.0299C365.629 41.4219 362.86 39.4275 359.938 38.0468C355.169 35.7456 349.939 34.6717 344.709 34.6717C333.481 34.6717 322.867 39.1207 314.869 46.9448C310.715 51.087 307.485 55.9963 305.332 61.3658C302.871 67.3489 301.64 73.7923 301.794 80.3891C301.64 86.8325 302.871 93.2759 305.332 99.4125C307.639 104.782 310.715 109.691 314.869 113.834C322.713 121.811 333.481 126.26 344.556 126.26C349.786 126.413 355.015 125.186 359.784 122.885C362.706 121.351 365.629 119.356 367.782 116.902V119.203C367.782 120.43 368.244 121.658 369.167 122.578C370.09 123.345 371.166 123.959 372.397 123.959H389.779C391.009 123.959 392.24 123.499 393.009 122.578C393.932 121.658 394.393 120.43 394.393 119.203V42.0355C394.393 40.8082 393.932 39.5809 393.163 38.6604C392.24 37.5865 391.009 36.9729 389.779 36.9729V36.9729ZM366.244 88.5201C365.321 90.9748 363.937 93.1225 362.091 95.1169C360.245 96.9579 358.246 98.492 355.938 99.5659C351.016 101.867 345.325 101.867 340.403 99.5659C338.095 98.492 335.942 96.9579 334.096 95.1169C332.25 93.276 330.866 90.9748 329.943 88.5201C328.097 83.304 328.097 77.6277 329.943 72.4116C330.866 69.957 332.25 67.9626 334.096 65.9682C335.942 64.1272 337.941 62.5931 340.403 61.5192C345.325 59.218 351.016 59.218 355.784 61.5192C358.092 62.5931 360.245 63.9738 361.937 65.8148C363.629 67.6557 365.014 69.8036 366.09 72.2582C368.244 77.6277 368.244 83.304 366.244 88.5201V88.5201ZM562.979 78.0879C560.518 75.9401 557.595 74.0992 554.519 72.8718C551.289 71.4911 547.751 70.5706 544.367 69.8036L531.139 67.1955C527.755 66.5818 525.293 65.6614 524.063 64.5875C522.986 63.8204 522.217 62.5931 522.217 61.2123C522.217 59.8316 522.986 58.6043 524.678 57.5304C526.985 56.3031 529.447 55.6894 532.061 55.8428C535.445 55.8428 538.83 56.6099 541.906 57.8372C544.982 59.218 547.905 60.5987 550.674 62.4397C554.519 64.8943 557.903 64.4341 560.21 61.6726L566.517 54.4621C567.748 53.2348 568.363 51.7007 568.517 50.0131C568.363 48.1721 567.44 46.638 566.056 45.4107C563.441 43.1095 559.134 40.6548 553.442 38.2002C547.751 35.7455 540.522 34.5182 532.061 34.5182C526.832 34.3648 521.756 35.1319 516.833 36.666C512.68 38.0468 508.681 40.0412 505.143 42.6492C501.913 45.1038 499.452 48.1721 497.606 51.8541C495.914 55.3826 494.991 59.218 494.991 63.0533C494.991 70.2638 497.144 76.0935 501.451 80.3891C505.758 84.6847 511.45 87.5996 518.525 88.9804L532.369 92.0486C535.292 92.5089 538.368 93.4294 541.137 94.8101C542.675 95.4237 543.598 96.9579 543.598 98.6454C543.598 100.18 542.829 101.56 541.137 102.788C539.445 104.015 536.676 104.782 532.984 104.782C529.293 104.782 525.447 104.015 522.063 102.327C518.833 100.793 515.91 98.7989 513.142 96.4977C511.911 95.5772 510.681 94.8101 509.142 94.1964C507.604 93.7362 505.605 94.1964 503.605 95.884L496.068 101.56C493.914 103.094 492.838 105.703 493.453 108.157C493.914 110.765 495.914 113.22 499.759 116.135C509.296 122.578 520.679 125.953 532.215 125.646C537.599 125.646 542.983 125.033 548.059 123.499C552.519 122.118 556.673 120.123 560.364 117.362C563.748 114.907 566.517 111.686 568.363 107.85C570.209 104.168 571.132 100.18 571.132 96.0374C571.285 92.3555 570.516 88.6735 568.978 85.2984C567.44 82.8438 565.44 80.2357 562.979 78.0879V78.0879ZM638.966 99.1057C638.197 97.725 636.812 96.8045 635.12 96.4977C633.582 96.4977 631.89 96.9579 630.66 97.8784C628.506 99.2591 626.045 100.026 623.584 100.18C622.815 100.18 621.892 100.026 621.123 99.8728C620.2 99.7194 619.431 99.2591 618.816 98.6454C618.046 97.8784 617.431 96.9579 616.97 96.0374C616.354 94.5033 616.047 92.9691 616.201 91.435V59.985H638.658C640.043 59.985 641.273 59.3714 642.196 58.4509C643.119 57.5304 643.734 56.4565 643.734 55.0758V41.7287C643.734 40.348 643.273 39.1207 642.196 38.3536C641.273 37.4331 640.043 36.9729 638.812 36.9729H616.201V15.4949C616.201 14.2675 615.739 12.8868 614.816 12.1197C613.893 11.3527 612.817 10.8924 611.586 10.739H594.051C592.82 10.739 591.59 11.1992 590.667 12.1197C589.744 13.0402 589.128 14.2675 589.128 15.4949V36.9729H579.13C577.9 36.9729 576.669 37.4331 575.746 38.507C574.977 39.4275 574.516 40.6548 574.516 41.8821V55.2292C574.516 56.4565 574.977 57.6838 575.746 58.6043C576.515 59.6782 577.746 60.1385 579.13 60.1385H589.128V97.5716C588.975 102.021 589.898 106.47 591.743 110.458C593.435 113.833 595.589 116.748 598.511 119.203C601.28 121.504 604.51 123.192 608.048 124.112C611.586 125.186 615.278 125.8 618.969 125.8C623.738 125.8 628.66 125.033 633.275 123.499C637.582 122.118 641.427 119.663 644.503 116.442C646.503 114.447 646.657 111.225 645.119 108.924L638.966 99.1057ZM734.026 36.9729H716.645C715.414 36.9729 714.337 37.4331 713.415 38.3536C712.492 39.2741 712.03 40.5014 712.03 41.8821V44.0299C709.877 41.4219 707.262 39.4275 704.185 38.0468C699.417 35.7456 694.187 34.6717 688.957 34.6717C677.728 34.6717 667.115 39.1207 659.116 46.9448C654.963 51.087 651.733 55.9963 649.579 61.3658C647.118 67.3489 645.888 73.7923 646.042 80.2357C645.888 86.6791 647.118 93.1226 649.579 99.2591C651.733 104.629 655.117 109.538 659.116 113.68C666.961 121.658 677.575 126.107 688.803 126.107C694.033 126.26 699.263 125.033 704.032 122.885C707.108 121.351 709.877 119.356 712.03 116.902V119.203C712.03 120.43 712.492 121.658 713.415 122.425C714.337 123.345 715.414 123.805 716.645 123.805H734.026C736.641 123.805 738.641 121.811 738.641 119.203V42.0355C738.641 40.8082 738.179 39.5809 737.41 38.6604C736.641 37.5865 735.411 36.9729 734.026 36.9729V36.9729ZM710.646 88.5201C709.723 90.9748 708.338 93.1225 706.493 95.1169C704.647 96.9579 702.647 98.492 700.34 99.5659C697.879 100.64 695.264 101.254 692.495 101.254C689.726 101.254 687.265 100.64 684.804 99.5659C682.497 98.492 680.343 96.9579 678.497 95.1169C676.652 93.276 675.267 90.9748 674.498 88.5201C672.652 83.304 672.652 77.6277 674.498 72.4116C675.421 69.957 676.805 67.8092 678.497 65.9682C680.343 64.1272 682.497 62.5931 684.804 61.5192C687.265 60.4453 689.88 59.8316 692.495 59.8316C695.11 59.8316 697.725 60.2919 700.34 61.5192C702.647 62.5931 704.647 63.9738 706.493 65.8148C708.338 67.6557 709.723 69.8036 710.646 72.2582C712.645 77.4743 712.645 83.304 710.646 88.5201V88.5201ZM829.394 97.8784L819.396 90.2077C817.55 88.6735 815.704 88.2133 814.166 88.8269C812.782 89.4406 811.551 90.3611 810.475 91.435C808.321 94.043 805.706 96.3443 802.937 98.3386C799.861 100.026 796.631 100.947 793.247 100.64C789.247 100.64 785.556 99.5659 782.326 97.2647C779.095 94.9635 776.634 91.8952 775.404 88.0599C774.481 85.4518 774.019 82.8438 774.019 80.2357C774.019 77.4743 774.481 74.8662 775.404 72.1048C776.327 69.6501 777.557 67.5023 779.403 65.6613C781.249 63.8204 783.248 62.2862 785.556 61.3658C788.017 60.2919 790.632 59.6782 793.401 59.6782C796.785 59.5248 800.169 60.4453 803.091 62.1328C806.014 63.9738 808.475 66.275 810.628 69.0365C811.551 70.1104 812.782 71.0309 814.166 71.6445C815.704 72.2582 817.55 71.7979 819.396 70.2638L829.394 62.7465C830.625 61.9794 831.548 60.7521 832.009 59.3714C832.625 57.8372 832.471 56.1497 831.548 54.769C827.702 48.7858 822.472 43.8765 816.166 40.348C809.552 36.666 801.707 34.6717 792.939 34.6717C786.786 34.6717 780.634 35.899 774.788 38.2002C769.251 40.5014 764.329 43.7231 760.176 47.8653C756.022 52.0075 752.638 56.9168 750.331 62.4397C745.563 73.9458 745.563 86.8326 750.331 98.3386C752.638 103.708 755.869 108.771 760.176 112.76C768.943 121.351 780.634 125.953 792.939 125.953C801.707 125.953 809.552 123.959 816.166 120.277C822.472 116.748 827.856 111.839 831.702 105.703C832.471 104.322 832.624 102.634 832.163 101.254C831.548 100.026 830.625 98.7989 829.394 97.8784V97.8784ZM921.994 115.828L894.46 75.6333L917.994 44.6436C919.071 43.2629 919.532 41.2685 918.917 39.5809C918.456 38.3536 917.379 37.1263 914.456 37.1263H895.844C894.768 37.1263 893.691 37.4331 892.768 37.8934C891.537 38.507 890.614 39.4275 889.999 40.5014L871.233 66.7353H866.772V4.75586C866.772 3.52854 866.311 2.30121 865.388 1.38072C864.465 0.460234 863.388 0 862.158 0H844.776C843.546 0 842.315 0.460234 841.392 1.38072C840.469 2.30121 840.008 3.37513 840.008 4.75586V119.05C840.008 120.43 840.469 121.504 841.392 122.425C842.315 123.345 843.546 123.805 844.776 123.805H862.158C863.388 123.805 864.619 123.345 865.388 122.425C866.311 121.504 866.772 120.277 866.772 119.05V88.8269H871.695L892.153 120.123C893.383 122.425 895.69 123.805 898.152 123.805H917.687C920.609 123.805 921.84 122.425 922.455 121.197C923.224 119.356 923.07 117.362 921.994 115.828V115.828ZM488.531 36.9729H468.996C467.457 36.9729 466.073 37.4331 464.996 38.507C464.073 39.4275 463.458 40.5014 463.15 41.7287L448.691 95.1169H445.154L429.772 41.7287C429.464 40.6548 429.002 39.5809 428.233 38.507C427.31 37.4331 426.08 36.8195 424.696 36.8195H404.853C402.238 36.8195 400.7 37.5865 399.931 39.4275C399.469 40.9616 399.469 42.6492 399.931 44.1834L424.542 119.356C425.003 120.43 425.465 121.658 426.388 122.425C427.31 123.345 428.695 123.805 430.079 123.805H440.539L439.616 126.26L437.309 133.164C436.54 135.311 435.309 137.152 433.463 138.533C431.771 139.761 429.772 140.528 427.618 140.374C425.772 140.374 424.08 139.914 422.388 139.3C420.696 138.533 419.158 137.613 417.774 136.539C416.543 135.618 415.005 135.158 413.313 135.158H413.159C411.313 135.312 409.621 136.232 408.698 137.92L402.546 146.971C400.084 150.96 401.469 153.414 403.007 154.795C406.391 157.863 410.237 160.165 414.543 161.545C419.312 163.233 424.234 164 429.156 164C438.078 164 445.461 161.545 451.152 156.79C456.998 151.573 461.458 144.823 463.612 137.152L492.222 44.1834C492.838 42.4958 492.991 40.8082 492.376 39.2741C492.222 38.2002 491.145 36.9729 488.531 36.9729Z" fill="#011B33"/>
</svg>
