<svg width="924" height="290" viewBox="0 0 924 290" fill="none" xmlns="http://www.w3.org/2000/svg">
<path d="M919.887 85.329C911.509 61.3744 888.676 44.1728 861.858 44.1728H861.297C843.863 44.1728 828.152 51.4288 816.968 63.077C805.764 51.4288 790.053 44.1728 772.638 44.1728H772.077C756.752 44.1728 742.744 49.7839 731.985 59.0719V54.3505C731.618 49.6484 727.748 45.9532 722.968 45.9532H681.832C676.801 45.9532 672.738 50.0164 672.738 55.0663V278.455C672.738 283.505 676.801 287.568 681.832 287.568H722.968C727.554 287.568 731.327 284.144 731.927 279.712L731.908 119.345C731.904 118.809 731.929 118.273 731.985 117.739C732.643 110.58 737.887 104.698 746.169 103.962H753.753C757.216 104.272 760.138 105.491 762.441 107.329C766.02 110.173 768.013 114.546 768.013 119.345L768.168 278.919C768.168 283.969 772.25 288.052 777.262 288.052H818.398C823.256 288.052 827.203 284.182 827.435 279.364L827.416 119.132C827.396 113.869 829.835 109.109 834.111 106.284C836.22 104.929 838.755 104.02 841.676 103.749H849.261C858.162 104.523 863.541 111.276 863.522 119.132L863.676 278.494C863.676 283.544 867.759 287.607 872.77 287.607H913.907C918.919 287.607 923.001 283.544 923.001 278.494V107.097C923.001 95.4096 921.686 90.4371 919.886 85.329H919.887ZM641.399 46.5352H617.871V8.30078C617.87 3.71489 614.155 0 609.569 0C609.028 0 608.505 0.076788 608.002 0.17387C581.919 7.33325 587.143 43.4587 539.525 46.5352H534.9C534.204 46.5352 533.546 46.6317 532.908 46.7672H532.869L532.908 46.7864C528.844 47.6963 525.787 51.2949 525.787 55.6296V96.766C525.787 101.778 529.869 105.86 534.9 105.86H559.726L559.687 280.295C559.687 285.267 563.712 289.292 568.684 289.292H609.357C614.31 289.292 618.335 285.267 618.335 280.295L618.354 105.86H641.399C646.411 105.86 650.493 101.778 650.493 96.766V55.6296C650.493 50.6181 646.411 46.5357 641.399 46.5357" fill="#00BAF2"/>
<path d="M493.393 46.5333H452.257C447.245 46.5333 443.181 50.6162 443.181 55.6272V140.687C443.085 145.95 438.828 150.169 433.546 150.169H416.325C410.984 150.169 406.669 145.873 406.669 140.532L406.515 55.6278C406.515 50.6162 402.432 46.5339 397.421 46.5339H356.284C351.253 46.5339 347.19 50.6162 347.19 55.6278V148.853C347.19 184.262 372.44 209.513 407.869 209.513C407.869 209.513 434.455 209.513 435.268 209.668C440.067 210.21 443.801 214.234 443.801 219.187C443.801 224.083 440.144 228.088 435.403 228.688C435.171 228.727 434.959 228.785 434.707 228.824L374.549 229.036C369.519 229.036 365.456 233.119 365.456 238.13V279.248C365.456 284.279 369.519 288.342 374.549 288.342H441.808C477.256 288.342 502.487 263.111 502.487 227.682V55.6278C502.487 50.6162 498.424 46.5339 493.393 46.5339V46.5333ZM95.2182 121.909V147.296C95.2182 152.616 90.9033 156.951 85.5824 156.951L59.48 156.97V106.101H85.5824C90.9033 106.101 95.2182 110.396 95.2182 115.736V121.909ZM98.8366 46.5234H8.92002C3.98585 46.5234 0 50.529 0 55.4435V95.7484C0 95.8257 0.019197 95.9031 0.019197 95.9804C0.019197 96.174 0 96.3676 0 96.5415V278.967C0 283.921 3.71489 287.965 8.32053 288.081H50.2303C55.2418 288.081 59.3242 284.018 59.3242 278.987L59.4794 216.469H98.836C131.768 216.469 154.717 193.617 154.717 160.549V102.521C154.717 69.4529 131.768 46.524 98.836 46.524L98.8366 46.5234ZM265.9 218.485V224.909C265.9 225.432 265.824 225.935 265.746 226.419C265.65 226.872 265.52 227.318 265.359 227.754C264.082 231.353 260.483 233.965 256.206 233.965H239.083C233.742 233.965 229.389 229.901 229.389 224.909V217.15C229.389 217.054 229.369 216.957 229.369 216.86L229.389 196.215V189.751L229.408 189.694C229.427 184.72 233.742 180.696 239.083 180.696H256.206C261.566 180.696 265.901 184.74 265.901 189.752L265.9 218.485ZM259.361 46.7598H202.28C197.231 46.7598 193.148 50.591 193.148 55.2926V71.2947C193.148 71.3912 193.167 71.5075 193.167 71.604C193.167 71.7203 193.148 71.8361 193.148 71.9523V93.8753C193.148 98.8484 197.482 102.912 202.823 102.912H257.175C261.47 103.589 264.876 106.724 265.36 111.619V116.92C264.876 121.584 261.509 124.989 257.407 125.376H230.492C194.696 125.376 169.194 149.157 169.194 182.553V230.385C169.194 263.589 191.117 287.214 226.661 287.214H301.253C314.642 287.214 325.497 277.075 325.497 264.595V108.503C325.497 70.6563 305.993 46.7598 259.361 46.7598H259.361Z" fill="#1F336B"/>
</svg>
