<svg width="923" height="194" viewBox="0 0 923 194" fill="none" xmlns="http://www.w3.org/2000/svg">
<path d="M58.3375 50.0805L50.8965 77.6719L93.4877 49.9235L65.6321 154.625L93.9223 154.649L135.073 0" fill="#3395FF"/>
<path d="M12.081 112.005L0 157.077H59.7865L84.2505 65.3887L12.081 112.005ZM219.758 72.3239C218.296 77.758 215.481 81.7496 211.282 84.2985C207.092 86.8426 201.212 88.1195 193.623 88.1195H169.509L177.976 56.5381H202.089C209.669 56.5381 214.877 57.8052 217.702 60.3883C220.527 62.9713 221.209 66.919 219.758 72.3775V72.3239ZM244.724 71.6952C247.793 60.2908 246.526 51.5182 240.914 45.3773C235.312 39.2853 225.482 36.2148 211.452 36.2148H157.638L125.243 157.131H151.388L164.443 108.394H181.59C185.439 108.394 188.469 109.028 190.68 110.246C192.897 111.513 194.198 113.706 194.597 116.874L199.264 157.131H227.274L222.734 119.603C221.809 111.221 217.975 106.298 211.238 104.836C219.826 102.351 227.021 98.208 232.818 92.457C238.574 86.7482 242.687 79.593 244.724 71.7439V71.6952ZM308.276 113.852C306.083 122.04 302.722 128.23 298.177 132.567C293.627 136.905 288.191 139.049 281.848 139.049C275.389 139.049 271.01 136.954 268.696 132.714C266.377 128.473 266.299 122.333 268.452 114.291C270.605 106.25 274.04 99.9625 278.765 95.43C283.49 90.8975 289.014 88.6312 295.357 88.6312C301.689 88.6312 306.025 90.8244 308.217 95.1765C310.458 99.5482 310.507 105.801 308.315 113.94L308.276 113.852ZM319.733 71.0616L316.46 83.2945C315.047 78.9082 312.304 75.3992 308.251 72.7674C304.189 70.1844 299.161 68.8685 293.165 68.8685C285.809 68.8685 278.745 70.7692 271.974 74.5707C265.203 78.3721 259.26 83.7332 254.194 90.6538C249.127 97.5744 245.425 105.421 243.038 114.242C240.7 123.112 240.213 130.862 241.625 137.587C243.087 144.362 246.156 149.528 250.881 153.134C255.655 156.79 261.744 158.593 269.197 158.593C275.12 158.623 280.976 157.341 286.345 154.84C291.653 152.445 296.375 148.918 300.179 144.508L296.769 157.257H322.052L345.137 71.1055H319.806L319.733 71.0616ZM435.989 71.0616H362.465L357.326 90.2639H400.106L343.549 139.147L338.717 157.179H414.613L419.752 137.977H373.913L431.336 88.3632L435.989 71.0616ZM500.705 113.706C498.43 122.186 495.054 128.561 490.597 132.714C486.139 136.905 480.742 139.001 474.404 139.001C461.154 139.001 456.799 130.569 461.32 113.706C463.561 105.324 466.951 99.0219 471.481 94.7769C476.012 90.5173 481.502 88.3924 487.956 88.3924C494.289 88.3924 498.566 90.5027 500.768 94.7525C502.97 98.9926 502.951 105.314 500.705 113.697V113.706ZM515.504 74.3026C509.683 70.6766 502.254 68.8636 493.193 68.8636C484.02 68.8636 475.53 70.6668 467.716 74.2734C459.935 77.8573 453.096 83.2073 447.743 89.8984C442.239 96.6728 438.278 104.617 435.847 113.682C433.46 122.713 433.168 130.642 435.019 137.431C436.87 144.206 440.767 149.421 446.613 153.027C452.507 156.663 460.009 158.471 469.216 158.471C478.277 158.471 486.705 156.648 494.45 153.022C502.196 149.377 508.821 144.201 514.325 137.378C519.83 130.584 523.776 122.659 526.211 113.594C528.647 104.529 528.939 96.6143 527.088 89.8106C525.237 83.0362 521.389 77.8214 515.592 74.1905L515.504 74.3026ZM605.761 94.0751L612.24 70.6327C610.048 69.5118 607.174 68.9269 603.569 68.9269C597.772 68.9269 592.219 70.3598 586.86 73.2645C582.252 75.7306 578.335 79.2104 575.023 83.5675L578.384 70.9446L571.043 70.9739H553.019L529.782 157.092H555.42L567.477 112.074C569.231 105.528 572.387 100.377 576.942 96.7215C581.472 93.0516 587.123 91.2142 593.943 91.2142C598.133 91.2142 602.03 92.1744 605.732 94.0897L605.761 94.0751ZM677.098 114.121C674.905 122.162 671.593 128.303 667.063 132.543C662.532 136.803 657.076 138.928 650.743 138.928C644.411 138.928 640.075 136.783 637.786 132.494C635.447 128.181 635.399 121.967 637.591 113.799C639.783 105.635 643.144 99.3728 647.772 95.0352C652.4 90.6635 657.856 88.4801 664.188 88.4801C670.424 88.4801 674.613 90.722 676.854 95.2545C679.095 99.787 679.144 106.074 676.99 114.116L677.098 114.121ZM694.917 74.4439C690.167 70.6425 684.103 68.7417 676.747 68.7417C670.302 68.7417 664.159 70.2038 658.333 73.1573C652.512 76.1059 647.786 80.1266 644.157 85.2148L644.245 84.6299L648.546 70.9349H623.508L617.126 94.7672L616.931 95.5957L590.626 193.771H616.298L629.548 144.352C630.863 148.748 633.543 152.199 637.635 154.694C641.726 157.179 646.778 158.412 652.784 158.412C660.238 158.412 667.35 156.609 674.097 153.003C680.868 149.386 686.714 144.181 691.682 137.456C696.651 130.73 700.339 122.932 702.692 114.111C705.079 105.275 705.566 97.3941 704.202 90.4978C702.814 83.5918 699.74 78.2454 694.995 74.4634L694.917 74.4439ZM780.074 113.77C777.882 121.909 774.52 128.147 769.99 132.436C765.46 136.754 760.004 138.903 753.671 138.903C747.192 138.903 742.808 136.807 740.518 132.567C738.18 128.327 738.131 122.186 740.274 114.145C742.418 106.103 745.838 99.8163 750.563 95.2838C755.288 90.7513 760.817 88.4899 767.16 88.4899C773.492 88.4899 777.779 90.683 780.02 95.0206C782.261 99.3728 782.276 105.626 780.093 113.784L780.074 113.77ZM791.521 70.9544L788.243 83.1873C786.83 78.7766 784.102 75.2676 780.059 72.6602C775.967 70.0576 770.95 68.7612 764.958 68.7612C757.602 68.7612 750.5 70.662 743.719 74.4634C736.947 78.2649 731.004 83.5967 725.938 90.4978C720.872 97.3989 717.17 105.265 714.783 114.086C712.42 122.942 711.957 130.706 713.37 137.461C714.797 144.186 717.871 149.382 722.625 153.008C727.37 156.614 733.489 158.437 740.942 158.437C746.934 158.437 752.658 157.189 758.089 154.684C763.385 152.278 768.094 148.747 771.89 144.337L768.48 157.097H793.762L816.843 70.9788H791.56L791.521 70.9544ZM922.985 70.9836L923 70.9593H907.46C906.963 70.9593 906.525 70.9836 906.072 70.9934H898.01L893.869 76.7443L892.846 78.1089L892.408 78.7913L859.648 124.448L852.876 70.9836H826.045L839.636 152.228L809.628 193.8H836.372L843.631 183.502C843.835 183.2 844.02 182.947 844.264 182.625L852.74 170.587L852.984 170.246L890.946 116.392L922.951 71.0665L923 71.0372H922.985V70.9836Z" fill="#072654"/>
</svg>
