<svg width="923" height="175" viewBox="0 0 923 175" fill="none" xmlns="http://www.w3.org/2000/svg">
<path d="M212.758 2.77432C269.403 2.77432 326.027 2.52642 382.673 2.8363C458.861 3.24946 535.049 4.13778 611.258 4.79884C692.59 5.50123 773.942 6.14164 855.274 6.86468C864.88 6.94731 874.466 7.52575 884.072 7.62904C908.573 7.87694 923.984 23.0195 922.951 47.7063C922.063 69.1083 917.559 90.1386 913.923 111.251C912.766 117.945 911.114 124.576 910.225 131.311C907.912 148.705 896.591 157.092 880.622 160.997C864.385 164.984 847.796 163.042 831.373 163.352C774.417 164.426 717.442 164.819 660.486 165.562C559.612 166.884 458.737 168.227 357.862 169.653C268.659 170.933 179.436 172.338 90.2329 173.722C76.1645 173.929 62.1168 174.569 48.0485 174.466C22.9279 174.301 5.8021 158.497 4.21141 133.748C2.20755 102.203 0.823437 70.6371 0.0177603 39.0298C-0.601991 14.1984 15.0571 0.52256 37.7399 0.192026C81.3084 -0.427725 124.918 0.625852 168.507 0.915069C183.257 1.01836 198.008 0.935727 212.758 0.935727C212.758 1.53482 212.758 2.15457 212.758 2.77432Z" fill="#295CAA"/>
<path d="M654.928 86.2287C654.928 94.3887 654.784 102.528 654.97 110.688C655.156 118.311 649.64 117.134 644.992 117.34C640.178 117.547 636.129 117.175 636.295 110.544C636.584 98.9955 635.881 87.4268 636.522 75.8995C637.08 65.7356 630.159 67.7601 624.292 67.1403C617.248 66.3966 615.45 69.6193 615.678 76.0441C616.07 87.2409 615.533 98.4584 615.863 109.655C616.111 117.464 611.133 117.361 605.7 117.381C600.163 117.402 595.432 117.278 595.722 109.511C596.135 97.9833 595.432 86.3939 595.949 74.8666C596.383 64.9919 589.297 67.7601 584.091 66.9544C577.522 65.9215 575.807 69.0202 575.972 75.0112C576.303 86.208 575.724 97.4462 576.179 108.622C576.489 116.411 572.398 117.505 565.974 117.443C559.569 117.381 555.624 116.328 556.202 108.457C556.884 98.9955 556.553 89.4514 556.285 79.9485C556.14 74.7013 558.805 68.1939 549.798 66.3553C546.637 65.7149 547.588 60.9841 548.021 58.092C548.662 53.7744 552.752 53.857 555.314 54.7453C565.56 58.2572 575.58 53.1546 585.682 54.58C591.9 55.4477 598.387 52.8447 604.398 57.6375C607.807 60.3644 610.368 53.9603 615.058 54.3115C625.965 55.1585 636.976 54.7453 647.946 54.5181C653.338 54.3941 655.218 56.5219 655.032 61.7485C654.722 69.9292 654.949 78.0893 654.928 86.2287Z" fill="#FDFEFE"/>
<path d="M535.752 86.4608C535.752 94.2903 535.442 102.12 535.835 109.908C536.269 118.047 530.753 117.118 525.588 117.386C519.928 117.676 516.519 116.353 516.767 109.578C517.18 98.0295 516.561 86.4608 516.974 74.9127C517.284 65.9883 511.066 67.6203 505.818 67.1865C499.951 66.7114 495.84 67.5584 496.15 75.0987C496.605 86.2955 495.82 97.5543 496.419 108.751C496.832 116.849 492.39 117.366 486.213 117.448C479.685 117.552 475.843 116.168 476.194 108.441C476.711 97.2444 475.884 85.9856 476.463 74.7888C476.979 64.7282 469.749 67.8269 464.646 66.9799C458.097 65.885 456.321 69.0045 456.486 75.016C456.796 86.2335 456.218 97.4717 456.693 108.669C457.023 116.539 452.85 117.448 446.467 117.469C439.835 117.49 436.2 115.982 436.716 108.317C437.336 99.1863 437.129 89.952 436.757 80.8004C436.53 75.3466 439.856 68.3021 430.209 66.2362C427.399 65.6371 428.391 60.7205 428.845 57.8076C429.568 53.3248 433.762 54.1511 436.282 54.7915C442.707 56.4235 448.822 55.2873 455.185 55.0807C465.039 54.7708 475.471 51.5895 485.119 57.8283C488.651 60.1214 491.213 54.0478 495.902 54.3783C506.831 55.1634 517.841 54.7915 528.811 54.5436C534.347 54.4197 535.959 56.8987 535.814 61.96C535.587 70.1407 535.752 78.3007 535.752 86.4608Z" fill="#FEFEFE"/>
<path d="M157.785 117.364C148.881 117.364 139.957 117.302 131.053 117.385C125.806 117.426 121.715 116.993 121.777 109.886C121.86 102.49 126.549 102.821 131.466 102.821C142.436 102.8 153.405 102.8 164.375 102.8C168.093 102.8 171.254 102.366 171.047 97.4291C170.862 93.0082 168.527 91.6654 164.416 91.7067C153.798 91.8306 143.138 91.3348 132.54 91.872C124.752 92.2645 121.674 90.2606 121.715 81.77C121.881 54.6249 121.529 54.6249 148.902 54.6249C162.268 54.6249 175.634 54.6869 189.02 54.5836C193.338 54.5423 196.292 55.286 196.189 60.6158C196.085 65.6771 193.524 66.958 189.041 66.9166C177.39 66.8134 165.738 66.9166 154.066 66.8753C149.687 66.8547 146.03 66.9166 145.886 73.0522C145.72 79.3323 148.902 80.5098 154.108 80.3652C165.057 80.076 176.026 80.1173 186.996 79.7248C192.78 79.5183 194.619 82.0386 194.99 87.5544C196.974 117.385 197.098 117.364 167.04 117.364C163.962 117.364 160.863 117.364 157.785 117.364Z" fill="#FDFDFE"/>
<path d="M74.5139 54.6258C84.4505 54.6258 94.3872 54.7291 104.324 54.5845C108.765 54.5225 111.492 55.5968 111.348 60.8027C111.203 65.9466 108.373 66.9589 104.014 66.9176C92.3627 66.8143 80.7114 66.9589 69.06 66.8556C64.5565 66.8143 61.0239 67.1861 60.8793 73.1357C60.7347 79.3745 64.0814 80.5108 69.2873 80.3661C79.9057 80.0563 90.5241 80.1389 101.122 79.7051C107.175 79.4572 109.984 81.4817 109.654 87.8445C109.282 94.951 109.241 102.119 109.674 109.226C110.067 115.63 107.237 117.489 101.225 117.427C82.7152 117.221 64.2053 117.365 45.6954 117.345C41.0473 117.345 37.0602 117.283 36.9156 110.527C36.771 103.586 40.3656 102.698 45.8194 102.76C55.0743 102.863 64.3499 103.235 73.5636 102.595C78.0464 102.285 86.1445 106.52 85.9379 97.0581C85.752 88.8774 78.4803 91.9968 73.9974 91.8109C64.4119 91.4184 54.8058 91.4184 45.2203 91.7902C38.8369 92.0381 37.1429 89.5178 36.9983 83.4442C36.2546 54.5845 36.0893 54.6052 65.2796 54.6052C68.3577 54.6258 71.4358 54.6258 74.5139 54.6258Z" fill="#FDFDFE"/>
<path d="M699.015 116.211C690.462 116.211 681.889 115.964 673.336 116.294C667.676 116.521 665.362 114.683 665.486 108.795C665.796 93.198 665.817 77.5596 665.465 61.9625C665.342 55.9509 667.759 54.4635 673.336 54.5462C690.793 54.7941 708.27 54.8147 725.726 54.5462C731.634 54.4635 733.163 56.736 733.37 62.3137C734.278 87.9714 734.444 87.9714 708.972 87.9714C704.179 87.9714 699.366 88.178 694.594 87.9301C688.603 87.5996 686.041 89.6447 686 96.0488C685.959 102.598 688.83 104.829 694.656 103.899C700.833 102.907 708.249 107.556 712.401 97.0818C714.488 91.7932 724.879 93.2393 730.333 95.8216C736.613 98.7964 733.018 106.233 732.956 111.584C732.853 118.67 726.552 115.964 722.648 116.129C714.777 116.459 706.885 116.211 699.015 116.211Z" fill="#FEFEFE"/>
<path d="M385.213 54.6221C394.138 54.6221 403.083 54.8287 411.987 54.5395C417.11 54.3742 419.568 55.9442 419.506 61.3981C419.32 77.7388 419.341 94.0589 419.486 110.4C419.548 115.936 416.635 117.382 411.759 117.362C394.241 117.3 376.723 117.196 359.225 117.424C352.718 117.506 351.024 114.49 351.106 108.664C351.334 93.3566 351.354 78.028 351.086 62.7202C350.982 56.6053 353.048 54.1676 359.432 54.4982C368.026 54.9526 376.64 54.6221 385.213 54.6221Z" fill="#FEFEFE"/>
<path d="M308.611 54.6297C317.164 54.6297 325.737 54.9189 334.29 54.5471C342.367 54.1959 342.057 59.4431 341.706 64.6697C341.355 69.8963 344.247 77.4779 334.455 77.0027C328.361 76.7135 321.606 79.8742 318.631 69.1939C316.833 62.7278 306.504 67.0454 300.038 66.5909C295.411 66.2604 295.018 70.2268 295.039 73.8213C295.06 81.279 295.266 88.7574 294.977 96.215C294.729 102.475 297.497 104.933 303.571 104.272C310.574 103.507 318.672 107.453 322.329 96.0704C323.857 91.319 332.968 94.0252 338.545 94.4797C343.462 94.8722 341.954 99.541 342.037 102.681C342.491 117.328 342.429 117.349 327.989 117.349C313.26 117.369 298.53 117.142 283.821 117.452C276.921 117.596 274.029 115.448 274.257 108.114C274.752 92.8684 274.587 77.5812 274.318 62.3146C274.215 56.6956 275.971 54.2992 281.9 54.5264C290.783 54.8776 299.708 54.6297 308.611 54.6297Z" fill="#FDFDFD"/>
<path d="M206.085 85.1398C206.085 77.3309 206.395 69.5014 206.002 61.6925C205.589 53.3052 211.394 54.5447 216.393 54.648C221.475 54.7719 228.065 52.5408 227.921 61.6512C227.714 72.8687 227.838 84.0655 227.921 95.283C227.941 98.8776 227.115 103.36 232.879 103.484C237.114 103.588 241.245 104.641 243.146 98.1545C245.935 88.569 254.611 94.4567 260.561 93.713C265.973 93.0313 265.416 98.0926 265.56 101.79C266.221 117.346 266.221 117.346 250.025 117.346C238.374 117.346 226.702 117.202 215.051 117.387C208.688 117.491 205.548 115.466 206.002 108.546C206.457 100.799 206.085 92.9693 206.085 85.1398Z" fill="#FCFDFD"/>
<path d="M746.818 90.8768C746.818 85.7948 746.838 80.6922 746.797 75.6103C746.777 71.6232 747.541 67.4709 742.066 65.7149C738.162 64.4548 739.298 60.6536 739.629 57.8028C740.063 53.919 743.574 54.2702 746.053 54.704C762.312 57.5342 778.487 53.4232 794.766 54.3941C802.1 54.828 802.41 58.6291 801.831 63.6697C801.253 68.6691 805.054 76.7258 795.179 76.2713C788.816 75.9821 779.355 81.1467 777.764 68.6071C777.434 66.0661 773.261 66.1901 770.472 66.5826C766.856 67.099 766.547 69.7433 766.567 72.6355C766.588 84.514 766.154 96.3926 766.712 108.23C767.063 115.688 763.365 116.411 757.354 116.349C751.363 116.287 746.26 116.39 746.797 108.189C747.128 102.425 746.839 96.6405 746.818 90.8768Z" fill="#FDFDFE"/>
<path d="M828.685 68.9833C835.75 78.3416 839.221 74.1892 843.559 66.339C833.912 66.339 825.586 66.2771 817.24 66.3597C813.067 66.401 810.051 66.0085 809.989 60.4927C809.927 54.9769 812.737 54.5431 817.013 54.5844C832.796 54.7084 848.579 54.6051 864.362 54.6671C867.337 54.6877 870.993 53.7994 872.254 57.6832C873.369 61.1744 872.15 64.3558 869.506 66.9381C865.354 71.0078 861.553 75.4907 857.028 79.0853C851.017 83.8573 846.926 88.2576 856.966 94.8476C847.711 94.8476 840.336 94.8683 832.961 94.8269C829.243 94.8063 828.602 92.3892 828.644 89.3112C828.726 83.2996 828.685 77.288 828.685 68.9833Z" fill="#FCFDFD"/>
<path d="M824.433 86.7734C825.218 95.3053 825.446 102.515 835.196 98.7346C844.472 108.671 856.433 101.689 866.989 103.507C871.162 104.23 873.166 105.407 872.836 109.787C872.547 113.691 872.381 117.802 867.217 117.823C848.769 117.885 830.321 118.071 811.894 117.307C805.097 117.017 803.238 112.328 807.803 106.667C812.699 100.594 817.802 94.7063 824.433 86.7734Z" fill="#FBFCFD"/>
<path d="M698.643 78.5044C694.222 77.6367 689.367 80.1157 686.599 76.2733C685.008 74.0628 684.946 70.3856 687.074 67.7414C688.747 65.6755 708.063 65.5929 709.881 67.6174C712.194 70.2204 712.07 74.0009 710.562 76.1493C707.567 80.4669 702.258 77.1822 698.643 78.5044Z" fill="#295CAA"/>
<path d="M400.087 86.6131C400.087 104.338 400.087 103.863 382.28 104.483C373.438 104.792 369.265 102.644 370.856 93.3477C371.248 91.034 370.918 88.5963 370.918 86.2206C370.918 66.5125 374.801 63.5583 395.047 67.1529C399.075 67.8759 400.129 69.8798 400.087 73.3504C400.046 77.7713 400.087 82.1922 400.087 86.6131Z" fill="#295CAA"/>
</svg>
