<svg width="924" height="385" viewBox="0 0 924 385" fill="none" xmlns="http://www.w3.org/2000/svg">
<path fill-rule="evenodd" clip-rule="evenodd" d="M923.077 198.463C923.077 132.822 891.282 81.0273 830.513 81.0273C769.487 81.0273 732.564 132.822 732.564 197.95C732.564 275.13 776.154 314.104 838.718 314.104C869.231 314.104 892.308 307.181 909.744 297.438V246.156C892.308 254.874 872.308 260.258 846.923 260.258C822.052 260.258 800 251.54 797.18 221.284H922.564C922.564 217.95 923.077 204.617 923.077 198.463V198.463ZM796.411 174.104C796.411 145.13 814.103 133.079 830.257 133.079C845.898 133.079 862.564 145.13 862.564 174.104H796.411Z" fill="#32325D"/>
<path fill-rule="evenodd" clip-rule="evenodd" d="M633.59 81.0273C608.462 81.0273 592.308 92.8222 583.333 101.027L580 85.1299H523.59V384.104L587.692 370.515L587.949 297.95C597.18 304.617 610.769 314.104 633.333 314.104C679.231 314.104 721.026 277.181 721.026 195.899C720.769 121.54 678.462 81.0273 633.59 81.0273V81.0273ZM618.205 257.694C603.077 257.694 594.103 252.309 587.949 245.643L587.692 150.515C594.359 143.079 603.59 137.95 618.205 137.95C641.539 137.95 657.692 164.104 657.692 197.694C657.692 232.053 641.795 257.694 618.205 257.694V257.694Z" fill="#32325D"/>
<path fill-rule="evenodd" clip-rule="evenodd" d="M499.744 0L435.385 13.5897V65.8974L499.744 52.0513V0Z" fill="#32325D"/>
<path fill-rule="evenodd" clip-rule="evenodd" d="M435.385 85.3828H499.744V309.742H435.385V85.3828Z" fill="#32325D"/>
<path fill-rule="evenodd" clip-rule="evenodd" d="M366.411 104.359L362.308 85.3848H306.924V309.744H371.026V157.692C386.155 137.949 411.796 141.539 419.744 144.359V85.3848C411.539 82.3079 381.539 76.6668 366.411 104.359Z" fill="#32325D"/>
<path fill-rule="evenodd" clip-rule="evenodd" d="M238.205 29.7422L175.641 43.0755L175.385 248.46C175.385 286.409 203.846 314.358 241.795 314.358C262.821 314.358 278.205 310.511 286.667 305.896V253.845C278.462 257.178 237.949 268.973 237.949 231.024V139.999H286.667V85.3832H237.949L238.205 29.7422Z" fill="#32325D"/>
<path fill-rule="evenodd" clip-rule="evenodd" d="M64.8718 150.515C64.8718 140.515 73.0769 136.668 86.6667 136.668C106.154 136.668 130.769 142.566 150.256 153.079V92.8222C128.974 84.3607 107.949 81.0273 86.6667 81.0273C34.6154 81.0273 0 108.207 0 153.591C0 224.361 97.4359 213.079 97.4359 243.591C97.4359 255.386 87.1795 259.232 72.8205 259.232C51.5385 259.232 24.359 250.515 2.82051 238.72V299.745C26.6667 310.002 50.7692 314.361 72.8205 314.361C126.154 314.361 162.821 287.95 162.821 242.053C162.564 165.643 64.8718 179.232 64.8718 150.515Z" fill="#32325D"/>
</svg>
