<?xml version="1.0" encoding="utf-8"?>
<!-- Generator: Adobe Illustrator 26.0.0, SVG Export Plug-In . SVG Version: 6.00 Build 0)  -->
<svg version="1.1" id="Layer_1" xmlns="http://www.w3.org/2000/svg" xmlns:xlink="http://www.w3.org/1999/xlink" x="0px" y="0px"
	 viewBox="0 0 750 300" style="enable-background:new 0 0 750 300;" xml:space="preserve">
<style type="text/css">
	.st0{fill:#FEFEFE;}
	.st1{fill:#006D4F;}
	.st2{fill:#006E4F;}
	.st3{fill:#68A896;}
	.st4{fill:#44947E;}
	.st5{fill:#E3EFEC;}
	.st6{fill:#509B86;}
	.st7{fill:#AFD1C7;}
	.st8{fill:#9BC5B9;}
	.st9{fill:#8DBEB0;}
	.st10{fill:#B7D6CD;}
	.st11{fill:#68A997;}
	.st12{fill:#D2E5E0;}
</style>
<g>
	<g>
		<path class="st0" d="M303.42,286.8c-72.94,0-145.88,0-218.82,0.03c-1.09,0-1.34-0.25-1.34-1.34
			c0.03-83.09,0.03-166.18,0.03-249.26c0.77,0.02,0.86,0.68,1.07,1.19c2.63,6.32,7.83,8.96,14.47,7.3
			c6.53-1.63,13.16-2.45,19.87-2.83c18.01-1.02,36.03-0.37,54.05-0.54c2.01-0.02,2.42,0.49,2.08,2.48
			c-2.59,15.02-5.19,30.05-8.11,45.01c-4.83,24.73-9.71,49.46-14.55,74.18c-4.31,21.96-8.36,43.98-13.41,65.79
			c-3.13,13.53-6.39,27.03-10.85,40.2c-1.95,5.76,0.62,10.78,5.49,14c3.11,2.05,6.58,3.11,10.33,3.06c3.49-0.04,7,0.26,10.48-0.29
			c7.44-1.17,13.45-4.6,17.44-11.15c1.52-2.5,2.12-5.3,2.44-8.17c1.31-11.68,3.16-23.28,5.27-34.84
			c4.21-23.07,8.82-46.06,13.24-69.1c3.04-15.88,6.02-31.77,9.21-47.62c3.63-17.99,7.59-35.91,11.7-53.8
			c1.34-5.82,2.76-11.62,4.22-17.41c0.55-2.19,0.75-2.36,2.96-2.36c17.49-0.01,34.98-0.05,52.48,0.03
			c4.07,0.02,8.13,0.62,12.19,0.94c5.63,0.44,11.07-0.44,15.9-3.61c7.26-4.77,7.86-14.38,1.26-20.05
			c-3.17-2.73-6.85-4.12-11.08-4.15c-5.73-0.04-11.46,0.23-17.18,0.4c-4.95,0.15-9.9,0.18-14.85,0.18
			c-47.13,0.03-94.26,0.01-141.39,0.04c-2.77,0-5.52-0.41-8.29-0.32c-7.15,0.22-13.69,2.14-19.28,6.78
			c-2.84,2.36-4.76,5.34-6.02,8.79c-0.22,0.59-0.22,1.4-1.13,1.49c0-5.92,0.01-11.85-0.02-17.77c0-0.72,0.15-1.02,0.89-0.88
			c0.19,0.03,0.39,0.01,0.58,0.01c193.52,0,387.05,0,580.57-0.03c1.15,0,1.43,0.19,1.43,1.4c-0.04,90.31-0.04,180.62,0,270.93
			c0,1.13-0.3,1.32-1.36,1.32c-39.7-0.03-79.39-0.03-119.09-0.03c-0.1-0.16-0.07-0.29,0.07-0.42c0.75-0.38,1.59-0.41,2.4-0.54
			c9.02-1.49,16.34-8.64,17.68-17.63c0.58-3.92,0.83-7.91,1.27-11.86c0.81-7.29,1.89-14.53,2.98-21.78
			c2.17-14.41,4.68-28.75,7.59-43.03c2.07-10.14,4.27-20.25,7.78-30.01c3.86-10.73,9.11-20.69,16.48-29.47
			c5.95-7.08,13.01-12.8,21.26-16.97c4.17-2.11,8.54-3.73,13.14-4.71c6.7-1.44,13.11-3.67,18.76-7.67
			c4.41-3.12,7.93-6.98,9.66-12.25c1.17-3.55,0.79-6.94-1.13-10.08c-2.68-4.4-7.35-6.08-12.4-4.52c-4.56,1.41-8.94,3.28-13.18,5.45
			c-4.8,2.46-9.49,5.15-13.62,8.67c-6.09,5.19-11.29,11.2-15.99,17.67c-6.98,9.61-12.76,19.96-18.79,30.15
			c-0.92,1.55-1.79,3.12-2.83,4.58c-0.3,0.42-0.63,1.06-1.22,0.81c-0.64-0.26-0.31-0.94-0.21-1.42c1.1-5.38,2.4-10.71,3.64-16.05
			c2.28-9.79,4.66-19.56,7.25-29.27c2.12-7.93-2.63-13.21-8.51-15.04c-2.38-0.74-4.83-1.02-7.34-0.61c-3.64,0.6-7.33,0.91-11,1.21
			c-6.44,0.52-10.38,4.1-12.64,9.87c-0.99,2.51-1.45,5.13-1.36,7.84c0.04,1.16-0.03,2.33,0.01,3.5c0.28,8.04-0.68,15.99-1.9,23.91
			c-1.74,11.33-4.08,22.55-6.13,33.82c-2.65,14.57-5.36,29.13-8.06,43.69c-2.28,12.27-4.5,24.55-6.82,36.8
			c-0.89,4.67-1.59,9.38-2.62,14.03c-0.92,4.13-2.06,8.2-3.42,12.19c-2.44,7.13,0.7,12.87,6.5,16.12c1.79,1.01,3.71,1.67,5.74,2.07
			c0.76,0.15,1.55,0.16,2.26,0.53c0.14,0.12,0.16,0.26,0.06,0.42c-26.05,0-52.09,0-78.14,0c-0.09-0.17-0.06-0.31,0.09-0.43
			c1.51-0.4,3.05-0.47,4.6-0.58c5.78-0.39,11.55-0.86,16.87-3.46c6.08-2.97,10.67-7.38,13.16-13.77c1.01-2.58,0.88-5.14-0.45-7.59
			c-1.35-2.49-3.74-3.58-6.5-2.95c-2.7,0.61-5.33,1.5-8,2.23c-5.22,1.42-10.52,1.92-15.88,1.58c-4.82-0.31-8.69-2.68-11.66-6.4
			c-3.4-4.26-5.21-9.06-5.22-14.64c-0.01-7.44,1.3-14.69,2.62-21.94c3.47-19.11,6.75-38.25,10.29-57.34
			c2.94-15.85,5.8-31.71,8.7-47.57c1.47-8.02,2.8-16.07,4.42-24.07c3.79-18.65,7.8-37.26,12.21-55.78c0.37-1.56,0.72-3.12,1.08-4.68
			c1.56-6.73-3-12.78-8.81-14.69c-2.53-0.83-5.12-1.07-7.76-0.44c-4.59,1.09-9.21,1.92-13.92,2.39c-4.94,0.5-8.18,3.49-10.29,7.83
			c-1.53,3.16-2.37,6.57-2.28,10.01c0.37,13.25-1.84,26.22-4.03,39.19c-3.03,17.95-6.46,35.84-9.8,53.73
			c-4.88,26.16-9.89,52.29-14.77,78.44c-1.93,10.33-3.76,20.73-4.62,31.24c-0.64,7.85-0.85,15.7,1.1,23.45
			c3.06,12.22,10.79,19.88,22.77,23.46c3.51,1.05,7.12,1.52,10.72,2.06c0.51,0.08,1.23-0.09,1.37,0.73c-44.8,0-89.61,0-134.41,0
			c0.09-0.8,0.76-0.62,1.23-0.66c4.2-0.36,8.41-0.66,12.61-1.17c4.63-0.56,9.24-1.26,13.82-2.16c7.73-1.52,12.91-6.36,16.68-12.97
			c0.79-1.39,1.46-2.85,2.03-4.35c0.31-0.82,0.57-1.66,0.69-2.52c0.7-5.03-3.74-8.63-8.46-6.76c-7.31,2.89-14.84,4.94-22.62,6.04
			c-10.06,1.43-20.12,1.75-30.13-0.39c-7.47-1.59-14.2-4.75-19.75-10.06c-4.19-4.02-7.16-8.9-9.18-14.36
			c-3.02-8.17-3.71-16.64-3.32-25.24c0.12-2.56,0.4-5.12,0.86-7.66c0.22-1.2,0.81-1.71,2.06-1.77c5.14-0.25,10.28-0.32,15.41-0.6
			c12.94-0.7,25.87-1.59,38.6-4.26c15.06-3.16,29.34-8.34,42.34-16.68c13.85-8.89,24.46-20.61,30.64-36.02
			c2.52-6.29,4.18-12.8,4.49-19.64c0.47-10.28-1.95-19.64-8.52-27.71c-5.23-6.43-11.98-10.68-19.75-13.4
			c-6.84-2.39-13.88-3.53-21.12-3.89c-17.75-0.89-34.52,2.94-50.63,10.16c-10.54,4.72-20.07,11.02-28.73,18.64
			c-11.1,9.76-19.94,21.29-27.01,34.24c-7.6,13.94-12.82,28.68-15.38,44.37c-1.38,8.43-1.61,16.92-1.24,25.4
			c0.36,8.34,1.43,16.63,3.58,24.73c2.59,9.75,6.74,18.72,13.47,26.34c4.45,5.04,9.75,9.03,15.71,12.14
			c9.3,4.85,19.31,7.3,29.64,8.65c2.99,0.39,5.99,0.55,8.98,0.87c0.43,0.05,0.88,0.02,1.27,0.27
			C303.49,286.5,303.51,286.64,303.42,286.8z"/>
		<path class="st1" d="M83.28,31.86c0.31-0.04,0.34-0.3,0.41-0.53c2.2-7.66,7.62-12.16,14.77-14.89c4.36-1.67,8.92-2.33,13.58-2.02
			c3.74,0.25,7.48,0.3,11.22,0.3c46.94,0.01,93.87,0.04,140.81-0.03c8.69-0.01,17.39-0.44,26.08-0.69
			c5.49-0.16,10.25,1.54,13.94,5.68c5.45,6.11,4.4,14.64-2.35,19.24c-4.86,3.32-10.44,4.44-16.12,3.81
			c-9.36-1.03-18.72-0.89-28.09-0.91c-12.49-0.03-24.98,0.01-37.46-0.04c-1.16,0-1.54,0.36-1.81,1.44
			c-5.06,20.03-9.42,40.23-13.65,60.44c-6.67,31.9-12.48,63.98-18.73,95.96c-3.03,15.52-6.1,31.03-8.58,46.65
			c-1.06,6.71-2.09,13.43-2.78,20.19c-0.93,9.15-6.17,14.9-14.4,18.25c-3.08,1.25-6.34,1.85-9.68,1.77
			c-3.78-0.09-7.58,0.42-11.32-0.53c-4.12-1.05-7.66-3.03-10.18-6.55c-2.16-3.03-2.81-6.38-1.62-9.95
			c5.48-16.45,9.38-33.31,13.11-50.22c5.46-24.72,9.93-49.64,14.87-74.47c4.09-20.6,8.09-41.21,12.1-61.83
			c2.58-13.24,4.81-26.53,7.12-39.82c0.12-0.7,0.43-1.35-0.88-1.34c-17.3,0.16-34.6-0.28-51.89,0.34
			c-7.92,0.28-15.77,1.21-23.49,3.15c-6.4,1.61-12.39-1.79-14.45-8.1c-0.11-0.34-0.05-0.81-0.54-0.94c0-0.29,0-0.58,0-0.87
			c0.23-0.87,0.23-1.75,0-2.62C83.28,32.44,83.28,32.15,83.28,31.86z"/>
		<path class="st1" d="M303.4,286.56c-10.66-0.6-21.14-2.13-31.25-5.72c-20.75-7.38-33.28-22.16-38.37-43.28
			c-7.34-30.48-3.7-59.81,10-87.95c10.38-21.32,24.95-39.01,45.19-51.7c18.91-11.85,39.48-18.12,61.87-17.86
			c10.23,0.12,20.19,1.8,29.51,6.31c17.82,8.63,25.11,25.07,22.84,42.53c-2.64,20.37-13.07,36.25-29.17,48.56
			c-12.79,9.77-27.39,15.77-42.92,19.62c-11.3,2.8-22.82,4.14-34.41,4.93c-8.44,0.57-16.89,0.83-25.33,1.15
			c-0.65,0.02-1.18-0.03-1.32,0.88c-1.95,12.6-1.67,25,3.84,36.79c5.4,11.54,14.87,17.96,27.08,20.63
			c10.55,2.31,21.15,1.79,31.73,0.15c7.17-1.11,14.1-3.11,20.85-5.76c2.5-0.98,4.78-0.84,6.78,0.98c2.08,1.89,2.93,4.34,2.05,7
			c-3.49,10.56-9.97,17.91-21.54,19.79c-8.3,1.35-16.61,2.49-25.02,2.89c-0.27,0.01-0.6-0.09-0.72,0.3c-0.19,0-0.39,0-0.58,0
			c-0.61-0.3-1.25-0.08-1.88-0.15c-0.59,0-1.18,0-1.77,0c-1.78,0-3.55,0-5.33,0C304.82,286.6,304.1,286.75,303.4,286.56z"/>
		<path class="st2" d="M449.49,286.8c-1.72-0.68-3.57-0.56-5.35-0.86c-6.99-1.15-13.57-3.28-19.18-7.78
			c-6.46-5.18-9.8-12.14-11.31-20.1c-1.54-8.16-1.08-16.34-0.17-24.51c0.92-8.3,2.59-16.48,3.77-24.74
			c1.36-9.46,3.58-18.76,5.32-28.15c3.78-20.46,7.65-40.9,11.46-61.36c2.83-15.21,5.74-30.41,8.3-45.67
			c1.87-11.15,3.86-22.29,4.04-33.64c0.06-3.83-0.23-7.67,0.78-11.44c0.67-2.5,1.6-4.88,3.14-6.99c2.43-3.33,5.69-5.15,9.84-5.44
			c4.27-0.31,8.45-1.17,12.61-2.19c7.62-1.88,15.45,2.5,17.38,9.65c0.54,2.02,0.54,4.03,0.07,6.05
			c-4.81,20.34-9.38,40.73-13.42,61.24c-2.55,12.94-4.78,25.95-7.15,38.93c-3.95,21.61-8.04,43.2-11.78,64.85
			c-2.17,12.57-4.86,25.05-6.46,37.72c-0.54,4.29-0.92,8.61-0.14,12.91c1.46,8,7.68,14.82,15,16.02c4.83,0.79,9.7,0.17,14.46-0.9
			c3.07-0.69,6.15-1.44,9.11-2.49c6.41-2.29,9.97,3.42,9.41,8.26c-0.22,1.87-0.91,3.56-1.82,5.18
			c-4.58,8.18-11.81,12.48-20.85,13.99c-4.31,0.72-8.69,0.91-13.05,1.22c-0.49,0.18-1,0.06-1.49,0.09c-0.68,0-1.35,0-2.03,0
			c-0.6,0-1.2,0-1.8,0c-1.82,0.1-3.66-0.19-5.47,0.15C451.63,286.8,450.56,286.8,449.49,286.8z"/>
		<path class="st3" d="M305.43,286.55c1.86,0,3.72,0,5.58,0c0.08,0.06,0.11,0.12,0.08,0.17c-0.03,0.05-0.06,0.08-0.09,0.08
			c-1.85,0-3.69,0-5.54,0c-0.09-0.05-0.12-0.1-0.1-0.16C305.38,286.59,305.41,286.55,305.43,286.55z"/>
		<path class="st4" d="M452.7,286.8c1.83-0.63,3.71-0.16,5.56-0.26c0.08,0.06,0.11,0.12,0.08,0.18c-0.03,0.05-0.06,0.08-0.09,0.08
			C456.39,286.8,454.55,286.8,452.7,286.8z"/>
		<path class="st5" d="M546.3,286.56c0,0.08,0,0.16-0.01,0.25c-1.56,0-3.11,0-4.67,0c0-0.08,0-0.16-0.01-0.25
			C543.18,285.78,544.74,285.78,546.3,286.56z"/>
		<path class="st6" d="M83.28,32.73c0.46,0.87,0.48,1.75,0,2.62C83.28,34.48,83.28,33.6,83.28,32.73z"/>
		<path class="st7" d="M305.43,286.55c0.02,0.08,0.03,0.16,0.03,0.25c-0.68,0-1.36,0-2.04,0c0-0.08-0.01-0.16-0.02-0.24
			C304.08,286.56,304.75,286.56,305.43,286.55z"/>
		<path class="st8" d="M460.01,286.56c0.68,0,1.36,0,2.03-0.01c0.08,0.06,0.11,0.12,0.07,0.17c-0.03,0.05-0.06,0.08-0.09,0.08
			c-0.68,0-1.36,0-2.04,0c-0.1-0.06-0.13-0.12-0.09-0.17C459.94,286.59,459.97,286.56,460.01,286.56z"/>
		<path class="st9" d="M311,286.8c0-0.08,0-0.17,0.01-0.25c0.58,0,1.17,0.01,1.75,0.01c0.08,0.06,0.11,0.11,0.08,0.17
			c-0.03,0.05-0.06,0.08-0.09,0.08C312.16,286.8,311.58,286.8,311,286.8z"/>
		<path class="st10" d="M312.75,286.8c0-0.08,0.01-0.16,0.01-0.24c0.58,0.06,1.23-0.36,1.74,0.24
			C313.91,286.8,313.33,286.8,312.75,286.8z"/>
		<path class="st11" d="M460.01,286.56c-0.01,0.08-0.02,0.16-0.02,0.24c-0.58,0-1.17,0-1.75,0c0-0.09,0-0.17,0.02-0.26
			C458.84,286.55,459.43,286.56,460.01,286.56z"/>
		<path class="st12" d="M462.03,286.8c0-0.08,0.01-0.16,0.02-0.24c0.48,0,0.97,0,1.45,0c-0.01,0.08-0.01,0.16-0.01,0.24
			C463,286.8,462.52,286.8,462.03,286.8z"/>
		<path class="st2" d="M546.3,286.56c-1.56,0-3.12,0-4.68,0c-4.02-0.3-7.68-1.55-10.82-4.15c-4.49-3.72-6.15-8.74-4.28-14.21
			c3.61-10.52,5.19-21.48,7.22-32.34c4.06-21.79,8.1-43.59,12.08-65.39c2.76-15.13,5.9-30.18,8.21-45.39
			c1.23-8.12,2.05-16.28,1.59-24.52c-0.13-2.29,0.11-4.56,0.69-6.78c2-7.71,6.64-11.48,15.09-12.33c3.38-0.34,6.75-0.79,10.14-1.1
			c3.99-0.37,7.73,0.44,11.08,2.71c4.32,2.93,6.02,7.35,4.81,12.42c-3.37,14.1-7.03,28.13-10.18,42.29
			c-0.4,1.78-0.78,3.56-1.18,5.41c0.77-0.09,0.89-0.75,1.16-1.19c5.17-8.32,9.83-16.95,15.13-25.19
			c5.82-9.04,12.04-17.78,20.06-25.05c8.64-7.82,18.84-12.92,29.86-16.37c7.84-2.46,15.31,4.57,14.01,12.89
			c-0.69,4.44-3,8.06-6.1,11.19c-5.2,5.26-11.69,8.24-18.69,10.17c-5.42,1.5-10.92,2.67-16.03,5.11
			c-12.52,5.97-22,15.25-29.35,26.84c-6.94,10.94-11.24,22.95-14.21,35.48c-4.23,17.85-7.42,35.91-10.27,54.02
			c-1.81,11.51-3.52,23.03-4.5,34.64c-0.58,6.86-3.36,12.37-8.83,16.51C554.76,284.9,550.7,286.22,546.3,286.56z"/>
		<path class="st0" d="M366.18,125.72c-0.18,9.79-4.12,18.48-10.16,26.37c-5.25,6.86-11.88,12.25-18.72,17.39
			c-12.92,9.72-26.89,17.42-42.53,21.87c-7.03,2-14.19,3.23-21.51,3.45c-1.86,0.06-1.9,0.06-1.62-1.74
			c2.66-17.32,6.79-34.22,14-50.28c5.71-12.7,13.89-23.4,25.34-31.46c8.17-5.75,17.14-9.4,27.21-9.98
			c6.86-0.4,13.37,0.83,19.05,4.93C363.73,110.96,366.2,117.61,366.18,125.72z"/>
	</g>
</g>
</svg>
