<svg xmlns="http://www.w3.org/2000/svg" width="19.5" height="15.6" viewBox="0 0 19.5 15.6">
  <g id="image-gallery" transform="translate(-15.665 -2)">
    <g id="Group_12408" data-name="Group 12408" transform="translate(15.665 2)">
      <path id="Path_3575" data-name="Path 3575" d="M21.55,17.6H5.95A1.952,1.952,0,0,1,4,15.65V3.95A1.952,1.952,0,0,1,5.95,2h15.6A1.952,1.952,0,0,1,23.5,3.95v11.7A1.952,1.952,0,0,1,21.55,17.6ZM5.95,2.975a.977.977,0,0,0-.975.975v11.7a.977.977,0,0,0,.975.975h15.6a.977.977,0,0,0,.975-.975V3.95a.977.977,0,0,0-.975-.975Z" transform="translate(-4 -2)" fill="#333"/>
    </g>
    <g id="Group_12409" data-name="Group 12409" transform="translate(18.59 4.925)">
      <path id="Path_3576" data-name="Path 3576" d="M8.95,8.9A1.95,1.95,0,1,1,10.9,6.95,1.952,1.952,0,0,1,8.95,8.9Zm0-2.925a.975.975,0,1,0,.975.975A.977.977,0,0,0,8.95,5.975Z" transform="translate(-7 -5)" fill="#333"/>
    </g>
    <g id="Group_12410" data-name="Group 12410" transform="translate(15.733 7.411)">
      <path id="Path_3577" data-name="Path 3577" d="M4.557,16.7a.487.487,0,0,1-.345-.832l4.6-4.6a1.5,1.5,0,0,1,2.068,0l1.371,1.371L16.05,8.076a1.465,1.465,0,0,1,1.113-.526h.011a1.462,1.462,0,0,1,1.11.51l5.1,5.949a.487.487,0,1,1-.74.635l-5.1-5.949a.482.482,0,0,0-.37-.17A.518.518,0,0,0,16.8,8.7l-4.137,4.964a.486.486,0,0,1-.353.175.469.469,0,0,1-.367-.142L10.2,11.948a.5.5,0,0,0-.689,0l-4.6,4.6a.486.486,0,0,1-.344.142Z" transform="translate(-4.07 -7.55)" fill="#333"/>
    </g>
  </g>
</svg>
