<svg xmlns="http://www.w3.org/2000/svg" width="41.417" height="38" viewBox="0 0 41.417 38">
  <path id="cards-heart-outline" d="M22.916,35.2l-.207.207-.228-.207C12.644,26.276,6.142,20.374,6.142,14.39A7.077,7.077,0,0,1,13.39,7.142a8.129,8.129,0,0,1,7.393,4.887h3.852a8.129,8.129,0,0,1,7.393-4.887,7.077,7.077,0,0,1,7.248,7.248c0,5.985-6.5,11.887-16.36,20.812M32.027,3a12.453,12.453,0,0,0-9.319,4.307A12.453,12.453,0,0,0,13.39,3,11.266,11.266,0,0,0,2,14.39C2,22.2,9.041,28.6,19.706,38.266l3,2.734,3-2.734C36.376,28.6,43.417,22.2,43.417,14.39A11.266,11.266,0,0,0,32.027,3Z" transform="translate(-2 -3)" fill="#333"/>
</svg>
