<svg xmlns="http://www.w3.org/2000/svg" width="30" height="35" viewBox="0 0 30 35">
  <g id="Group_14732" data-name="Group 14732" transform="translate(-917 -1613.623)">
    <path id="Path_4436" data-name="Path 4436" d="M28.915,23.373a17.646,17.646,0,0,1-4.257,6.588,22.312,22.312,0,0,1-8.319,4.9,2.56,2.56,0,0,1-.808.142H15.5a2.6,2.6,0,0,1-.5-.049,2.7,2.7,0,0,1-.341-.092,22.31,22.31,0,0,1-8.329-4.894,17.612,17.612,0,0,1-4.256-6.587C.359,18.742.457,13.636.535,9.532V9.469c.016-.339.026-.695.032-1.088A3.72,3.72,0,0,1,4.084,4.747,14.535,14.535,0,0,0,13.945.617L13.969.6a2.268,2.268,0,0,1,3.064,0l.023.021a14.538,14.538,0,0,0,9.862,4.13,3.72,3.72,0,0,1,3.516,3.634c.006.4.016.751.032,1.088V9.5C30.544,13.607,30.641,18.724,28.915,23.373Zm0,0" transform="translate(916.5 1613.623)" fill="#56a8c7"/>
    <path id="Path_4440" data-name="Path 4440" d="M166.742,214.616l-5.907,5.908-1.276,1.276a1.546,1.546,0,0,1-2.185,0l-2.744-2.745a1.544,1.544,0,0,1,2.183-2.183l1.653,1.653,6.092-6.092a1.544,1.544,0,0,1,2.183,2.183Zm0,0" transform="translate(771.245 1414.41)" fill="#fff"/>
  </g>
</svg>
