<svg xmlns="http://www.w3.org/2000/svg" xmlns:xlink="http://www.w3.org/1999/xlink" width="17" height="17" viewBox="0 0 17 17">
  <defs>
    <clipPath id="clip-path">
      <rect id="Rectangle_49" data-name="Rectangle 49" width="17" height="17" fill="#333"/>
    </clipPath>
  </defs>
  <g id="Mask_Group_13" data-name="Mask Group 13" clip-path="url(#clip-path)">
    <g id="dashboard_1_" data-name="dashboard (1)" transform="translate(0 0.116)">
      <path id="Path_139" data-name="Path 139" d="M6.462,5.589H1.223A1.224,1.224,0,0,1,0,4.366V1.223A1.224,1.224,0,0,1,1.223,0h5.24A1.224,1.224,0,0,1,7.685,1.223V4.366A1.224,1.224,0,0,1,6.462,5.589ZM1.223,1.048a.175.175,0,0,0-.175.175V4.366a.175.175,0,0,0,.175.175h5.24a.175.175,0,0,0,.175-.175V1.223a.175.175,0,0,0-.175-.175Zm0,0" transform="translate(0 0)" fill="#333"/>
      <path id="Path_140" data-name="Path 140" d="M6.462,19.78H1.223A1.224,1.224,0,0,1,0,18.558V11.223A1.224,1.224,0,0,1,1.223,10h5.24a1.224,1.224,0,0,1,1.223,1.223v7.335A1.224,1.224,0,0,1,6.462,19.78Zm-5.24-8.733a.175.175,0,0,0-.175.175v7.335a.175.175,0,0,0,.175.175h5.24a.175.175,0,0,0,.175-.175V11.223a.175.175,0,0,0-.175-.175Zm0,0" transform="translate(0 -3.014)" fill="#333"/>
      <path id="Path_141" data-name="Path 141" d="M19.462,21.589h-5.24A1.224,1.224,0,0,1,13,20.366V17.223A1.224,1.224,0,0,1,14.223,16h5.24a1.224,1.224,0,0,1,1.223,1.223v3.144A1.224,1.224,0,0,1,19.462,21.589Zm-5.24-4.541a.175.175,0,0,0-.175.175v3.144a.175.175,0,0,0,.175.175h5.24a.175.175,0,0,0,.175-.175V17.223a.175.175,0,0,0-.175-.175Zm0,0" transform="translate(-3.918 -4.822)" fill="#333"/>
      <path id="Path_142" data-name="Path 142" d="M19.462,9.78h-5.24A1.224,1.224,0,0,1,13,8.558V1.223A1.224,1.224,0,0,1,14.223,0h5.24a1.224,1.224,0,0,1,1.223,1.223V8.558A1.224,1.224,0,0,1,19.462,9.78Zm-5.24-8.733a.175.175,0,0,0-.175.175V8.558a.175.175,0,0,0,.175.175h5.24a.175.175,0,0,0,.175-.175V1.223a.175.175,0,0,0-.175-.175Zm0,0" transform="translate(-3.918 0)" fill="#333"/>
    </g>
  </g>
</svg>
